<svg xmlns="http://www.w3.org/2000/svg" xmlns:xlink="http://www.w3.org/1999/xlink" viewBox="0 0 561.6 374.4"><defs><style>.cls-1{fill:none;}.cls-2{fill:#fffff2;}.cls-3{clip-path:url(#clip-path);}.cls-4{fill:#f8ffb9;}.cls-5{fill:#ffffd4;}.cls-6{fill:#e0f4b0;}.cls-7{fill:#acc47f;}.cls-8{fill:#81ac8f;}.cls-9{fill:#59867c;}.cls-10{fill:#f7ffae;}.cls-11{fill:#396e63;}.cls-12{fill:#2c5d3c;}.cls-13{fill:#ffffec;}</style><clipPath id="clip-path"><path class="cls-1" d="M263.17,0s-85.81-.17-73.78,114.19c9.13,86.68,95.74,124.52,112.62,158.46,34.25,68.86-90.77,101.75-90.77,101.75H561.6V0Z"/></clipPath></defs><g id="White_bg" data-name="White bg"><rect class="cls-2" width="561.6" height="374.4"/></g><g id="Object"><g class="cls-3"><rect class="cls-4" x="182.51" y="-2.1" width="446.37" height="378.59"/><path class="cls-5" d="M182.51,39.35s18.07,32,88.95,31.15,88.19-21.9,165.33-31.15c115.8-13.88,193,31.17,193,31.17l-1,306H158.12V-2.1Z"/><path class="cls-2" d="M182,89.73s18.07,27.23,89,26.5,94.46-18.07,171.51-27.16c116.91-13.79,186.86,27.17,186.86,27.17l-1,260.26H157.64v-322Z"/><path class="cls-6" d="M540.28,122.16v-.1a20.92,20.92,0,0,0,3.26,2c.42,0-2.07-3-2.14-3.15s2.16,1.29,2.23,1.15-2.11-3.61-3.19-5.34a16.78,16.78,0,0,0,2.75,2.25c.38,0-1.88-3.68-1.94-3.89s2,1.6,2,1.41-2.32-5.34-3.15-7.15a16.42,16.42,0,0,0,2.51,2.07c.31,0-1.56-3.06-1.62-3.24s1.64,1.33,1.69,1.18-2-4.65-2.67-6a13.91,13.91,0,0,0,2,1.68c.25,0-1.24-2.44-1.29-2.58s1.3,1.06,1.35.94-2.28-5.15-2.28-5.15-2.31,5-2.27,5.15,1.38-1.08,1.34-.94-1.54,2.58-1.28,2.58a13.93,13.93,0,0,0,2-1.68c-.64,1.4-2.71,5.93-2.66,6s1.73-1.35,1.68-1.18-1.93,3.24-1.61,3.24a16.45,16.45,0,0,0,2.5-2.07c-.83,1.81-3.2,7-3.15,7.15s2.09-1.62,2-1.41-2.32,3.89-1.94,3.89a17.22,17.22,0,0,0,2.75-2.25c-1.08,1.73-3.25,5.23-3.2,5.34s2.31-1.32,2.24-1.15-2.56,3.15-2.15,3.15a21.89,21.89,0,0,0,3.36-2c-1,1.61-3.9,6.26-3.84,6.39s2.55-1.45,2.47-1.26-2.83,3.47-2.36,3.47a24.68,24.68,0,0,0,3.78-2.31l-.11,11.55h1.17l-.21-11.36a22.45,22.45,0,0,0,3.52,2.12c.46,0-2.29-3.29-2.36-3.47s2.38,1.42,2.46,1.26S541.36,123.9,540.28,122.16Z"/><path class="cls-6" d="M526.51,112.9v-.09a21.51,21.51,0,0,0,3.26,2c.42,0-2.07-3-2.14-3.15s2.16,1.3,2.23,1.15-2.11-3.61-3.19-5.34a16.25,16.25,0,0,0,2.75,2.25c.38,0-1.88-3.68-1.94-3.89s2,1.6,2,1.42-2.32-5.34-3.15-7.15a16.42,16.42,0,0,0,2.51,2.07c.31,0-1.56-3.06-1.62-3.24s1.64,1.33,1.69,1.18-2-4.65-2.67-6.06a13.27,13.27,0,0,0,2,1.68c.25,0-1.24-2.43-1.29-2.57s1.3,1.06,1.35.94-2.28-5.15-2.28-5.15-2.31,5-2.27,5.15,1.38-1.08,1.34-.94-1.54,2.57-1.28,2.57a12.82,12.82,0,0,0,2-1.68c-.64,1.41-2.71,5.93-2.66,6.06s1.73-1.36,1.68-1.18-1.93,3.24-1.61,3.24a16.45,16.45,0,0,0,2.5-2.07c-.83,1.81-3.2,7-3.15,7.15s2.09-1.63,2-1.42-2.32,3.89-1.94,3.89a16.66,16.66,0,0,0,2.75-2.25c-1.08,1.73-3.25,5.23-3.2,5.34s2.31-1.32,2.24-1.15-2.56,3.15-2.15,3.15a21.68,21.68,0,0,0,3.36-2c-1,1.61-3.9,6.25-3.84,6.39s2.55-1.46,2.47-1.27-2.83,3.47-2.36,3.47a25.31,25.31,0,0,0,3.78-2.3l-.11,11.55h1.17l-.21-11.37a22.45,22.45,0,0,0,3.52,2.12c.46,0-2.29-3.28-2.36-3.47s2.38,1.43,2.46,1.27S527.6,114.64,526.51,112.9Z"/><path class="cls-6" d="M500.87,80.49v-.1a20.93,20.93,0,0,0,3.25,2c.42,0-2.07-3-2.14-3.15s2.16,1.29,2.23,1.15S502.1,76.75,501,75a16.66,16.66,0,0,0,2.75,2.25c.38,0-1.88-3.68-1.94-3.89s2,1.6,2,1.42-2.31-5.35-3.14-7.16a16,16,0,0,0,2.5,2.07c.32,0-1.56-3.06-1.61-3.23s1.63,1.33,1.68,1.18-2-4.66-2.67-6.06a13.91,13.91,0,0,0,2,1.68c.25,0-1.24-2.44-1.28-2.58s1.29,1.06,1.34.94-2.28-5.14-2.28-5.14-2.31,5-2.27,5.14,1.38-1.08,1.34-.94-1.53,2.58-1.28,2.58a13.41,13.41,0,0,0,2-1.68c-.64,1.4-2.71,5.93-2.66,6.06s1.73-1.36,1.68-1.18-1.93,3.23-1.61,3.23a16.45,16.45,0,0,0,2.5-2.07c-.83,1.81-3.2,7-3.15,7.16s2.09-1.63,2-1.42-2.32,3.89-1.94,3.89A16.66,16.66,0,0,0,499.83,75c-1.08,1.73-3.25,5.23-3.2,5.34s2.31-1.32,2.24-1.15-2.56,3.15-2.14,3.15a22.38,22.38,0,0,0,3.35-2c-1,1.62-3.9,6.26-3.84,6.39s2.55-1.45,2.47-1.26-2.82,3.47-2.36,3.47a25.31,25.31,0,0,0,3.78-2.3L500,98.16h1.18L501,86.8a22.45,22.45,0,0,0,3.52,2.12c.46,0-2.29-3.28-2.36-3.47s2.39,1.42,2.46,1.26S502,82.23,500.87,80.49Z"/><path class="cls-6" d="M453.82,60.13v-.06a12.16,12.16,0,0,0,1.91,1.15c.25,0-1.22-1.74-1.26-1.84s1.27.76,1.32.67-1.25-2.12-1.88-3.13a10.13,10.13,0,0,0,1.61,1.32c.23,0-1.1-2.16-1.13-2.29s1.15.94,1.18.83-1.36-3.13-1.84-4.19a9.52,9.52,0,0,0,1.47,1.21c.18,0-.92-1.8-.95-1.9s1,.78,1,.69-1.19-2.73-1.57-3.55a7.74,7.74,0,0,0,1.19,1c.15,0-.73-1.43-.75-1.51s.76.62.78.55-1.33-3-1.33-3-1.36,3-1.33,3,.81-.63.78-.55-.9,1.51-.75,1.51a7.74,7.74,0,0,0,1.19-1c-.38.82-1.59,3.48-1.57,3.55s1-.79,1-.69-1.13,1.9-.95,1.9a9.52,9.52,0,0,0,1.47-1.21c-.48,1.06-1.87,4.11-1.84,4.19s1.22-1,1.18-.83-1.36,2.29-1.13,2.29a9.69,9.69,0,0,0,1.61-1.32c-.63,1-1.91,3.07-1.88,3.13s1.36-.77,1.32-.67-1.51,1.84-1.26,1.84a12.76,12.76,0,0,0,2-1.19c-.59.95-2.29,3.67-2.25,3.75s1.49-.85,1.44-.74-1.65,2-1.38,2a15.17,15.17,0,0,0,2.22-1.36l-.07,6.78H454l-.12-6.67A13.64,13.64,0,0,0,456,65.08c.27,0-1.34-1.93-1.38-2s1.4.84,1.44.74S454.46,61.15,453.82,60.13Z"/><path class="cls-6" d="M443.56,68.56V68.5a11.63,11.63,0,0,0,1.91,1.16c.25,0-1.22-1.75-1.26-1.85s1.27.76,1.32.67-1.25-2.11-1.88-3.13a10.13,10.13,0,0,0,1.61,1.32c.23,0-1.1-2.16-1.13-2.28s1.15.94,1.18.83S444,62.08,443.47,61a9.13,9.13,0,0,0,1.47,1.22c.18,0-.92-1.8-.95-1.9s1,.78,1,.69-1.19-2.73-1.57-3.56a7.93,7.93,0,0,0,1.19,1c.15,0-.73-1.43-.75-1.51s.76.62.78.55-1.33-3-1.33-3-1.36,3-1.33,3,.81-.64.78-.55-.9,1.51-.75,1.51a7.93,7.93,0,0,0,1.19-1c-.38.83-1.59,3.48-1.57,3.56s1-.8,1-.69-1.13,1.9-.95,1.9A9.13,9.13,0,0,0,443.13,61c-.48,1.06-1.87,4.11-1.84,4.2s1.22-1,1.18-.83-1.36,2.28-1.13,2.28A10.13,10.13,0,0,0,443,65.35c-.63,1-1.91,3.07-1.88,3.13s1.36-.77,1.32-.67-1.51,1.85-1.26,1.85a13,13,0,0,0,2-1.2c-.59,1-2.29,3.68-2.25,3.75s1.49-.85,1.44-.74-1.65,2-1.38,2a15,15,0,0,0,2.22-1.35l-.07,6.78h.69l-.12-6.67a13.39,13.39,0,0,0,2.06,1.24c.27,0-1.34-1.93-1.38-2s1.4.84,1.44.74S444.2,69.58,443.56,68.56Z"/><path class="cls-6" d="M417.43,103v0a12.64,12.64,0,0,0,1.91,1.15c.25,0-1.21-1.75-1.25-1.85s1.27.76,1.31.68-1.24-2.12-1.88-3.14a9.65,9.65,0,0,0,1.62,1.32c.22,0-1.1-2.15-1.14-2.28s1.15.94,1.19.83-1.36-3.13-1.85-4.2a9.13,9.13,0,0,0,1.47,1.22c.18,0-.92-1.8-.95-1.9s1,.78,1,.69-1.19-2.73-1.57-3.55a8.25,8.25,0,0,0,1.19,1c.15,0-.73-1.43-.75-1.51s.76.62.79.55-1.34-3-1.34-3-1.36,3-1.33,3,.81-.63.79-.55-.91,1.51-.76,1.51a7.74,7.74,0,0,0,1.19-1c-.38.82-1.59,3.48-1.56,3.55s1-.79,1-.69-1.13,1.9-.94,1.9A10.1,10.1,0,0,0,417,95.45c-.49,1.07-1.88,4.12-1.85,4.2s1.22-1,1.19-.83-1.36,2.28-1.14,2.28a9.69,9.69,0,0,0,1.61-1.32c-.63,1-1.9,3.07-1.87,3.14s1.35-.78,1.31-.68-1.5,1.85-1.26,1.85a12.76,12.76,0,0,0,2-1.19c-.59.94-2.29,3.67-2.25,3.75s1.49-.85,1.45-.74-1.66,2-1.39,2a15,15,0,0,0,2.22-1.35l-.06,6.78h.69l-.13-6.67a12.91,12.91,0,0,0,2.07,1.24c.27,0-1.35-1.92-1.39-2s1.4.83,1.45.74S418.07,104,417.43,103Z"/><path class="cls-6" d="M315.53,103v0a12.16,12.16,0,0,0,1.91,1.15c.24,0-1.22-1.75-1.26-1.85s1.27.76,1.31.68-1.24-2.12-1.88-3.14a10.07,10.07,0,0,0,1.62,1.32c.22,0-1.1-2.15-1.14-2.28s1.15.94,1.19.83-1.36-3.13-1.85-4.2a9.59,9.59,0,0,0,1.47,1.22c.19,0-.92-1.8-.95-1.9s1,.78,1,.69-1.19-2.73-1.56-3.55a7.74,7.74,0,0,0,1.19,1c.14,0-.73-1.43-.76-1.51s.77.62.79.55-1.33-3-1.33-3-1.36,3-1.34,3,.81-.63.79-.55-.9,1.51-.76,1.51a7.74,7.74,0,0,0,1.19-1c-.37.82-1.59,3.48-1.56,3.55s1-.79,1-.69-1.14,1.9-.95,1.9a9.59,9.59,0,0,0,1.47-1.22c-.49,1.07-1.88,4.12-1.85,4.2s1.23-1,1.19-.83-1.36,2.28-1.14,2.28a9.65,9.65,0,0,0,1.62-1.32c-.64,1-1.91,3.07-1.88,3.14s1.35-.78,1.31-.68-1.5,1.85-1.26,1.85a12.3,12.3,0,0,0,2-1.19c-.59.94-2.29,3.67-2.25,3.75s1.49-.85,1.45-.74-1.66,2-1.39,2a14.48,14.48,0,0,0,2.23-1.35l-.07,6.78h.69l-.13-6.67a12.91,12.91,0,0,0,2.07,1.24c.27,0-1.34-1.92-1.39-2s1.4.83,1.45.74S316.17,104,315.53,103Z"/><path class="cls-6" d="M291.23,109.24v-.06a12.39,12.39,0,0,0,1.91,1.16c.24,0-1.22-1.75-1.26-1.85s1.27.76,1.31.67S292,107,291.32,106a9.69,9.69,0,0,0,1.61,1.32c.22,0-1.1-2.16-1.14-2.29s1.15.94,1.19.84-1.36-3.14-1.85-4.2a10.58,10.58,0,0,0,1.47,1.21c.19,0-.91-1.8-.94-1.9s.95.78,1,.69-1.18-2.73-1.56-3.55a7.74,7.74,0,0,0,1.19,1c.15,0-.73-1.43-.75-1.51s.76.62.78.55-1.33-3-1.33-3-1.36,2.95-1.34,3,.82-.63.79-.55-.9,1.51-.75,1.51a8.25,8.25,0,0,0,1.19-1c-.38.82-1.6,3.48-1.57,3.55s1-.79,1-.69-1.13,1.9-.95,1.9a9.52,9.52,0,0,0,1.47-1.21c-.49,1.06-1.88,4.11-1.85,4.2s1.23-1,1.19-.84-1.36,2.29-1.14,2.29a9.65,9.65,0,0,0,1.62-1.32c-.64,1-1.91,3.07-1.88,3.13s1.36-.77,1.32-.67-1.51,1.85-1.26,1.85a13.48,13.48,0,0,0,2-1.2c-.6,1-2.29,3.67-2.26,3.75s1.5-.85,1.45-.74-1.66,2-1.39,2a14.67,14.67,0,0,0,2.23-1.36l-.07,6.78h.69l-.12-6.67a13.16,13.16,0,0,0,2.06,1.25c.27,0-1.34-1.93-1.39-2s1.41.84,1.45.74S291.87,110.26,291.23,109.24Z"/><path class="cls-6" d="M265.1,142.3v-.06A11.63,11.63,0,0,0,267,143.4c.25,0-1.22-1.75-1.26-1.85s1.27.76,1.32.67-1.25-2.11-1.88-3.13a10.13,10.13,0,0,0,1.61,1.32c.23,0-1.1-2.16-1.13-2.28s1.15.94,1.18.83-1.36-3.14-1.84-4.2a9.13,9.13,0,0,0,1.47,1.22c.18,0-.92-1.8-1-1.91s1,.79,1,.7-1.19-2.73-1.57-3.56a7.93,7.93,0,0,0,1.19,1c.15,0-.73-1.43-.75-1.51s.76.62.78.55-1.33-3-1.33-3-1.36,2.95-1.33,3,.81-.64.78-.55-.9,1.51-.75,1.51a7.93,7.93,0,0,0,1.19-1c-.38.83-1.59,3.48-1.57,3.56s1-.8,1-.7S263,136,263.2,136a9.13,9.13,0,0,0,1.47-1.22c-.48,1.06-1.87,4.11-1.84,4.2s1.22-1,1.18-.83-1.36,2.28-1.13,2.28a9.69,9.69,0,0,0,1.61-1.32c-.63,1-1.91,3.07-1.87,3.13s1.35-.77,1.31-.67-1.51,1.85-1.26,1.85a13,13,0,0,0,2-1.2c-.59,1-2.29,3.68-2.25,3.75s1.49-.85,1.44-.74-1.65,2-1.38,2a15.88,15.88,0,0,0,2.22-1.35l-.07,6.78h.69l-.12-6.67a13.39,13.39,0,0,0,2.06,1.24c.27,0-1.34-1.93-1.38-2s1.4.84,1.44.74S265.74,143.32,265.1,142.3Z"/><polygon class="cls-6" points="364.05 168.45 466.27 46.04 628.88 241.59 628.88 343.87 123.08 343.87 303.55 93.49 364.05 168.45"/><polygon class="cls-7" points="466.27 46.04 481.45 119 508.64 146.37 497.11 170.16 591.61 343.24 628.88 343.24 629.83 235.75 466.27 46.04"/><polygon class="cls-7" points="303.55 93.49 312.81 158.06 330.79 169.51 327.27 189.27 432.61 343.24 506.87 343.24 303.55 93.49"/><polygon class="cls-8" points="123.08 343.24 207.82 160 290.97 343.24 123.08 343.24"/><polygon class="cls-8" points="232.18 343.24 347.06 175.9 440.85 343.24 232.18 343.24"/><polygon class="cls-8" points="325.39 343.24 414.13 208.96 487.8 343.24 325.39 343.24"/><polygon class="cls-8" points="448.19 332.13 527.7 185.72 616.32 332.13 448.19 332.13"/><polygon class="cls-9" points="203.58 343.24 274.37 199.12 339.34 343.24 203.58 343.24"/><polygon class="cls-9" points="386.88 343.24 451.84 210.98 511.46 343.24 386.88 343.24"/><polygon class="cls-9" points="542.53 343.24 613.32 199.12 678.29 343.24 542.53 343.24"/><polygon class="cls-9" points="494.34 343.24 535.9 251.36 574.04 343.24 494.34 343.24"/><polygon class="cls-9" points="302.09 343.24 348.16 264.99 390.44 343.24 302.09 343.24"/><path class="cls-9" d="M469,238.83v-.12a25.4,25.4,0,0,0,4,2.41c.51,0-2.54-3.64-2.62-3.85s2.65,1.58,2.74,1.4-2.59-4.41-3.91-6.53a20.17,20.17,0,0,0,3.36,2.75c.47,0-2.29-4.5-2.37-4.75s2.4,2,2.47,1.73-2.83-6.54-3.85-8.75a20.35,20.35,0,0,0,3.07,2.53c.38,0-1.92-3.75-2-4s2,1.63,2.06,1.44-2.47-5.69-3.26-7.41a16.29,16.29,0,0,0,2.48,2.06c.31,0-1.52-3-1.57-3.15s1.59,1.29,1.64,1.14-2.78-6.29-2.78-6.29-2.84,6.15-2.78,6.29,1.69-1.31,1.64-1.14-1.88,3.15-1.58,3.15a16.27,16.27,0,0,0,2.49-2.06c-.79,1.72-3.32,7.26-3.27,7.41s2.13-1.66,2.06-1.44-2.36,4-2,4a20.38,20.38,0,0,0,3.06-2.53c-1,2.21-3.91,8.57-3.85,8.75s2.55-2,2.48-1.73-2.84,4.75-2.38,4.75,2.28-1.75,3.37-2.75c-1.32,2.12-4,6.4-3.91,6.53s2.82-1.61,2.73-1.4-3.13,3.85-2.62,3.85a26.92,26.92,0,0,0,4.11-2.49c-1.24,2-4.77,7.65-4.7,7.82s3.11-1.78,3-1.55-3.46,4.25-2.89,4.25,3.57-2.1,4.63-2.82l-.13,14.13h1.43l-.26-13.91a27.61,27.61,0,0,0,4.3,2.6c.57,0-2.79-4-2.89-4.25s2.93,1.74,3,1.55S470.3,241,469,238.83Z"/><path class="cls-9" d="M409.39,312.16V312c1.6,1.09,5.15,3.46,5.72,3.46.74,0-3.64-5.24-3.76-5.54s3.8,2.28,3.93,2-3.72-6.34-5.62-9.39c1.56,1.44,4.36,4,4.83,4,.67,0-3.29-6.47-3.4-6.84s3.44,2.81,3.55,2.49-4.07-9.39-5.53-12.57c1.15,1.07,4,3.64,4.4,3.64s-2.75-5.39-2.84-5.69,2.87,2.33,3,2.07-3.55-8.18-4.69-10.65c.88.82,3.21,3,3.57,3s-2.19-4.29-2.26-4.53,2.28,1.86,2.36,1.65-4-9-4-9-4.07,8.84-4,9,2.43-1.9,2.35-1.65-2.7,4.53-2.26,4.53,2.69-2.14,3.57-3c-1.13,2.47-4.77,10.43-4.69,10.65s3.05-2.38,3-2.07-3.39,5.69-2.84,5.69,3.25-2.57,4.4-3.64c-1.45,3.18-5.62,12.31-5.53,12.57s3.67-2.86,3.56-2.49-4.08,6.84-3.41,6.84c.48,0,3.28-2.52,4.83-4-1.89,3-5.71,9.2-5.61,9.39s4.05-2.32,3.93-2-4.51,5.54-3.77,5.54c.59,0,4.41-2.56,5.9-3.58-1.77,2.84-6.86,11-6.75,11.23s4.47-2.55,4.34-2.22-5,6.1-4.15,6.1,5.13-3,6.65-4.05l-.19,20.31H410l-.37-20c1.82,1.23,5.57,3.72,6.18,3.72.81,0-4-5.77-4.16-6.1s4.2,2.51,4.34,2.22S411.31,315.22,409.39,312.16Z"/><path class="cls-9" d="M525.38,276.73v-.17c1.6,1.09,5.16,3.46,5.73,3.46.73,0-3.65-5.24-3.77-5.54s3.81,2.28,3.93,2-3.72-6.34-5.62-9.39c1.56,1.44,4.36,4,4.84,4,.67,0-3.3-6.47-3.41-6.84s3.45,2.81,3.56,2.49-4.08-9.39-5.54-12.57c1.16,1.07,4,3.64,4.4,3.64s-2.74-5.39-2.84-5.69,2.87,2.33,3,2.07-3.56-8.18-4.69-10.65c.87.82,3.21,3,3.56,3s-2.18-4.29-2.26-4.53,2.29,1.86,2.36,1.65-4-9-4-9-4.07,8.84-4,9S523,241.7,523,242s-2.7,4.53-2.26,4.53,2.69-2.14,3.56-3c-1.13,2.47-4.76,10.43-4.69,10.65s3.06-2.38,3-2.07-3.4,5.69-2.84,5.69,3.24-2.57,4.4-3.64c-1.46,3.18-5.63,12.31-5.54,12.57s3.67-2.86,3.56-2.49-4.07,6.84-3.41,6.84c.48,0,3.28-2.52,4.84-4-1.9,3.05-5.71,9.2-5.62,9.39s4.05-2.32,3.93-2-4.5,5.54-3.77,5.54,4.41-2.56,5.9-3.58c-1.77,2.84-6.85,11-6.74,11.23s4.47-2.55,4.33-2.22-5,6.1-4.15,6.1,5.13-3,6.65-4.05l-.19,20.31H526l-.37-20c1.82,1.23,5.57,3.72,6.18,3.72.81,0-4-5.77-4.15-6.1s4.2,2.51,4.33,2.22S527.29,279.79,525.38,276.73Z"/><path class="cls-9" d="M443.1,211.62v-.13c1.25.85,4,2.69,4.45,2.69s-2.83-4.07-2.93-4.3,3,1.77,3.05,1.57-2.88-4.93-4.36-7.29c1.21,1.11,3.39,3.07,3.76,3.07s-2.56-5-2.65-5.31,2.68,2.18,2.76,1.94-3.16-7.29-4.29-9.76a22,22,0,0,0,3.41,2.82c.43,0-2.13-4.18-2.2-4.42s2.23,1.82,2.3,1.61-2.76-6.35-3.64-8.26a18.3,18.3,0,0,0,2.77,2.29c.34,0-1.7-3.33-1.76-3.52s1.78,1.45,1.83,1.28-3.1-7-3.1-7-3.16,6.86-3.1,7,1.89-1.47,1.83-1.28-2.1,3.52-1.76,3.52a18.3,18.3,0,0,0,2.77-2.29c-.88,1.91-3.7,8.09-3.64,8.26s2.37-1.85,2.3-1.61-2.63,4.42-2.2,4.42a22,22,0,0,0,3.41-2.82c-1.13,2.47-4.36,9.55-4.29,9.76s2.85-2.22,2.76-1.94-3.16,5.31-2.65,5.31,2.55-2,3.76-3.07c-1.48,2.36-4.43,7.14-4.36,7.29s3.14-1.8,3.05-1.57-3.5,4.3-2.93,4.3,3.42-2,4.58-2.78c-1.37,2.2-5.32,8.54-5.23,8.72s3.47-2,3.36-1.73-3.85,4.74-3.22,4.74,4-2.34,5.16-3.14l-.15,15.76h1.6l-.28-15.51c1.41,1,4.32,2.89,4.79,2.89.63,0-3.12-4.48-3.22-4.74s3.26,2,3.36,1.73S444.58,214,443.1,211.62Z"/><path class="cls-9" d="M310.64,259.5v-.2c1.92,1.31,6.18,4.15,6.86,4.15.89,0-4.36-6.28-4.51-6.63s4.56,2.72,4.71,2.41-4.46-7.6-6.73-11.25c1.86,1.72,5.22,4.74,5.79,4.74.8,0-3.95-7.74-4.08-8.19s4.13,3.37,4.26,3-4.88-11.25-6.63-15.06c1.38,1.28,4.75,4.36,5.27,4.36.67,0-3.29-6.45-3.4-6.82s3.44,2.8,3.55,2.48-4.26-9.8-5.62-12.76c1,1,3.84,3.54,4.27,3.54s-2.62-5.13-2.7-5.42,2.73,2.23,2.82,2S309.7,209,309.7,209s-4.87,10.59-4.79,10.84,2.92-2.27,2.83-2-3.24,5.42-2.71,5.42,3.22-2.56,4.27-3.54c-1.35,3-5.71,12.49-5.61,12.76s3.66-2.85,3.54-2.48-4.06,6.82-3.4,6.82,3.89-3.08,5.28-4.36c-1.75,3.81-6.74,14.75-6.63,15.06s4.39-3.42,4.26-3-4.89,8.19-4.09,8.19c.57,0,3.93-3,5.8-4.74-2.28,3.65-6.84,11-6.73,11.25s4.85-2.77,4.71-2.41-5.4,6.63-4.52,6.63c.71,0,5.28-3.07,7.07-4.29-2.12,3.4-8.22,13.18-8.08,13.46s5.35-3.06,5.19-2.67-5.95,7.32-5,7.32c.8,0,6.15-3.61,8-4.86l-.23,24.33h2.47l-.45-23.94c2.18,1.48,6.68,4.47,7.41,4.47,1,0-4.81-6.92-5-7.32s5,3,5.2,2.67S312.93,263.17,310.64,259.5Z"/><path class="cls-9" d="M372.58,292.55v-.17c1.59,1.09,5.15,3.46,5.72,3.46.74,0-3.65-5.23-3.77-5.53s3.81,2.27,3.93,2-3.72-6.34-5.62-9.38c1.56,1.43,4.36,3.95,4.84,3.95.67,0-3.3-6.46-3.41-6.83s3.45,2.8,3.56,2.49-4.08-9.4-5.54-12.58c1.16,1.07,4,3.64,4.41,3.64s-2.75-5.38-2.84-5.69,2.87,2.34,3,2.07-3.56-8.18-4.69-10.64c.88.81,3.21,2.95,3.57,2.95s-2.19-4.28-2.26-4.53,2.28,1.86,2.35,1.65-4-9.05-4-9.05-4.07,8.84-4,9.05,2.43-1.9,2.36-1.65-2.7,4.53-2.26,4.53,2.69-2.14,3.57-2.95c-1.14,2.46-4.77,10.42-4.69,10.64s3.05-2.38,3-2.07-3.4,5.69-2.84,5.69,3.25-2.57,4.4-3.64c-1.46,3.18-5.62,12.31-5.53,12.58s3.67-2.87,3.55-2.49-4.07,6.83-3.4,6.83c.47,0,3.27-2.52,4.83-3.95-1.9,3-5.71,9.19-5.62,9.38s4.06-2.31,3.93-2-4.5,5.53-3.76,5.53c.59,0,4.4-2.56,5.9-3.58-1.78,2.84-6.86,11-6.75,11.24s4.47-2.56,4.33-2.23-5,6.1-4.15,6.1,5.14-3,6.66-4l-.2,20.3h2.06l-.37-20c1.82,1.23,5.57,3.72,6.18,3.72.82,0-4-5.77-4.15-6.1s4.2,2.51,4.34,2.23S374.49,295.61,372.58,292.55Z"/><path class="cls-9" d="M215.16,292.55v-.17c1.6,1.09,5.16,3.46,5.73,3.46.73,0-3.65-5.23-3.77-5.53s3.81,2.27,3.93,2-3.72-6.34-5.62-9.38c1.56,1.43,4.36,3.95,4.84,3.95.66,0-3.3-6.46-3.41-6.83s3.44,2.8,3.56,2.49-4.08-9.4-5.54-12.58c1.16,1.07,4,3.64,4.4,3.64s-2.74-5.38-2.84-5.69,2.87,2.34,3,2.07-3.56-8.18-4.69-10.64c.87.81,3.2,2.95,3.56,2.95s-2.18-4.28-2.26-4.53,2.29,1.86,2.36,1.65-4-9.05-4-9.05-4.07,8.84-4,9.05,2.43-1.9,2.36-1.65-2.71,4.53-2.26,4.53,2.69-2.14,3.56-2.95c-1.13,2.46-4.77,10.42-4.69,10.64s3.06-2.38,3-2.07-3.39,5.69-2.83,5.69,3.24-2.57,4.4-3.64c-1.46,3.18-5.63,12.31-5.54,12.58s3.67-2.87,3.56-2.49-4.08,6.83-3.41,6.83c.48,0,3.28-2.52,4.84-3.95-1.9,3-5.71,9.19-5.62,9.38s4-2.31,3.93-2-4.5,5.53-3.77,5.53,4.41-2.56,5.9-3.58c-1.77,2.84-6.85,11-6.74,11.24s4.47-2.56,4.33-2.23-5,6.1-4.15,6.1,5.13-3,6.65-4l-.19,20.3h2.06l-.37-20c1.82,1.23,5.57,3.72,6.18,3.72.81,0-4-5.77-4.15-6.1s4.2,2.51,4.33,2.23S217.07,295.61,215.16,292.55Z"/><path class="cls-8" d="M232.8,197.15V197a25.18,25.18,0,0,0,4,2.4c.52,0-2.53-3.63-2.61-3.84s2.64,1.58,2.73,1.4-2.59-4.41-3.91-6.52a20.93,20.93,0,0,0,3.36,2.74c.47,0-2.29-4.49-2.36-4.75s2.39,2,2.47,1.73-2.83-6.52-3.85-8.73a19.89,19.89,0,0,0,3.06,2.53c.39,0-1.91-3.74-2-4s2,1.63,2.06,1.44-2.48-5.68-3.26-7.4a16.29,16.29,0,0,0,2.48,2.06c.3,0-1.52-3-1.57-3.15s1.58,1.29,1.63,1.15-2.77-6.29-2.77-6.29-2.83,6.14-2.78,6.29,1.69-1.32,1.64-1.15-1.88,3.15-1.57,3.15a16.29,16.29,0,0,0,2.48-2.06c-.79,1.72-3.32,7.25-3.26,7.4s2.12-1.65,2.06-1.44-2.36,4-2,4a19.89,19.89,0,0,0,3.06-2.53c-1,2.21-3.91,8.55-3.84,8.73s2.55-2,2.47-1.73-2.83,4.75-2.37,4.75a20.5,20.5,0,0,0,3.36-2.74c-1.32,2.11-4,6.38-3.9,6.52s2.81-1.61,2.73-1.4-3.13,3.84-2.62,3.84a27.54,27.54,0,0,0,4.1-2.48c-1.23,2-4.77,7.64-4.69,7.8s3.11-1.77,3-1.54-3.45,4.24-2.88,4.24,3.56-2.09,4.62-2.82l-.13,14.11h1.43l-.26-13.88a26.92,26.92,0,0,0,4.3,2.59c.56,0-2.8-4-2.89-4.24s2.92,1.74,3,1.54S234.13,199.27,232.8,197.15Z"/><path class="cls-8" d="M217.16,187.37v-.12a25.41,25.41,0,0,0,4,2.41c.52,0-2.53-3.64-2.61-3.85s2.64,1.58,2.73,1.4-2.59-4.41-3.91-6.52a20.59,20.59,0,0,0,3.36,2.75c.47,0-2.29-4.5-2.36-4.75s2.39,1.95,2.47,1.73-2.83-6.53-3.85-8.74a20.38,20.38,0,0,0,3.06,2.53c.39,0-1.91-3.74-2-4s2,1.63,2.06,1.44-2.48-5.68-3.26-7.39a16.73,16.73,0,0,0,2.48,2c.3,0-1.52-3-1.57-3.15s1.58,1.29,1.63,1.15-2.77-6.29-2.77-6.29-2.83,6.14-2.78,6.29,1.69-1.32,1.64-1.15-1.88,3.15-1.57,3.15a16.73,16.73,0,0,0,2.48-2c-.79,1.71-3.32,7.24-3.26,7.39s2.12-1.65,2.06-1.44-2.36,4-2,4a19.89,19.89,0,0,0,3.06-2.53c-1,2.21-3.91,8.55-3.84,8.74s2.55-2,2.47-1.73-2.83,4.75-2.37,4.75a20.17,20.17,0,0,0,3.36-2.75c-1.32,2.11-4,6.39-3.9,6.52s2.81-1.61,2.73-1.4-3.13,3.85-2.62,3.85a26.91,26.91,0,0,0,4.1-2.49c-1.23,2-4.77,7.64-4.69,7.8s3.11-1.77,3-1.54-3.45,4.24-2.88,4.24,3.56-2.09,4.62-2.81l-.13,14.1h1.43l-.26-13.88a26.92,26.92,0,0,0,4.3,2.59c.56,0-2.8-4-2.89-4.24s2.92,1.74,3,1.54S218.49,189.5,217.16,187.37Z"/><path class="cls-8" d="M333.05,184.12V184a17.39,17.39,0,0,0,2.76,1.67c.36,0-1.76-2.52-1.82-2.67s1.84,1.1,1.9,1-1.79-3.06-2.71-4.53a13.7,13.7,0,0,0,2.33,1.91c.33,0-1.59-3.12-1.64-3.3s1.66,1.36,1.72,1.2-2-4.53-2.68-6.07A14,14,0,0,0,335,175c.27,0-1.33-2.6-1.37-2.75s1.38,1.13,1.43,1-1.72-3.95-2.27-5.14a11,11,0,0,0,1.73,1.43c.21,0-1.06-2.07-1.09-2.19s1.1.9,1.13.8-1.93-4.37-1.93-4.37-2,4.27-1.93,4.37,1.18-.92,1.14-.8-1.3,2.19-1.09,2.19a11.06,11.06,0,0,0,1.72-1.43c-.54,1.19-2.3,5-2.26,5.14s1.47-1.15,1.43-1S330,175,330.31,175a13.51,13.51,0,0,0,2.12-1.76c-.7,1.54-2.71,5.95-2.67,6.07s1.77-1.38,1.72-1.2-2,3.3-1.65,3.3a13.66,13.66,0,0,0,2.34-1.91c-.92,1.47-2.76,4.44-2.71,4.53s2-1.11,1.89-1-2.17,2.67-1.81,2.67a18.87,18.87,0,0,0,2.84-1.72c-.85,1.36-3.31,5.31-3.25,5.42s2.15-1.23,2.09-1.07-2.4,2.94-2,2.94a21.66,21.66,0,0,0,3.22-2l-.1,9.8h1l-.18-9.65a18.82,18.82,0,0,0,3,1.8c.4,0-1.94-2.78-2-2.94s2,1.21,2.09,1.07S334,185.59,333.05,184.12Z"/><path class="cls-8" d="M325.77,203.88v-.09a17.39,17.39,0,0,0,2.76,1.67c.36,0-1.76-2.52-1.82-2.67s1.84,1.1,1.9,1-1.8-3.07-2.71-4.54a13.7,13.7,0,0,0,2.33,1.91c.32,0-1.59-3.12-1.64-3.3s1.66,1.36,1.71,1.2-2-4.53-2.67-6.07a13.49,13.49,0,0,0,2.13,1.76c.27,0-1.33-2.6-1.37-2.75s1.38,1.13,1.43,1-1.72-3.94-2.27-5.14a11.55,11.55,0,0,0,1.72,1.43c.22,0-1-2.07-1.09-2.19s1.11.9,1.14.8-1.93-4.37-1.93-4.37-2,4.27-1.93,4.37,1.18-.92,1.14-.8-1.3,2.19-1.09,2.19a11.06,11.06,0,0,0,1.72-1.43c-.55,1.2-2.3,5-2.26,5.14s1.47-1.15,1.43-1-1.64,2.75-1.37,2.75a14,14,0,0,0,2.12-1.76c-.7,1.54-2.71,5.95-2.67,6.07s1.77-1.38,1.72-1.2-2,3.3-1.65,3.3a14.06,14.06,0,0,0,2.34-1.91c-.92,1.47-2.76,4.44-2.72,4.54s2-1.12,1.9-1-2.17,2.67-1.82,2.67a18.39,18.39,0,0,0,2.85-1.72c-.85,1.37-3.31,5.31-3.25,5.42s2.15-1.23,2.09-1.07-2.4,2.94-2,2.94a21.66,21.66,0,0,0,3.22-1.95l-.1,9.8h1l-.18-9.65a18.82,18.82,0,0,0,3,1.8c.39,0-1.94-2.78-2-2.94s2,1.21,2.09,1.07S326.69,205.35,325.77,203.88Z"/><path class="cls-8" d="M364.83,199.75v-.08a17.71,17.71,0,0,0,2.76,1.67c.35,0-1.76-2.53-1.82-2.68s1.84,1.1,1.9,1-1.8-3.06-2.72-4.53a14.4,14.4,0,0,0,2.34,1.9c.32,0-1.59-3.12-1.65-3.29s1.67,1.35,1.72,1.2-2-4.54-2.67-6.07a14.42,14.42,0,0,0,2.12,1.75c.27,0-1.32-2.6-1.37-2.74s1.39,1.12,1.43,1-1.71-4-2.26-5.14a11.48,11.48,0,0,0,1.72,1.42c.21,0-1.05-2.07-1.09-2.18s1.1.89,1.14.79-1.93-4.37-1.93-4.37-2,4.27-1.93,4.37,1.17-.91,1.14-.79-1.31,2.18-1.09,2.18a11.48,11.48,0,0,0,1.72-1.42c-.55,1.19-2.3,5-2.27,5.14s1.48-1.15,1.44-1-1.64,2.74-1.38,2.74a13.89,13.89,0,0,0,2.13-1.75c-.7,1.53-2.72,5.94-2.67,6.07s1.77-1.38,1.72-1.2-2,3.29-1.65,3.29a14,14,0,0,0,2.33-1.9c-.91,1.47-2.75,4.43-2.71,4.53s2-1.12,1.9-1-2.18,2.68-1.82,2.68a18.6,18.6,0,0,0,2.85-1.73c-.86,1.37-3.31,5.31-3.26,5.42s2.16-1.23,2.09-1.07-2.39,2.94-2,2.94a21.64,21.64,0,0,0,3.21-2l-.09,9.8h1l-.17-9.64a18.46,18.46,0,0,0,3,1.79c.39,0-1.94-2.78-2-2.94s2,1.21,2.1,1.07S365.75,201.23,364.83,199.75Z"/><path class="cls-8" d="M376.36,219.48v-.08a17.38,17.38,0,0,0,2.77,1.67c.35,0-1.76-2.53-1.82-2.67s1.84,1.1,1.9,1-1.8-3.06-2.72-4.53a14.62,14.62,0,0,0,2.34,1.91c.32,0-1.59-3.12-1.65-3.3s1.67,1.36,1.72,1.2-2-4.53-2.67-6.07a14,14,0,0,0,2.12,1.76c.27,0-1.32-2.6-1.37-2.75s1.39,1.13,1.43,1-1.71-4-2.26-5.14a11.67,11.67,0,0,0,1.72,1.43c.21,0-1.05-2.07-1.09-2.19s1.1.9,1.14.8-1.93-4.37-1.93-4.37-2,4.27-1.93,4.37,1.17-.92,1.14-.8-1.31,2.19-1.09,2.19a11.67,11.67,0,0,0,1.72-1.43c-.55,1.19-2.3,5-2.27,5.14s1.48-1.15,1.43-1-1.63,2.75-1.37,2.75a13.49,13.49,0,0,0,2.13-1.76c-.7,1.54-2.72,5.95-2.67,6.07s1.77-1.38,1.71-1.2-2,3.3-1.64,3.3a14.23,14.23,0,0,0,2.33-1.91c-.91,1.47-2.75,4.44-2.71,4.53s2-1.12,1.9-1-2.18,2.67-1.82,2.67a17.82,17.82,0,0,0,2.85-1.73c-.86,1.37-3.31,5.31-3.26,5.43s2.16-1.24,2.09-1.08-2.39,2.95-2,2.95a21,21,0,0,0,3.21-2l-.09,9.81h1l-.17-9.65a18,18,0,0,0,3,1.8c.39,0-1.94-2.79-2-2.95s2,1.21,2.1,1.08S377.28,221,376.36,219.48Z"/><path class="cls-8" d="M402.77,217.43v-.08a17.39,17.39,0,0,0,2.76,1.67c.36,0-1.76-2.53-1.82-2.67s1.84,1.1,1.9,1-1.8-3.06-2.71-4.53a14.23,14.23,0,0,0,2.33,1.91c.32,0-1.59-3.12-1.64-3.3s1.66,1.35,1.71,1.2-2-4.53-2.67-6.07a13.49,13.49,0,0,0,2.13,1.76c.26,0-1.33-2.6-1.37-2.75s1.38,1.13,1.43,1-1.72-3.95-2.27-5.14a12.22,12.22,0,0,0,1.72,1.43c.22,0-1-2.07-1.09-2.19s1.11.9,1.14.8-1.93-4.37-1.93-4.37-2,4.26-1.93,4.37,1.18-.92,1.14-.8-1.3,2.19-1.09,2.19a11.67,11.67,0,0,0,1.72-1.43c-.55,1.19-2.3,5-2.26,5.14s1.47-1.15,1.43-1-1.64,2.75-1.37,2.75a14,14,0,0,0,2.12-1.76c-.7,1.54-2.71,5.94-2.67,6.07s1.77-1.38,1.72-1.2-2,3.3-1.65,3.3a14.62,14.62,0,0,0,2.34-1.91c-.92,1.47-2.76,4.44-2.72,4.53s2-1.12,1.9-1S398.9,219,399.25,219a18.6,18.6,0,0,0,2.85-1.73c-.85,1.37-3.31,5.31-3.26,5.43s2.16-1.24,2.1-1.08-2.4,3-2,3a21,21,0,0,0,3.22-2l-.1,9.81h1l-.18-9.65a18.82,18.82,0,0,0,3,1.8c.39,0-1.94-2.79-2-3s2,1.21,2.09,1.08S403.69,218.91,402.77,217.43Z"/><path class="cls-8" d="M429.44,231.35v-.09a17,17,0,0,0,2.76,1.67c.35,0-1.76-2.52-1.82-2.67s1.84,1.1,1.9,1-1.8-3.07-2.71-4.54a13.7,13.7,0,0,0,2.33,1.91c.32,0-1.59-3.12-1.65-3.3s1.67,1.36,1.72,1.2-2-4.53-2.67-6.07a14,14,0,0,0,2.12,1.76c.27,0-1.32-2.6-1.37-2.75s1.39,1.13,1.43,1-1.71-3.94-2.26-5.14a11.06,11.06,0,0,0,1.72,1.43c.22,0-1.05-2.07-1.09-2.19s1.1.9,1.14.8-1.93-4.37-1.93-4.37-2,4.27-1.93,4.37,1.17-.92,1.14-.8-1.31,2.19-1.09,2.19a11.06,11.06,0,0,0,1.72-1.43c-.55,1.2-2.3,5-2.26,5.14s1.47-1.15,1.43-1-1.64,2.75-1.38,2.75a13.49,13.49,0,0,0,2.13-1.76c-.7,1.54-2.72,5.95-2.67,6.07s1.77-1.38,1.72-1.2-2,3.3-1.65,3.3a13.7,13.7,0,0,0,2.33-1.91c-.91,1.47-2.75,4.44-2.71,4.54s2-1.12,1.9-1-2.17,2.67-1.82,2.67a18.39,18.39,0,0,0,2.85-1.72c-.86,1.37-3.31,5.31-3.26,5.42s2.16-1.23,2.09-1.07-2.39,2.94-2,2.94a21.64,21.64,0,0,0,3.21-1.95l-.09,9.8h1l-.17-9.65a18,18,0,0,0,3,1.8c.39,0-1.94-2.78-2-2.94s2,1.21,2.1,1.07S430.36,232.82,429.44,231.35Z"/><path class="cls-8" d="M498.26,236.61v-.08A17.39,17.39,0,0,0,501,238.2c.36,0-1.76-2.53-1.82-2.67s1.84,1.1,1.9,1-1.79-3.06-2.71-4.53a14.23,14.23,0,0,0,2.33,1.91c.33,0-1.59-3.12-1.64-3.3s1.66,1.36,1.72,1.2-2-4.53-2.68-6.07a14,14,0,0,0,2.13,1.76c.27,0-1.33-2.6-1.37-2.75s1.38,1.13,1.43,1-1.72-3.95-2.27-5.14a11.65,11.65,0,0,0,1.73,1.43c.21,0-1.06-2.07-1.09-2.19s1.1.9,1.13.8-1.93-4.37-1.93-4.37-2,4.27-1.93,4.37,1.18-.92,1.14-.8S495.79,222,496,222a11.67,11.67,0,0,0,1.72-1.43c-.54,1.19-2.3,5-2.26,5.14s1.47-1.15,1.43-1-1.64,2.75-1.37,2.75a13.51,13.51,0,0,0,2.12-1.76c-.7,1.54-2.71,5.95-2.67,6.07s1.77-1.38,1.72-1.2-2,3.3-1.65,3.3a14.18,14.18,0,0,0,2.34-1.91c-.92,1.47-2.76,4.44-2.71,4.53s1.95-1.12,1.89-1-2.17,2.67-1.81,2.67a18.26,18.26,0,0,0,2.84-1.73c-.85,1.37-3.31,5.31-3.25,5.43s2.15-1.24,2.09-1.08-2.4,3-2,3a21,21,0,0,0,3.22-2l-.1,9.81h1l-.18-9.65a18.82,18.82,0,0,0,3,1.8c.4,0-1.94-2.79-2-3s2,1.21,2.09,1.08S499.19,238.09,498.26,236.61Z"/><path class="cls-8" d="M514.08,203.88v-.09a17.38,17.38,0,0,0,2.77,1.67c.35,0-1.76-2.52-1.82-2.67s1.84,1.1,1.9,1-1.8-3.07-2.72-4.54a14.06,14.06,0,0,0,2.34,1.91c.32,0-1.59-3.12-1.65-3.3s1.67,1.36,1.72,1.2-2-4.53-2.67-6.07a14,14,0,0,0,2.12,1.76c.27,0-1.32-2.6-1.37-2.75s1.39,1.13,1.43,1-1.71-3.94-2.26-5.14a11.06,11.06,0,0,0,1.72,1.43c.21,0-1.05-2.07-1.09-2.19s1.1.9,1.14.8-1.93-4.37-1.93-4.37-2,4.27-1.93,4.37,1.17-.92,1.14-.8-1.31,2.19-1.09,2.19a11.55,11.55,0,0,0,1.72-1.43c-.55,1.2-2.3,5-2.27,5.14s1.48-1.15,1.43-1-1.63,2.75-1.37,2.75a13.49,13.49,0,0,0,2.13-1.76c-.71,1.54-2.72,5.95-2.67,6.07s1.77-1.38,1.71-1.2-2,3.3-1.64,3.3a13.7,13.7,0,0,0,2.33-1.91c-.91,1.47-2.75,4.44-2.71,4.54s2-1.12,1.9-1-2.18,2.67-1.82,2.67a18.87,18.87,0,0,0,2.85-1.72c-.86,1.37-3.31,5.31-3.26,5.42s2.16-1.23,2.09-1.07-2.39,2.94-2,2.94a21.64,21.64,0,0,0,3.21-1.95l-.09,9.8h1l-.18-9.65a18.37,18.37,0,0,0,3,1.8c.39,0-1.94-2.78-2-2.94s2,1.21,2.1,1.07S515,205.35,514.08,203.88Z"/><path class="cls-8" d="M563.32,235.12V235a18,18,0,0,0,2.76,1.66c.36,0-1.76-2.52-1.81-2.67s1.83,1.1,1.89,1-1.79-3.07-2.71-4.54a13.66,13.66,0,0,0,2.34,1.91c.32,0-1.6-3.12-1.65-3.3s1.66,1.36,1.72,1.21-2-4.54-2.67-6.08a13.51,13.51,0,0,0,2.12,1.76c.27,0-1.33-2.6-1.37-2.75s1.39,1.13,1.43,1-1.72-3.94-2.26-5.14a10.61,10.61,0,0,0,1.72,1.43c.21,0-1.06-2.07-1.09-2.19s1.1.9,1.13.8-1.92-4.37-1.92-4.37-2,4.27-1.93,4.37,1.17-.91,1.13-.8-1.3,2.19-1.09,2.19a11,11,0,0,0,1.73-1.43c-.55,1.2-2.31,5-2.27,5.14s1.48-1.15,1.43-1-1.64,2.75-1.37,2.75a14,14,0,0,0,2.13-1.76c-.71,1.54-2.72,5.95-2.68,6.08s1.77-1.39,1.72-1.21-2,3.3-1.64,3.3a13.7,13.7,0,0,0,2.33-1.91c-.92,1.47-2.76,4.44-2.71,4.54s2-1.12,1.9-1-2.18,2.67-1.82,2.67a19.38,19.38,0,0,0,2.85-1.72c-.86,1.37-3.32,5.31-3.26,5.42s2.16-1.23,2.09-1.07-2.4,2.94-2,2.94a22.17,22.17,0,0,0,3.21-2l-.1,9.8h1l-.18-9.65a18.37,18.37,0,0,0,3,1.8c.39,0-1.94-2.78-2-2.94s2,1.21,2.09,1.07S564.25,236.59,563.32,235.12Z"/><rect class="cls-10" x="158.12" y="341.22" width="470.76" height="35.28"/><path class="cls-10" d="M260.6,342.35s-.23-7.23-2.35-12.53a17.44,17.44,0,0,0-6.18-7.83s4.71,2.36,6.77,6.73,2.65,10.94,2.65,10.94,1.14-10.18,0-15.42L260.34,319s1.32,2.14,2.29,7.57a61,61,0,0,1,.4,12.74,61,61,0,0,0,2.38-7.51c.53-2.71,1.64-7.44,1.64-7.44a80.29,80.29,0,0,1-.89,9.72c-.7,3.78-1.14,8.26-1.14,8.26Z"/><path class="cls-10" d="M278.43,346.14s-.23-7.24-2.35-12.54a17.37,17.37,0,0,0-6.18-7.82s4.71,2.35,6.77,6.73,2.65,10.94,2.65,10.94,1.14-10.18,0-15.42l-1.15-5.24s1.32,2.15,2.29,7.57a61.06,61.06,0,0,1,.4,12.75,61.56,61.56,0,0,0,2.38-7.51c.53-2.71,1.64-7.45,1.64-7.45a80.13,80.13,0,0,1-.89,9.72c-.7,3.79-1.14,8.27-1.14,8.27Z"/><path class="cls-10" d="M233.23,349.94s-.24-7.23-2.36-12.54a17.37,17.37,0,0,0-6.18-7.82s4.71,2.36,6.77,6.73,2.65,10.94,2.65,10.94,1.15-10.18,0-15.42L233,326.59s1.33,2.15,2.3,7.58a60.64,60.64,0,0,1,.39,12.74A60.36,60.36,0,0,0,238,339.4c.53-2.71,1.63-7.44,1.63-7.44a81.38,81.38,0,0,1-.88,9.71c-.71,3.79-1.15,8.27-1.15,8.27Z"/><path class="cls-10" d="M206.45,344.89a25.16,25.16,0,0,0-1.34-7.11,9.83,9.83,0,0,0-3.51-4.44,9.3,9.3,0,0,1,3.84,3.82,22.35,22.35,0,0,1,1.51,6.2s.65-5.77,0-8.75l-.65-3a13.59,13.59,0,0,1,1.3,4.3,34.41,34.41,0,0,1,.22,7.23,34.06,34.06,0,0,0,1.36-4.26c.3-1.54.92-4.22.92-4.22a45.69,45.69,0,0,1-.5,5.51c-.4,2.15-.65,4.69-.65,4.69Z"/><path class="cls-10" d="M196.82,342.35a24.77,24.77,0,0,0-1.34-7.11,9.85,9.85,0,0,0-3.5-4.44,9.3,9.3,0,0,1,3.84,3.82,22.17,22.17,0,0,1,1.5,6.2s.65-5.77,0-8.75l-.65-3a13.59,13.59,0,0,1,1.3,4.3,34.73,34.73,0,0,1,.23,7.23,34.63,34.63,0,0,0,1.35-4.26c.3-1.54.93-4.22.93-4.22a45.69,45.69,0,0,1-.5,5.51c-.4,2.15-.65,4.69-.65,4.69Z"/><path class="cls-10" d="M181.19,342.35a31.66,31.66,0,0,0-1.63-8.87,12.19,12.19,0,0,0-4.29-5.54,11.47,11.47,0,0,1,4.7,4.76,28.37,28.37,0,0,1,1.84,7.75s.79-7.21,0-10.92l-.8-3.71a17.06,17.06,0,0,1,1.59,5.36,43.67,43.67,0,0,1,.28,9,44.78,44.78,0,0,0,1.65-5.32c.37-1.92,1.13-5.27,1.13-5.27a57.82,57.82,0,0,1-.61,6.88c-.49,2.68-.79,5.85-.79,5.85Z"/><path class="cls-10" d="M188.43,346.53a31.66,31.66,0,0,0-1.63-8.87,12.19,12.19,0,0,0-4.29-5.54,11.47,11.47,0,0,1,4.7,4.76,28.18,28.18,0,0,1,1.83,7.75s.8-7.21,0-10.92l-.79-3.71a17.06,17.06,0,0,1,1.59,5.36,44.46,44.46,0,0,1,.28,9,44.78,44.78,0,0,0,1.65-5.32c.37-1.92,1.13-5.27,1.13-5.27a57.82,57.82,0,0,1-.61,6.88c-.49,2.68-.8,5.85-.8,5.85Z"/><path class="cls-10" d="M165.47,344a31.85,31.85,0,0,0-1.64-8.87,12.19,12.19,0,0,0-4.29-5.54,11.47,11.47,0,0,1,4.7,4.76,28.37,28.37,0,0,1,1.84,7.75s.79-7.21,0-10.92l-.8-3.71a17.06,17.06,0,0,1,1.59,5.36,43.67,43.67,0,0,1,.28,9,42.89,42.89,0,0,0,1.65-5.32c.37-1.92,1.14-5.27,1.14-5.27a58.75,58.75,0,0,1-.62,6.88c-.49,2.68-.79,5.85-.79,5.85Z"/><path class="cls-10" d="M310.43,346.53a31.85,31.85,0,0,0-1.64-8.87,12.21,12.21,0,0,0-4.28-5.54,11.47,11.47,0,0,1,4.69,4.76,28.37,28.37,0,0,1,1.84,7.75s.8-7.21,0-10.92l-.8-3.71a17.19,17.19,0,0,1,1.6,5.36,44.12,44.12,0,0,1,.27,9,44.15,44.15,0,0,0,1.66-5.32c.36-1.92,1.13-5.27,1.13-5.27a57.82,57.82,0,0,1-.61,6.88c-.49,2.68-.8,5.85-.8,5.85Z"/><path class="cls-10" d="M323.29,346.53a31.85,31.85,0,0,1,1.64-8.87,12.19,12.19,0,0,1,4.29-5.54,11.47,11.47,0,0,0-4.7,4.76,28.37,28.37,0,0,0-1.84,7.75s-.79-7.21,0-10.92l.8-3.71a17.06,17.06,0,0,0-1.59,5.36,43.67,43.67,0,0,0-.28,9,42.89,42.89,0,0,1-1.65-5.32c-.37-1.92-1.14-5.27-1.14-5.27a58.75,58.75,0,0,0,.62,6.88c.49,2.68.79,5.85.79,5.85Z"/><path class="cls-10" d="M295.8,349.48a31.85,31.85,0,0,1,1.64-8.87,12.19,12.19,0,0,1,4.29-5.54,11.47,11.47,0,0,0-4.7,4.76,28.37,28.37,0,0,0-1.84,7.75s-.8-7.21,0-10.92L296,333a17.19,17.19,0,0,0-1.6,5.36,44.12,44.12,0,0,0-.27,9,42.89,42.89,0,0,1-1.65-5.32c-.37-1.92-1.14-5.27-1.14-5.27a57.82,57.82,0,0,0,.61,6.88c.49,2.68.8,5.85.8,5.85Z"/><path class="cls-10" d="M344.7,342.73a32,32,0,0,1,1.64-8.88,12.28,12.28,0,0,1,4.28-5.54,11.53,11.53,0,0,0-4.69,4.77,28.33,28.33,0,0,0-1.84,7.74s-.8-7.2,0-10.91l.8-3.71a17.19,17.19,0,0,0-1.6,5.36,44.12,44.12,0,0,0-.27,9,44.15,44.15,0,0,1-1.66-5.32c-.36-1.92-1.13-5.27-1.13-5.27a57.82,57.82,0,0,0,.61,6.88c.49,2.68.8,5.85.8,5.85Z"/><path class="cls-10" d="M361.19,347.21a31.76,31.76,0,0,1,1.63-8.88,12.26,12.26,0,0,1,4.29-5.54,11.53,11.53,0,0,0-4.7,4.77,28.33,28.33,0,0,0-1.84,7.74s-.79-7.2,0-10.91l.8-3.71a17.06,17.06,0,0,0-1.59,5.36,43.67,43.67,0,0,0-.28,9,44.78,44.78,0,0,1-1.65-5.32c-.37-1.92-1.13-5.27-1.13-5.27a57.82,57.82,0,0,0,.61,6.88c.49,2.68.79,5.85.79,5.85Z"/><path class="cls-10" d="M376.27,341.22a31.71,31.71,0,0,1,1.63-8.88,12.26,12.26,0,0,1,4.29-5.54,11.53,11.53,0,0,0-4.7,4.77,28.47,28.47,0,0,0-1.83,7.74s-.8-7.21,0-10.92l.79-3.71a17.08,17.08,0,0,0-1.59,5.37,44,44,0,0,0-.27,9,43.52,43.52,0,0,1-1.66-5.32c-.37-1.92-1.13-5.27-1.13-5.27a57.82,57.82,0,0,0,.61,6.88c.49,2.68.8,5.86.8,5.86Z"/><path class="cls-10" d="M370.31,345.07a31.9,31.9,0,0,1,1.64-8.88,12.28,12.28,0,0,1,4.28-5.54,11.55,11.55,0,0,0-4.69,4.76,28.37,28.37,0,0,0-1.84,7.75s-.8-7.21,0-10.92l.8-3.71a17.21,17.21,0,0,0-1.6,5.37,44,44,0,0,0-.27,9A44.15,44.15,0,0,1,367,337.6c-.36-1.92-1.13-5.27-1.13-5.27a57.82,57.82,0,0,0,.61,6.88c.49,2.68.8,5.86.8,5.86Z"/><path class="cls-10" d="M386.66,344.18a31.85,31.85,0,0,1,1.64-8.87,12.27,12.27,0,0,1,4.28-5.55,11.53,11.53,0,0,0-4.69,4.77,28.37,28.37,0,0,0-1.84,7.75s-.8-7.21,0-10.92l.8-3.71a17.19,17.19,0,0,0-1.6,5.36,44.12,44.12,0,0,0-.27,9,44.15,44.15,0,0,1-1.66-5.32c-.36-1.92-1.13-5.27-1.13-5.27a57.82,57.82,0,0,0,.61,6.88c.49,2.68.8,5.85.8,5.85Z"/><path class="cls-10" d="M393.8,341.22a31.71,31.71,0,0,1,1.63-8.88,12.26,12.26,0,0,1,4.29-5.54,11.53,11.53,0,0,0-4.7,4.77,28.25,28.25,0,0,0-1.84,7.74s-.79-7.21,0-10.92l.8-3.71a17.08,17.08,0,0,0-1.59,5.37,43.58,43.58,0,0,0-.28,9,44.14,44.14,0,0,1-1.65-5.32c-.37-1.92-1.14-5.27-1.14-5.27a58.75,58.75,0,0,0,.62,6.88c.49,2.68.79,5.86.79,5.86Z"/><path class="cls-10" d="M401,345.07a31.71,31.71,0,0,1,1.63-8.88,12.26,12.26,0,0,1,4.29-5.54,11.55,11.55,0,0,0-4.69,4.76,28.37,28.37,0,0,0-1.84,7.75s-.8-7.21,0-10.92l.8-3.71a17.21,17.21,0,0,0-1.6,5.37,44,44,0,0,0-.27,9,44.15,44.15,0,0,1-1.66-5.32c-.36-1.92-1.13-5.27-1.13-5.27a57.82,57.82,0,0,0,.61,6.88c.49,2.68.8,5.86.8,5.86Z"/><path class="cls-10" d="M426.82,347.21a32,32,0,0,1,1.64-8.88,12.26,12.26,0,0,1,4.29-5.54,11.53,11.53,0,0,0-4.7,4.77,28.33,28.33,0,0,0-1.84,7.74s-.79-7.2,0-10.91l.8-3.71a17.06,17.06,0,0,0-1.59,5.36,43.67,43.67,0,0,0-.28,9,42.89,42.89,0,0,1-1.65-5.32c-.37-1.92-1.14-5.27-1.14-5.27a57.82,57.82,0,0,0,.61,6.88c.49,2.68.8,5.85.8,5.85Z"/><path class="cls-10" d="M443.25,340.4a31.71,31.71,0,0,1,1.63-8.88,12.26,12.26,0,0,1,4.29-5.54,11.54,11.54,0,0,0-4.7,4.76,28.18,28.18,0,0,0-1.83,7.75s-.8-7.21,0-10.92l.79-3.71a17.08,17.08,0,0,0-1.59,5.37,44.36,44.36,0,0,0-.28,9,44.14,44.14,0,0,1-1.65-5.32c-.37-1.92-1.13-5.27-1.13-5.27a57.82,57.82,0,0,0,.61,6.88c.49,2.68.8,5.86.8,5.86Z"/><path class="cls-10" d="M465.54,344.18a31.85,31.85,0,0,1,1.64-8.87,12.27,12.27,0,0,1,4.28-5.55,11.53,11.53,0,0,0-4.69,4.77,28.37,28.37,0,0,0-1.84,7.75s-.8-7.21,0-10.92l.8-3.71a17.19,17.19,0,0,0-1.6,5.36,44.12,44.12,0,0,0-.27,9,44.15,44.15,0,0,1-1.66-5.32c-.36-1.92-1.13-5.27-1.13-5.27a57.82,57.82,0,0,0,.61,6.88c.49,2.68.8,5.85.8,5.85Z"/><path class="cls-10" d="M482.7,347.21a31.76,31.76,0,0,1,1.63-8.88,12.26,12.26,0,0,1,4.29-5.54,11.53,11.53,0,0,0-4.7,4.77,28.33,28.33,0,0,0-1.84,7.74s-.79-7.2,0-10.91l.8-3.71a17.06,17.06,0,0,0-1.59,5.36,43.67,43.67,0,0,0-.28,9,42.89,42.89,0,0,1-1.65-5.32c-.37-1.92-1.14-5.27-1.14-5.27a58.75,58.75,0,0,0,.62,6.88c.49,2.68.79,5.85.79,5.85Z"/><path class="cls-10" d="M505.9,343.24a31.9,31.9,0,0,1,1.64-8.88,12.26,12.26,0,0,1,4.29-5.54,11.54,11.54,0,0,0-4.7,4.76,28.37,28.37,0,0,0-1.84,7.75s-.8-7.21,0-10.92l.8-3.71a17.21,17.21,0,0,0-1.6,5.37,44,44,0,0,0-.27,9,42.3,42.3,0,0,1-1.65-5.32c-.37-1.92-1.14-5.27-1.14-5.27a57.82,57.82,0,0,0,.61,6.88c.49,2.68.8,5.86.8,5.86Z"/><path class="cls-10" d="M538.66,347.21a31.76,31.76,0,0,1,1.63-8.88,12.26,12.26,0,0,1,4.29-5.54,11.53,11.53,0,0,0-4.69,4.77,28.33,28.33,0,0,0-1.84,7.74s-.8-7.2,0-10.91l.79-3.71a17.42,17.42,0,0,0-1.59,5.36,44.12,44.12,0,0,0-.27,9,44.15,44.15,0,0,1-1.66-5.32c-.37-1.92-1.13-5.27-1.13-5.27a57.82,57.82,0,0,0,.61,6.88c.49,2.68.8,5.85.8,5.85Z"/><path class="cls-11" d="M576.92,363s-20-36.44-38.48-54.21c-20-19.19-50-27.26-53.14-5-1.45,10.2,14.46,30.54,28.77,44.17S535.62,363,535.62,363Z"/><path class="cls-12" d="M578.88,374.5s-18.18-17.72-45.61-21.75c-24.28-3.56-46.41,21.75-46.41,21.75Z"/><path class="cls-12" d="M571.22,363.67S543.87,331.42,523.74,316s-31.39-16.15-31.39-16.15,17.46,3.39,41.78,27.48,34.56,36.32,34.56,36.32Z"/><ellipse class="cls-13" cx="370.48" cy="26.92" rx="12.62" ry="15.42"/></g></g></svg>