<svg id="Layer_1" data-name="Layer 1" xmlns="http://www.w3.org/2000/svg" viewBox="0 0 600 790"><defs><style>.cls-1{fill:#97a577;}.cls-1,.cls-10,.cls-11,.cls-12,.cls-13,.cls-14,.cls-15,.cls-16,.cls-17,.cls-18,.cls-19,.cls-2,.cls-20,.cls-21,.cls-22,.cls-23,.cls-24,.cls-25,.cls-26,.cls-27,.cls-28,.cls-29,.cls-3,.cls-30,.cls-31,.cls-32,.cls-33,.cls-34,.cls-35,.cls-36,.cls-37,.cls-38,.cls-39,.cls-4,.cls-40,.cls-41,.cls-42,.cls-43,.cls-44,.cls-45,.cls-46,.cls-47,.cls-48,.cls-49,.cls-5,.cls-50,.cls-51,.cls-52,.cls-53,.cls-54,.cls-55,.cls-56,.cls-57,.cls-58,.cls-59,.cls-6,.cls-60,.cls-61,.cls-62,.cls-7,.cls-8,.cls-9{fill-rule:evenodd;}.cls-2{fill:#faeb4a;}.cls-3{fill:#f9e536;}.cls-4{fill:#bca745;}.cls-5{fill:#fff;}.cls-6{fill:#eff6e4;}.cls-7{fill:#e2eec3;}.cls-8{fill:#1d4a35;}.cls-9{fill:#fff56c;}.cls-10{fill:#f1bc84;}.cls-11{fill:#b79736;}.cls-12{fill:#fdd465;}.cls-13{fill:#545251;}.cls-14{fill:#fcdfb3;}.cls-15{fill:#899667;}.cls-16{fill:#deecc5;}.cls-17{fill:#f3ed82;}.cls-18{fill:#66c1b4;}.cls-19{fill:#b3dfe9;}.cls-20{fill:#47b59e;}.cls-21{fill:#f8be85;}.cls-22{fill:#8e8e8f;}.cls-23{fill:#bf9b36;}.cls-24{fill:#fdd137;}.cls-25{fill:#efd93c;}.cls-26{fill:#c4be77;}.cls-27{fill:#fffde3;}.cls-28{fill:#fff34e;}.cls-29{fill:#d5ebe3;}.cls-30{fill:#8fa8c1;}.cls-31{fill:#fffde2;}.cls-32{fill:#627d8a;}.cls-33{fill:#fffcda;}.cls-34{fill:#fffac1;}.cls-35{fill:#e4f0d5;}.cls-36{fill:#fffef3;}.cls-37{fill:#fff9ac;}.cls-38{fill:#c3c4c5;}.cls-39{fill:#acc698;}.cls-40{fill:#fff46a;}.cls-41{fill:#be9a36;}.cls-42{fill:#85cdd8;}.cls-43{fill:#9a928c;}.cls-44{fill:#b5acd4;}.cls-45{fill:#8d852d;}.cls-46{fill:#b19429;}.cls-47{fill:#fff336;}.cls-48{fill:#fffcdc;}.cls-49{fill:#a3c447;}.cls-50{fill:#e0e442;}.cls-51{fill:#fff57a;}.cls-52{fill:#d6cce5;}.cls-53{fill:#b4be95;}.cls-54{fill:#f9bb37;}.cls-55{fill:#fff56d;}.cls-56{fill:#e2ce4a;}.cls-57{fill:#f9fbf1;}.cls-58{fill:#92987f;}.cls-59{fill:#93b98f;}.cls-60{fill:#0087cc;}.cls-61{fill:#00b2e0;}.cls-62{fill:#b3e0f8;}</style></defs><path class="cls-1" d="M380.72,333.53h3.62v-12h43.74V302.19H396.39a15.72,15.72,0,0,0-15.67,15.67v15.67Z"/><polygon class="cls-2" points="267.45 397.81 248.65 397.81 267.58 374.49 267.45 397.81 267.45 397.81"/><polygon class="cls-2" points="277.5 401.25 258.7 398.2 277.63 374.88 277.5 401.25 277.5 401.25"/><path class="cls-2" d="M255.49,387.53h8.3a13.6,13.6,0,0,1,13.71,13.4v13.4h-22v-26.8Z"/><path class="cls-2" d="M304.59,405.9h15.17a27.23,27.23,0,0,1,27.15,27.16v13.36H331.74V433.06a27.24,27.24,0,0,0-27.15-27.16Z"/><path class="cls-3" d="M277.51,405.83h28.35a21.92,21.92,0,0,1,10.2,41.33v-3.07A23.5,23.5,0,0,0,277.51,426V405.83Z"/><path class="cls-3" d="M277.51,405.83V426a23.51,23.51,0,0,0-8.35,15.32A22,22,0,0,1,255.49,421V405.83Z"/><path class="cls-2" d="M271.88,458.9h11.79V444.23a8.86,8.86,0,0,1,17.72,0V458.9h11.78c0-4.51,0-10.83,0-15.34,0-.18,0-.35,0-.53a20.7,20.7,0,0,0-20.61-19.58h0A20.72,20.72,0,0,0,271.91,443c0,.35,0,.71,0,1.06V458.9Z"/><path class="cls-3" d="M265,387.53h-9.55v31.61h19.1V397.08a9.58,9.58,0,0,0-9.55-9.55Z"/><path class="cls-4" d="M262,407.87H245.53a10.2,10.2,0,0,1-10.17-10.17h0a10.2,10.2,0,0,1,10.17-10.17H262a10.2,10.2,0,0,1,10.17,10.17h0A10.2,10.2,0,0,1,262,407.87Z"/><path class="cls-5" d="M257.67,390.59a4.41,4.41,0,1,0,4.41,4.41,4.41,4.41,0,0,0-4.41-4.41Z"/><path class="cls-1" d="M446.46,335v5.34a3.66,3.66,0,0,1-3.65,3.65h0a3.66,3.66,0,0,1-3.65-3.65V329.32a3.67,3.67,0,0,0-3.66-3.66h0a3.67,3.67,0,0,0-3.65,3.66v11a3.67,3.67,0,0,1-3.66,3.66h0a3.67,3.67,0,0,1-3.65-3.66V329.26a3.67,3.67,0,0,0-3.66-3.65c-4.87,0-9.74.05-14.61.05a3.67,3.67,0,0,0-3.65,3.66v11A3.67,3.67,0,0,1,399,344h0a3.67,3.67,0,0,1-3.65-3.66V329.26a3.67,3.67,0,0,0-3.66-3.65h0a3.66,3.66,0,0,0-3.65,3.65v11.06a3.67,3.67,0,0,1-3.66,3.66h0a3.67,3.67,0,0,1-3.65-3.66V335a33,33,0,0,1,32.89-32.87h0A33,33,0,0,1,446.46,335Z"/><polygon class="cls-1" points="446.41 307.75 426.42 307.75 426.42 321.52 441.73 321.52 441.73 333.12 446.41 333.12 446.41 307.75 446.41 307.75"/><path class="cls-1" d="M380.62,289.8h0a2,2,0,0,0-.83,2.76l10.13,18.9,3.59-1.92-10.14-18.9a2,2,0,0,0-2.75-.84Z"/><path class="cls-6" d="M435.5,285.51c-10.23,0-25.31,13.16-18.53,22.44l18.53,25.32L454,308c6.79-9.28-8.3-22.44-18.53-22.44Z"/><path class="cls-5" d="M449.48,295h0a3.36,3.36,0,0,0-4.75,0l-7.65,7.65,4.75,4.76,7.65-7.66a3.36,3.36,0,0,0,0-4.75Z"/><path class="cls-5" d="M421.52,295h0a3.37,3.37,0,0,1,4.76,0l7.65,7.65-4.76,4.76-7.65-7.66a3.36,3.36,0,0,1,0-4.75Z"/><path class="cls-7" d="M444.4,309.15a7.36,7.36,0,0,0-3.17-14H429.77a7.36,7.36,0,0,0-3.16,14v3.27a8.92,8.92,0,0,0,8.89,8.89h0a8.92,8.92,0,0,0,8.9-8.89v-3.27Z"/><path class="cls-8" d="M436.67,310.51h-2.33c-.71,0-1.57.63-1.29,1.29,1.13,2.67,3.75,2.65,4.91,0,.28-.65-.58-1.29-1.29-1.29Z"/><path class="cls-5" d="M439,303.36a2.28,2.28,0,1,0,2.28,2.28,2.28,2.28,0,0,0-2.28-2.28Z"/><path class="cls-5" d="M432,303.36a2.28,2.28,0,1,0,2.28,2.28,2.28,2.28,0,0,0-2.28-2.28Z"/><path class="cls-6" d="M377.94,284.46c-4.82,21.27,20.09,8.46,0,0Z"/><path class="cls-9" d="M462.28,354h3.77V340.67A18,18,0,0,1,484,322.76h0a18,18,0,0,1,17.92,17.91V354h3.77V324.92A21.75,21.75,0,0,0,484,303.23l-25.38-47.32-4.81,3.2v.06a532.36,532.36,0,0,1,8.5,94.86Z"/><path class="cls-10" d="M462.28,354h3.77v-.47a3,3,0,0,0-1.81-.6,3.06,3.06,0,0,0-2,.71V354Zm3.77-2.31v-4.63a3.08,3.08,0,0,0,0,4.63Zm0-6v-4.95a3.08,3.08,0,0,0-3.93.25q.06,2.26.09,4.53a3,3,0,0,0,2,.77,3,3,0,0,0,1.81-.6Zm.08-6.72a17.74,17.74,0,0,1,1.38-5.4,3.07,3.07,0,0,0-1.38,5.4Zm2.81-8.06a17.76,17.76,0,0,1,3-3.53,3.08,3.08,0,0,0-3,3.07,3.42,3.42,0,0,0,0,.46Zm4.7-4.9a17.66,17.66,0,0,1,5.21-2.55,3.07,3.07,0,1,0-5.21,2.55Zm6.93-3a17.24,17.24,0,0,1,3.39-.33h0a17.35,17.35,0,0,1,2.51.18,3.07,3.07,0,0,0-5.9.15Zm7.69.2a17.78,17.78,0,0,1,5.49,2.4,3,3,0,0,0,.6-1.82,3.07,3.07,0,0,0-6.09-.58Zm7.9,4.3a17.75,17.75,0,0,1,2,2.22,3.08,3.08,0,0,0-2-2.22Zm4.42,6.41a17.44,17.44,0,0,1,1.11,4.14,3.08,3.08,0,0,0-1.11-4.14Zm1.29,6.38c0,.1,0,.19,0,.29v5.48a3,3,0,0,0,1,.19,3.08,3.08,0,0,0,2.73-1.66v-2.82a3.09,3.09,0,0,0-3.78-1.48Zm0,7.91v2.23a3.21,3.21,0,0,0,0-2.23Zm0,4.85V354h3.37a3.08,3.08,0,0,0-2.33-1.07,3.2,3.2,0,0,0-1,.18Zm3.77-.87v-5.73a3.07,3.07,0,0,0,0,5.73Zm0-12.76v-5.74a3.08,3.08,0,0,0,0,5.74Zm0-7.6v-2.82a3.07,3.07,0,1,0,0,2.82Zm0-5.17v-1.82a21.2,21.2,0,0,0-.33-3.76,3.07,3.07,0,0,0,.33,5.58Zm-.58-6.81a22.1,22.1,0,0,0-2-5.26h-.14a3.07,3.07,0,1,0,2.15,5.27Zm-3.33-7.4a22.24,22.24,0,0,0-3.91-4.25,3.07,3.07,0,1,0,3.91,4.25Zm-4.86-5a21.9,21.9,0,0,0-4.76-2.7c0,.05,0,.09,0,.14a3.07,3.07,0,0,0,4.77,2.56Zm-6.45-3.31a22,22,0,0,0-5.53-1,3.07,3.07,0,1,0,5.53,1ZM483,301.36l-2.25-4.2a2.9,2.9,0,0,0-.24,1.18,3.07,3.07,0,0,0,2.49,3Zm-3.27-6.09-2.55-4.75a3.07,3.07,0,0,0,2.55,4.75Zm-3.56-6.64-2.69-5a3.07,3.07,0,0,0,2.36,5l.33,0Zm-3.34-6.23L470,277.12a3.07,3.07,0,0,0,2,5.39,3.12,3.12,0,0,0,.82-.11Zm-3.61-6.73-2.88-5.37a3.07,3.07,0,0,0,1.77,5.58,2.92,2.92,0,0,0,1.11-.21Zm-3.4-6.34-2.9-5.41a3.07,3.07,0,0,0,1.36,5.82,3.11,3.11,0,0,0,1.54-.41Zm-3.65-6.8-2.88-5.36a3.07,3.07,0,1,0,2.88,5.36Zm-3.46-6.45-.09-.17-1.53,1a3.1,3.1,0,0,0,1.62-.85Zm-3.59,2.16-1.31.87v.06l.6,3.37a3.08,3.08,0,0,0,.7-4.3Zm-.41,6c.3,1.79.6,3.59.89,5.38a2.94,2.94,0,0,0,.94.15,3.07,3.07,0,1,0-1.83-5.53Zm1.93,12.16c.29,2,.58,4,.85,6a3.07,3.07,0,0,0-.85-6Zm1.07,7.67c.17,1.23.33,2.46.48,3.7a3.07,3.07,0,1,0-.48-3.7Zm.74,5.75c.17,1.44.34,2.88.5,4.32a3.09,3.09,0,0,0-.5-4.32Zm.66,5.75c.21,1.93.42,3.87.61,5.8a2.81,2.81,0,0,0,.65.07,3.07,3.07,0,1,0,0-6.14,3.13,3.13,0,0,0-1.26.27ZM460.3,308c.17,2,.34,4.07.49,6.1a3.07,3.07,0,0,0-.46-6.1Zm1,12.91c.12,1.9.22,3.81.32,5.73a3.07,3.07,0,0,0-.32-5.73Zm.42,7.84c.06,1.21.11,2.42.16,3.63a3.07,3.07,0,1,0-.16-3.63Zm.22,5.21c.07,1.72.13,3.44.17,5.17a3.07,3.07,0,0,0-.17-5.17Zm.33,13c0,1.59,0,3.18,0,4.78a3.06,3.06,0,0,0,0-4.78Zm32.95-32.34a3.07,3.07,0,1,1-3.07,3.07,3.07,3.07,0,0,1,3.07-3.07Zm-7.73,0a3.07,3.07,0,1,1-3.07,3.07,3.08,3.08,0,0,1,3.07-3.07Zm-7.74,0a3.07,3.07,0,1,1-3.07,3.07,3.07,3.07,0,0,1,3.07-3.07Zm-7.74,0a3.07,3.07,0,1,1-3.07,3.07,3.07,3.07,0,0,1,3.07-3.07Zm-7.73,0a3.07,3.07,0,1,1-3.07,3.07,3.08,3.08,0,0,1,3.07-3.07ZM499,320.8a3.07,3.07,0,1,1-3.07,3.07A3.07,3.07,0,0,1,499,320.8Zm-30.94,0a3.07,3.07,0,1,1-3.07,3.07,3.08,3.08,0,0,1,3.07-3.07Zm11.64-18.9a3.07,3.07,0,1,1-3.07,3.07,3.06,3.06,0,0,1,3.07-3.07Zm-7.74,0A3.07,3.07,0,1,1,468.9,305,3.06,3.06,0,0,1,472,301.9Zm-7.73,0a3.07,3.07,0,1,1-3.07,3.07,3.07,3.07,0,0,1,3.07-3.07Zm27,6.14a3.07,3.07,0,1,1-3.07,3.07,3.07,3.07,0,0,1,3.07-3.07Zm-7.74,0a3.07,3.07,0,1,1-3.07,3.07,3.06,3.06,0,0,1,3.07-3.07Zm-7.74,0a3.07,3.07,0,1,1-3.07,3.07A3.07,3.07,0,0,1,475.8,308Zm-7.73,0a3.07,3.07,0,1,1-3.07,3.07,3.07,3.07,0,0,1,3.07-3.07Zm3.9-18.91a3.07,3.07,0,1,1-3.07,3.07,3.07,3.07,0,0,1,3.07-3.07Zm-7.73,0a3.07,3.07,0,1,1-3.07,3.07,3.08,3.08,0,0,1,3.07-3.07Zm11.56,6.14a3.07,3.07,0,1,1-3.07,3.07,3.08,3.08,0,0,1,3.07-3.07Zm-7.73,0a3.07,3.07,0,1,1-3.07,3.07,3.08,3.08,0,0,1,3.07-3.07Zm-3.83-18.9a3.07,3.07,0,1,1-3.07,3.07,3.07,3.07,0,0,1,3.07-3.07Zm3.83,6.14a3.07,3.07,0,1,1-3.07,3.07,3.07,3.07,0,0,1,3.07-3.07Zm-7.74-12.77a3.07,3.07,0,1,1-3.07,3.07,3.07,3.07,0,0,1,3.07-3.07Z"/><polygon class="cls-11" points="440.69 233.81 443.73 233.39 445.78 248.47 442.75 248.88 440.69 233.81 440.69 233.81"/><path class="cls-9" d="M441.83,230.82a2.81,2.81,0,1,1-2.4,3.16,2.81,2.81,0,0,1,2.4-3.16Z"/><polygon class="cls-11" points="454.5 233.81 451.47 233.39 449.42 248.47 452.45 248.88 454.5 233.81 454.5 233.81"/><path class="cls-9" d="M453.37,230.82a2.81,2.81,0,1,0,2.4,3.16,2.81,2.81,0,0,0-2.4-3.16Z"/><path class="cls-11" d="M439.29,253.69a10.84,10.84,0,0,1-10.52-10.52,10.84,10.84,0,0,1,10.52,10.52Z"/><path class="cls-11" d="M466.43,243.17a10.84,10.84,0,0,0-10.52,10.52,10.84,10.84,0,0,0,10.52-10.52Z"/><path class="cls-12" d="M437.53,260.16l7.39,16.36a3,3,0,0,0,5.36,0l7.39-16.36c1-2.2,1.47-4.68,0-6.46l-7.39-8.91a3.36,3.36,0,0,0-5.36,0l-7.39,8.91c-1.48,1.78-1,4.26,0,6.46Z"/><path class="cls-11" d="M442.74,277.2l3.57-6.54a1.58,1.58,0,0,1,2.58,0l3.57,6.54c.48.88.71,1.87,0,2.58l-3.57,3.56a1.83,1.83,0,0,1-2.58,0l-3.57-3.56c-.71-.71-.48-1.7,0-2.58Z"/><path class="cls-13" d="M442.51,254.36a2.39,2.39,0,1,1-2.39,2.39,2.39,2.39,0,0,1,2.39-2.39Z"/><path class="cls-13" d="M452.69,254.36a2.39,2.39,0,1,1-2.39,2.39,2.39,2.39,0,0,1,2.39-2.39Z"/><path class="cls-14" d="M230.25,389.62V373.47a2.55,2.55,0,1,0-5.1,0v16.15a2.56,2.56,0,0,1-5.11,0c0-4,5.56-15.32,0-15.31h-2.38c-5.56,0,0,11.35,0,15.31a2.55,2.55,0,1,1-5.1,0V373.47a2.56,2.56,0,1,0-5.11,0v16.15a2.56,2.56,0,0,1-5.11,0c0-4,5.56-15.32,0-15.31H155.09a5.8,5.8,0,0,1-5.78-5.79v-7.36a5.8,5.8,0,0,1,5.78-5.78h10.48v-.34a12,12,0,0,1,12-12h83.24a2.56,2.56,0,0,1,0,5.11h-7.26a16.85,16.85,0,0,0-15.45,15.44v10.69h-2.72c-5.56,0,0,11.35,0,15.31a2.56,2.56,0,0,1-5.11,0Z"/><path class="cls-5" d="M179.5,348.77a8.19,8.19,0,1,1-8.19,8.19,8.19,8.19,0,0,1,8.19-8.19Z"/><path class="cls-15" d="M179.5,352.61a4.35,4.35,0,1,1-4.35,4.35,4.35,4.35,0,0,1,4.35-4.35Z"/><path class="cls-16" d="M179.15,343.07h9.4v-5.14a4.72,4.72,0,0,0-4.7-4.7h0a4.71,4.71,0,0,0-4.7,4.7v5.14Z"/><path class="cls-16" d="M191.84,343.07h9.4v-5.14a4.72,4.72,0,0,0-4.7-4.7h0a4.71,4.71,0,0,0-4.7,4.7v5.14Z"/><path class="cls-5" d="M234.71,343.07H231V356a1.87,1.87,0,0,0,1.87,1.86h0a1.86,1.86,0,0,0,1.86-1.86V343.07Z"/><path class="cls-5" d="M227.74,343.07H224V356a1.87,1.87,0,0,0,1.87,1.86h0a1.87,1.87,0,0,0,1.87-1.86V343.07Z"/><path class="cls-5" d="M220.76,343.07H217V356a1.87,1.87,0,0,0,1.86,1.86h0a1.87,1.87,0,0,0,1.87-1.86V343.07Z"/><path class="cls-5" d="M213.78,343.07h-3.73V356a1.87,1.87,0,0,0,1.87,1.86h0a1.87,1.87,0,0,0,1.86-1.86V343.07Z"/><path class="cls-5" d="M206.81,343.07h-3.74V356a1.87,1.87,0,0,0,1.87,1.86h0a1.87,1.87,0,0,0,1.87-1.86V343.07Z"/><polygon class="cls-17" points="115.76 470.23 115.78 462.38 108.23 465.98 115.76 470.23 115.76 470.23"/><path class="cls-18" d="M140,463.84l-.11-.08a12.19,12.19,0,0,0-12.16-12.16h0a12.27,12.27,0,0,0-12.17,12.16c-.64,44.81,35.37,36.21,60.06,55.9-8.42-13.58-9.2-24.22-7.82-34.23-13.62,13.87-27.33,10.75-32.88,2.2-4.22-6.49-3.72-16.1,5.08-23.79Z"/><path class="cls-5" d="M124.73,457.77a5.78,5.78,0,1,1-5.78,5.78,5.77,5.77,0,0,1,5.78-5.78Z"/><path class="cls-19" d="M180.06,455.76c-7.69,22.18-14.6,31.73-23.36,35.8s-16.8,1.1-20.56-4.69c-4-6.14-3.3-15.38,5.8-22.45,7.4-5.76,17.55-8.61,38.12-8.66Z"/><path class="cls-15" d="M124.73,459.46a4.09,4.09,0,1,1-4.09,4.09,4.09,4.09,0,0,1,4.09-4.09Z"/><path class="cls-18" d="M460.89,358.63a18.27,18.27,0,0,0-18.28,18.27v36.76a2.72,2.72,0,1,0,5.44,0V395.4a2.87,2.87,0,0,1,2.78-2.38c2-.07,2.88,1.67,2.86,3.44l.08,27.55h10.57V409a11.21,11.21,0,0,1,11.18-11.18h10A11.21,11.21,0,0,1,496.66,409v15H507v-29.2a.85.85,0,0,1,1.7,0v11.85h2.37V377.32a18.74,18.74,0,0,0-18.69-18.69Z"/><path class="cls-20" d="M471.77,360h0a12,12,0,0,0-11.92,11.92v21.55h0c0,.11,0,.22,0,.33a5.21,5.21,0,0,0,10.42,0c0-.79,0-1.58,0-2.39.33-12.68,13.46-1.1,13.46-19.49A12,12,0,0,0,471.77,360Z"/><path class="cls-5" d="M453.85,376.33h0a2.72,2.72,0,0,0-3.84,0l-3.81,3.81a2.73,2.73,0,0,0,0,3.85h0a2.72,2.72,0,0,0,3.84,0l3.81-3.81a2.73,2.73,0,0,0,0-3.85Z"/><path class="cls-21" d="M276.81,489c46.34-7.26,16.89,43.75,0,0Z"/><path class="cls-21" d="M276.81,479.92c46.34,7.25,16.89-43.76,0,0Z"/><path class="cls-14" d="M345.35,493.82l3.44,6a5.95,5.95,0,1,0,10.3-5.94c-6.38-11-6.38-7.7,0-18.74a5.95,5.95,0,1,0-10.3-5.94l-3.44,6c-12.28,21.26-43.83-29.44-91.9,9.35,48.07,38.79,79.62-11.91,91.9,9.35Z"/><path class="cls-5" d="M276.52,495.55a11.08,11.08,0,1,0-11.08-11.08,11.08,11.08,0,0,0,11.08,11.08Z"/><path class="cls-22" d="M276.52,490.62a6.15,6.15,0,1,0-6.15-6.15,6.15,6.15,0,0,0,6.15,6.15Z"/><path class="cls-23" d="M295.29,221.49H255.61c-24.31,0-32.7,39.07-32.4,39.63h28.21a9.27,9.27,0,0,1,9.25,9.25v5.06h13V268.3A12.36,12.36,0,0,1,286,256h0a12.36,12.36,0,0,1,12.32,12.32v7a27,27,0,0,0-3-53.77Z"/><polygon class="cls-23" points="311.24 248.46 298.27 248.46 298.27 264.56 298.27 274.55 298.27 275.96 311.24 275.96 311.24 248.46 311.24 248.46"/><polygon class="cls-23" points="273.64 253.91 260.67 253.91 260.67 270.37 260.67 275.96 273.64 275.96 273.64 274.98 273.64 265.26 273.64 253.91 273.64 253.91"/><path class="cls-24" d="M250.87,201.52h5.92a5.94,5.94,0,0,1,5.92,5.92v5.91h-5.92a5.94,5.94,0,0,1-5.92-5.91v-5.92Z"/><polygon class="cls-24" points="262.71 213.35 258.78 213.35 258.78 221.61 262.71 221.61 262.71 213.35 262.71 213.35"/><path class="cls-24" d="M183.7,221.61A39.32,39.32,0,0,0,191,244.48h15.55a3.77,3.77,0,0,1,3.76,3.76h0a3.77,3.77,0,0,1-3.76,3.76H198a39.51,39.51,0,0,0,64.74-30.4h-79Z"/><path class="cls-24" d="M183.7,221.61a39.51,39.51,0,0,1,26.76-37.4v37.4Z"/><path class="cls-23" d="M213.87,221.61a21.62,21.62,0,0,1,14.64-20.47v20.47Z"/><path class="cls-5" d="M235.31,225.86a9.5,9.5,0,1,0,9.5,9.5,9.5,9.5,0,0,0-9.5-9.5Z"/><path class="cls-25" d="M349.77,277.72h0A27.28,27.28,0,0,1,377,304.93v38.74h-6.32v-37.4a21,21,0,0,0-20.88-20.89h0a21,21,0,0,0-20.89,20.89v37.4h-6.32V304.93a27.28,27.28,0,0,1,27.21-27.21Z"/><path class="cls-25" d="M334.79,284h29.95v59.63h-5.63V326.81a9.37,9.37,0,0,0-9.34-9.35h0a9.38,9.38,0,0,0-9.35,9.35v16.86h-5.63V284Z"/><path class="cls-26" d="M329.39,262.76h40.76a9.58,9.58,0,0,1,9.55,9.55h0a9.58,9.58,0,0,1-9.55,9.55H329.39a9.57,9.57,0,0,1-9.55-9.55h0a9.57,9.57,0,0,1,9.55-9.55Z"/><path class="cls-27" d="M329.39,266.6h40.76a5.73,5.73,0,0,1,5.71,5.71h0a5.73,5.73,0,0,1-5.71,5.71H329.39a5.73,5.73,0,0,1-5.71-5.71h0a5.73,5.73,0,0,1,5.71-5.71Z"/><path class="cls-28" d="M349.77,252.46h0a20.74,20.74,0,0,1,20.68,20.68h0a20.74,20.74,0,0,1-20.68,20.67h0a20.73,20.73,0,0,1-20.68-20.67h0a20.73,20.73,0,0,1,20.68-20.68Z"/><path class="cls-28" d="M349.77,265.94h0a12.19,12.19,0,0,1,12.16,12.16v11.54a12.19,12.19,0,0,1-12.16,12.16h0a12.19,12.19,0,0,1-12.16-12.16V278.1a12.19,12.19,0,0,1,12.16-12.16Z"/><path class="cls-27" d="M349.77,266.3h0a9.17,9.17,0,0,1,9.13,9.14v14.07a9.16,9.16,0,0,1-9.13,9.14h0a9.16,9.16,0,0,1-9.14-9.14V275.44a9.17,9.17,0,0,1,9.14-9.14Z"/><path class="cls-27" d="M342.35,263.05a9.83,9.83,0,1,1-9.83,9.82,9.82,9.82,0,0,1,9.83-9.82Z"/><path class="cls-27" d="M357.19,263.05a9.83,9.83,0,1,1-9.83,9.82,9.82,9.82,0,0,1,9.83-9.82Z"/><path class="cls-15" d="M342.35,268.13a4.74,4.74,0,1,1-4.74,4.74,4.74,4.74,0,0,1,4.74-4.74Z"/><path class="cls-15" d="M357.19,268.13a4.74,4.74,0,1,1-4.74,4.74,4.74,4.74,0,0,1,4.74-4.74Z"/><path class="cls-16" d="M347.29,279.72h0a1.72,1.72,0,0,1,1.72,1.71v2.89a1.73,1.73,0,0,1-1.72,1.72h0a1.72,1.72,0,0,1-1.71-1.72v-2.89a1.72,1.72,0,0,1,1.71-1.71Z"/><path class="cls-16" d="M352.24,279.72h0a1.72,1.72,0,0,1,1.72,1.71v2.89a1.73,1.73,0,0,1-1.72,1.72h0a1.73,1.73,0,0,1-1.72-1.72v-2.89a1.72,1.72,0,0,1,1.72-1.71Z"/><path class="cls-29" d="M165.55,227.29a18.14,18.14,0,0,1,0,36.22V227.29Z"/><path class="cls-29" d="M170,251.23h9.27v8a9.37,9.37,0,0,0,9.35,9.35h10.22a19.63,19.63,0,0,1,19.57,19.58v51h-7.05V324.4a30.67,30.67,0,0,0-30.58-30.58h-1.51v-16.4H170V251.23Zm2.64,87.91h-6.37V321.77a35.41,35.41,0,0,0-11.55-26.21v-3.31h17.92v46.89Z"/><polygon class="cls-29" points="162.54 230.82 156.09 230.82 159.32 220.03 162.54 230.82 162.54 230.82"/><polygon class="cls-29" points="167.11 230.82 160.66 230.82 163.88 220.03 167.11 230.82 167.11 230.82"/><path class="cls-30" d="M156.26,231.35l.55-.64h10.08a21,21,0,0,1,12,15,19.88,19.88,0,0,1,.4,4v9.6a9.31,9.31,0,0,0,9.28,9.26h9.4a27.43,27.43,0,0,1,.63,5.84,27,27,0,1,1-42.31-22.31V231.35Z"/><path class="cls-31" d="M156.26,231.35l.14-.16a2.12,2.12,0,0,1-.14,3.82v-3.66Zm12,0a20.51,20.51,0,0,1,3.34,2.24,2.12,2.12,0,1,1-3.34-2.24Zm7.24,6.45a21.11,21.11,0,0,1,2.06,3.69,2.1,2.1,0,0,1-.94.22,2.11,2.11,0,0,1-1.12-3.91Zm13.25,30.76h4a2.12,2.12,0,0,1-4,0Zm9.81,4.88c0,.32,0,.64,0,1a28.24,28.24,0,0,1-.17,3.06,2.33,2.33,0,0,1-.59.08,2.12,2.12,0,0,1,0-4.24,2,2,0,0,1,.74.14ZM190,294.15c-.39.37-.79.72-1.2,1.06a2.19,2.19,0,0,1,1.2-1.06Zm-33.78-45v-3.89a2.13,2.13,0,0,1,1.27,1.95,2.1,2.1,0,0,1-1.27,1.94ZM162.48,294a2.12,2.12,0,1,1-2.12,2.12,2.12,2.12,0,0,1,2.12-2.12Zm14.13,0a2.12,2.12,0,1,1-2.12,2.12,2.12,2.12,0,0,1,2.12-2.12ZM148.35,279.9a2.12,2.12,0,1,1-2.12,2.12,2.12,2.12,0,0,1,2.12-2.12Zm14.13,0a2.12,2.12,0,1,1-2.12,2.12,2.12,2.12,0,0,1,2.12-2.12Zm14.13,0a2.12,2.12,0,1,1-2.12,2.12,2.12,2.12,0,0,1,2.12-2.12Zm14.13,0a2.12,2.12,0,1,1-2.12,2.12,2.12,2.12,0,0,1,2.12-2.12Zm-42.39-14.13a2.12,2.12,0,1,1-2.12,2.12,2.12,2.12,0,0,1,2.12-2.12Zm14.13,0a2.12,2.12,0,1,1-2.12,2.12,2.12,2.12,0,0,1,2.12-2.12Zm14.13,0a2.12,2.12,0,1,1-2.12,2.12,2.12,2.12,0,0,1,2.12-2.12Zm-14.13-14.13a2.12,2.12,0,1,1-2.12,2.12,2.12,2.12,0,0,1,2.12-2.12Zm14.13,0a2.12,2.12,0,1,1-2.12,2.12,2.12,2.12,0,0,1,2.12-2.12Zm-14.13-14.13a2.12,2.12,0,1,1-2.12,2.12,2.12,2.12,0,0,1,2.12-2.12Zm-7.06,50a2.12,2.12,0,1,1-2.12,2.12,2.11,2.11,0,0,1,2.12-2.12Zm14.13,0a2.12,2.12,0,1,1-2.12,2.12,2.11,2.11,0,0,1,2.12-2.12Zm14.13,0a2.12,2.12,0,1,1-2.12,2.12,2.12,2.12,0,0,1,2.12-2.12Zm-28.26-14.13a2.12,2.12,0,1,1-2.12,2.12,2.11,2.11,0,0,1,2.12-2.12Zm14.13,0a2.12,2.12,0,1,1-2.12,2.12,2.11,2.11,0,0,1,2.12-2.12Zm14.13,0a2.12,2.12,0,1,1-2.12,2.12,2.12,2.12,0,0,1,2.12-2.12Zm-28.26-14.13a2.12,2.12,0,1,1-2.12,2.12,2.11,2.11,0,0,1,2.12-2.12Zm14.13,0a2.12,2.12,0,1,1-2.12,2.12,2.11,2.11,0,0,1,2.12-2.12Zm0-14.13a2.12,2.12,0,1,1-2.12,2.12,2.11,2.11,0,0,1,2.12-2.12Z"/><path class="cls-29" d="M156.26,231.35l1.66-1.92c4.25,0,6-.29,9.92,1.74v4.44a11.61,11.61,0,0,1-11.58,11.58V231.35Z"/><polygon class="cls-32" points="172.63 339.14 163.3 339.14 166.26 325.29 172.63 325.29 172.63 339.14 172.63 339.14"/><polygon class="cls-32" points="211.35 325.29 208.39 339.14 218.41 339.14 218.41 328.35 218.41 325.29 211.35 325.29 211.35 325.29"/><path class="cls-29" d="M198.39,268.6h8.44a24.69,24.69,0,0,1,24.62,24.62V302H223v-8.79a24.69,24.69,0,0,0-24.62-24.62Z"/><polygon class="cls-32" points="231.45 302.01 231.45 313.65 223.01 313.65 223.01 302.01 231.45 302.01 231.45 302.01"/><path class="cls-29" d="M162.77,245.17a11.51,11.51,0,0,1-6.51,2H141.77a6,6,0,0,1-5.87-4.91l20.59-12.86h1.43l4.85.53v15.21Z"/><path class="cls-5" d="M152.67,234.19h4.11a1.74,1.74,0,0,1,1.74,1.74h0a1.74,1.74,0,0,1-1.74,1.73h-4.11a1.74,1.74,0,0,1-1.73-1.73h0a1.74,1.74,0,0,1,1.73-1.74Z"/><path class="cls-29" d="M179.26,249.34l3.3-3,0,7.51a6,6,0,0,0,6,6h0a6,6,0,0,0,2.43-.51,6.44,6.44,0,0,1-5.34,2.86h0a6.42,6.42,0,0,1-6.41-6.41v-6.42Z"/><path class="cls-29" d="M182.58,245.83v1.58a6,6,0,0,0,6,6h0a6,6,0,0,0,2.43-.51,6.45,6.45,0,0,1-5.34,2.87h0a6.43,6.43,0,0,1-6.41-6.42v-3.28l3.32-.23Z"/><path class="cls-29" d="M182.27,242a6,6,0,0,0,5.9,4.91h0a5.78,5.78,0,0,0,2.42-.52,6.41,6.41,0,0,1-5.33,2.87h0a6.44,6.44,0,0,1-6.42-6.41V242Z"/><path class="cls-33" d="M125.62,299l7.45,7.46,10.05-10.05a5.29,5.29,0,0,0,0-7.46h0a5.28,5.28,0,0,0-7.45,0l-10,10Z"/><path class="cls-33" d="M118.16,306.48l7.46-7.46-10.05-10a5.29,5.29,0,0,0-7.46,0h0a5.29,5.29,0,0,0,0,7.46l10,10.05Z"/><path class="cls-33" d="M120.34,299h10.55V284.81a5.29,5.29,0,0,0-5.27-5.28h0a5.3,5.3,0,0,0-5.28,5.28V299Z"/><polygon class="cls-14" points="134.14 314.02 135.61 318.63 142.07 314.03 148.54 309.43 142.07 304.83 135.61 300.23 134.14 304.84 134.14 314.02 134.14 314.02"/><path class="cls-34" d="M138.22,305.05v21.4A12.3,12.3,0,0,1,126,338.72h0a12.31,12.31,0,0,1-12.27-12.27v-21.4a12.27,12.27,0,1,1,24.54,0Z"/><path class="cls-34" d="M138.22,329.59a22,22,0,1,1-22-22,22,22,0,0,1,22,22Z"/><path class="cls-5" d="M129.68,297.35a5.27,5.27,0,1,0,5.27,5.26,5.26,5.26,0,0,0-5.27-5.26Z"/><path class="cls-5" d="M130.8,336.34V321.85A5.84,5.84,0,0,0,125,316h-8.24A14.79,14.79,0,0,0,102,330.76v5.44a2.06,2.06,0,0,0,2.06,2.05h0a2.06,2.06,0,0,0,2.06-2.05v-3a2.06,2.06,0,0,1,2.06-2.06h0a2.06,2.06,0,0,1,2.06,2.06v3a2.05,2.05,0,0,0,2.06,2.05h0a2.06,2.06,0,0,0,2.06-2.05v-3a2.06,2.06,0,0,1,2-2.06h0a2.06,2.06,0,0,1,2.06,2.06v3a2.07,2.07,0,0,0,2.06,2.06h0a2.06,2.06,0,0,0,2.06-2.06v-3a2.06,2.06,0,0,1,2.06-2.06h0a2.06,2.06,0,0,1,2.06,2.06v3.15a2.06,2.06,0,0,0,2.06,2.05h0a2.06,2.06,0,0,0,2.06-2.05Z"/><path class="cls-35" d="M431,441.19h8v13.19H436.9s0-.09,0-.13A15.45,15.45,0,0,0,431,442.11v-.92Z"/><path class="cls-35" d="M414.5,428.39l6,0V428a11.6,11.6,0,0,1,23.19-.65c0,.35,0,.68,0,1v16.86h-8.9L414.5,428.39Z"/><path class="cls-36" d="M432.1,435.57a7.71,7.71,0,1,0-7.71-7.71,7.71,7.71,0,0,0,7.71,7.71Z"/><path class="cls-13" d="M432.1,432.14a4.28,4.28,0,1,0-4.28-4.28,4.28,4.28,0,0,0,4.28,4.28Z"/><polygon class="cls-35" points="443.71 445.26 436.9 445.26 436.9 479.75 443.71 479.75 443.71 445.26 443.71 445.26"/><path class="cls-13" d="M492.56,460.51a5.37,5.37,0,0,1-4.39,6.2,5.57,5.57,0,0,1-1.47.05c-9-.95-17.22,2.35-17.22,13a16.29,16.29,0,1,1-16.29-16.29h7.4c5.64,0,7.46-1.43,7.49-6.94l.06-10.45a5.43,5.43,0,0,1,.23-1.6,5.37,5.37,0,1,1,10.31,3,5.22,5.22,0,0,1-.54,1.23s.8-.93.89-1a5.37,5.37,0,1,1,7.15,8c-.1.09-1.11.77-1.11.77s1.16-.37,1.29-.39a5.38,5.38,0,0,1,6.2,4.39Z"/><path class="cls-13" d="M453.07,469.63A10.12,10.12,0,1,1,443,479.75a10.12,10.12,0,0,1,10.12-10.12Z"/><path class="cls-24" d="M444.78,477.68a14.81,14.81,0,0,1,12-6.18h33.5A25.81,25.81,0,0,1,466,488.86h0a25.76,25.76,0,0,1-21.19-11.18Z"/><path class="cls-35" d="M387.65,551V538.59H372.21a6.22,6.22,0,0,0-6.21,6.2h0a6.22,6.22,0,0,0,6.21,6.21Z"/><path class="cls-35" d="M387.65,514.72V502.31H372.21a6.22,6.22,0,0,0-6.21,6.2h0a6.22,6.22,0,0,0,6.21,6.21Z"/><path class="cls-15" d="M420.91,516.93v10.61A23.53,23.53,0,0,1,397.45,551H384V493.48h13.43a23.52,23.52,0,0,1,23.46,23.45Z"/><path class="cls-17" d="M411.47,466.39H372.79a12.38,12.38,0,0,0-12.35,12.35h0a12.39,12.39,0,0,0,12.35,12.35h38.68a12.39,12.39,0,0,0,12.36-12.35h0a12.39,12.39,0,0,0-12.36-12.35Z"/><path class="cls-17" d="M408.81,472.4H375.45v21.43a16.68,16.68,0,0,0,33.36,0V472.4Z"/><path class="cls-27" d="M399.18,482.18a3.17,3.17,0,1,0,3.17,3.16,3.16,3.16,0,0,0-3.17-3.16Z"/><path class="cls-27" d="M385.09,482.18a3.17,3.17,0,1,0,3.16,3.16,3.16,3.16,0,0,0-3.16-3.16Z"/><path class="cls-15" d="M392.13,488.5h0a3.68,3.68,0,0,0-3.67,3.67v7.71a3.69,3.69,0,0,0,3.67,3.67h0a3.69,3.69,0,0,0,3.67-3.67v-7.71a3.68,3.68,0,0,0-3.67-3.67Z"/><path class="cls-17" d="M421.86,541.94v-7.18h-8.93a3.6,3.6,0,0,0-3.59,3.59h0a3.59,3.59,0,0,0,3.59,3.59Z"/><path class="cls-17" d="M421.86,524.55v-7.18h-8.93a3.6,3.6,0,0,0-3.59,3.59h0a3.59,3.59,0,0,0,3.59,3.59Z"/><path class="cls-17" d="M442.24,522.24v6.14a13.61,13.61,0,0,1-13.57,13.56h-7.76V508.68h7.76a13.61,13.61,0,0,1,13.57,13.56Z"/><path class="cls-37" d="M436.78,493H414.41a7.17,7.17,0,0,0-7.14,7.15h0a7.17,7.17,0,0,0,7.14,7.14h22.37a7.16,7.16,0,0,0,7.14-7.14h0a7.17,7.17,0,0,0-7.14-7.15Z"/><path class="cls-37" d="M435.24,496.49H416v12.4a9.65,9.65,0,0,0,19.29,0v-12.4Z"/><path class="cls-15" d="M429.67,502.15A1.83,1.83,0,1,0,431.5,504a1.83,1.83,0,0,0-1.83-1.83Z"/><path class="cls-15" d="M421.52,502.15a1.83,1.83,0,1,0,1.83,1.83,1.83,1.83,0,0,0-1.83-1.83Z"/><path class="cls-15" d="M425.6,505.8h0a2.13,2.13,0,0,0-2.12,2.12v4.46a2.12,2.12,0,0,0,2.12,2.12h0a2.13,2.13,0,0,0,2.12-2.12v-4.46a2.13,2.13,0,0,0-2.12-2.12Z"/><path class="cls-5" d="M343,364a12.53,12.53,0,1,1,17.11,4.59l-27.95,16.13L329,379.32,357,363.18a6.35,6.35,0,1,0-8.67-2.32l.26.44a3.1,3.1,0,1,1-5.36,3.1L343,364Z"/><path class="cls-6" d="M343,364a12.54,12.54,0,0,1-1.39-3.57l5.91-2.12a6.29,6.29,0,0,0,.83,2.6l.26.44a3.1,3.1,0,1,1-5.36,3.1L343,364Z"/><path class="cls-38" d="M347.22,389.31v4.8a3.29,3.29,0,0,1-3.28,3.28h0a3.3,3.3,0,0,1-3.29-3.28v-4.8a3.28,3.28,0,0,0-3.28-3.28h0a3.29,3.29,0,0,0-3.28,3.28v4.75a3.29,3.29,0,0,1-3.28,3.28h0a3.3,3.3,0,0,1-3.29-3.28v-4.8a3.28,3.28,0,0,0-3.28-3.28h0c-4.4,0-7.66,0-13.13,0h0a3.28,3.28,0,0,0-3.28,3.28v4.75a3.3,3.3,0,0,1-3.29,3.28h0a3.29,3.29,0,0,1-3.28-3.28v-4.8A3.29,3.29,0,0,0,298,386h0a3.28,3.28,0,0,0-3.28,3.28v4.8a3.29,3.29,0,0,1-3.28,3.28h0a3.29,3.29,0,0,1-3.28-3.28v-4.77a29.63,29.63,0,0,1,29.55-29.53h0a29.63,29.63,0,0,1,29.54,29.55Z"/><path class="cls-5" d="M267.65,328.92a18.69,18.69,0,0,1,16.18,28,18.7,18.7,0,0,1-16.18-28Z"/><path class="cls-5" d="M316,328.92a18.69,18.69,0,0,0-16.18,28,18.7,18.7,0,0,0,16.18-28Z"/><path class="cls-6" d="M270.74,353.74v3.55a7.81,7.81,0,0,0,7.79,7.78,7.82,7.82,0,0,1,7.79,7.79v3.54a3.91,3.91,0,0,0,3.9,3.9h3.21a3.9,3.9,0,0,0,3.89-3.9v-3.54a7.81,7.81,0,0,1,7.79-7.79,7.81,7.81,0,0,0,7.79-7.78v-3.55a7.82,7.82,0,0,0-7.79-7.79H278.53a7.82,7.82,0,0,0-7.79,7.79Z"/><path class="cls-15" d="M283,347a8,8,0,1,1-8,8,8,8,0,0,1,8-8Z"/><path class="cls-39" d="M283,347h.31v7l4.13-5.68a5.74,5.74,0,0,1,.5.36l-4.13,5.68,6.68-2.17c.07.19.13.39.19.59L284,355l6.68,2.16c-.06.2-.12.4-.19.59l-6.68-2.17,4.13,5.68a5.74,5.74,0,0,1-.5.36L283.34,356v7h-.61v-7l-4.13,5.67a5.74,5.74,0,0,1-.5-.36l4.13-5.68-6.68,2.17a5.8,5.8,0,0,1-.19-.59L282,355l-6.68-2.17c.06-.2.12-.4.19-.59l6.68,2.17-4.13-5.68a5.74,5.74,0,0,1,.5-.36l4.13,5.68v-7Z"/><path class="cls-15" d="M300.61,347a8,8,0,1,1-8,8,8,8,0,0,1,8-8Z"/><path class="cls-39" d="M300.61,347h.3v7l4.13-5.68a5.74,5.74,0,0,1,.5.36l-4.13,5.68,6.68-2.17c.07.19.13.39.19.59L301.6,355l6.68,2.16a5.8,5.8,0,0,1-.19.59l-6.68-2.17,4.13,5.68a5.74,5.74,0,0,1-.5.36L300.91,356v7h-.61v-7l-4.13,5.67a5.74,5.74,0,0,1-.5-.36l4.13-5.68-6.68,2.17c-.07-.19-.13-.39-.19-.59l6.68-2.16-6.68-2.17c.06-.2.12-.4.19-.59l6.68,2.17-4.13-5.68a5.74,5.74,0,0,1,.5-.36l4.13,5.68v-7Z"/><path class="cls-1" d="M347.22,391.58v2.53a3.29,3.29,0,0,1-3.28,3.28h0a3.3,3.3,0,0,1-3.29-3.28v-2.53Zm-13.13,0v2.48a3.29,3.29,0,0,1-3.28,3.28h0a3.3,3.3,0,0,1-3.29-3.28v-2.48Zm-26.26,0v2.48a3.3,3.3,0,0,1-3.29,3.28h0a3.29,3.29,0,0,1-3.28-3.28v-2.48Zm-13.14,0v2.48a3.29,3.29,0,0,1-3.28,3.28h0a3.29,3.29,0,0,1-3.28-3.28v-2.48Z"/><path class="cls-5" d="M300.61,352.61a2.4,2.4,0,1,1-2.4,2.4,2.39,2.39,0,0,1,2.4-2.4Z"/><path class="cls-5" d="M283,352.61a2.4,2.4,0,1,1-2.4,2.4,2.39,2.39,0,0,1,2.4-2.4Z"/><path class="cls-5" d="M312.36,367.05a3.17,3.17,0,1,1-3.17,3.17,3.17,3.17,0,0,1,3.17-3.17Z"/><path class="cls-5" d="M325.27,367.05a3.17,3.17,0,1,1-3.17,3.17,3.17,3.17,0,0,1,3.17-3.17Z"/><path class="cls-5" d="M305.79,376.09a3.17,3.17,0,1,1-3.17,3.17,3.17,3.17,0,0,1,3.17-3.17Z"/><path class="cls-5" d="M318.81,376.09a3.17,3.17,0,1,1-3.16,3.17,3.16,3.16,0,0,1,3.16-3.17Z"/><path class="cls-5" d="M331.84,376.09a3.17,3.17,0,1,1-3.17,3.17,3.17,3.17,0,0,1,3.17-3.17Z"/><path class="cls-40" d="M172.11,447.7H108.64a10.7,10.7,0,0,1,0-21.4h46.6a3.55,3.55,0,0,0,3.52-3.53V410.9h8.35v11.87a11.9,11.9,0,0,1-11.87,11.88h-46.6a2.35,2.35,0,1,0,0,4.69h63.47a4.18,4.18,0,0,1,0,8.36Z"/><path class="cls-41" d="M154.49,426.3h.75a3.5,3.5,0,0,0,2.58-1.15l4.24,7.34a12,12,0,0,1-3.09,1.56l-4.48-7.75Z"/><path class="cls-41" d="M160.07,447.7h-3.46v-8.36h3.46v8.36Zm-7.16,0h-3.45v-8.36h3.45v8.36Zm-7.15,0H142.3v-8.36h3.46v8.36Zm-7.15,0h-3.46v-8.36h3.46v8.36Zm-7.16,0H128v-8.36h3.46v8.36Zm-7.15,0h-3.46v-8.36h3.46v8.36Zm-3.46-21.4h3.46v8.35h-3.46V426.3Zm7.15,0h3.46v8.35H128V426.3Zm7.16,0h3.46v8.35h-3.46V426.3Zm7.15,0h3.46v8.35H142.3V426.3Zm7.16,0h3.45v8.35h-3.45V426.3Z"/><polygon class="cls-41" points="113.69 426.3 117.14 426.3 117.14 434.65 113.69 434.65 113.69 426.3 113.69 426.3"/><path class="cls-41" d="M103,427.92a10.5,10.5,0,0,1,3.29-1.36l5.87,8.09h-3.51a2.61,2.61,0,0,0-.69.1l-5-6.83Z"/><path class="cls-41" d="M98.08,438.72a10.7,10.7,0,0,1,0-3.45h9a2.3,2.3,0,0,0,0,3.45Z"/><path class="cls-41" d="M106.38,447.45a10.41,10.41,0,0,1-3.31-1.33l5-6.86a2.33,2.33,0,0,0,.59.08h3.63l-5.89,8.11Z"/><polygon class="cls-41" points="117.14 447.69 113.69 447.69 113.69 439.34 117.14 439.34 117.14 447.69 117.14 447.69"/><path class="cls-24" d="M101.15,421.72a3.29,3.29,0,0,1-3.27-3.28h0a3.28,3.28,0,0,1,3.27-3.27h7.17a7.07,7.07,0,0,0,7.05-7V371h11a40.83,40.83,0,0,1,40.71,40.72v10Z"/><path class="cls-40" d="M146.58,376.38c1.06.61,2.09,1.27,3.08,2L135,395.49l11.57-19.11Zm9.95,8c.81.89,1.58,1.82,2.31,2.78L140.4,399.71l16.13-15.31Zm7.19,11.09q.74,1.67,1.32,3.42l-21.65,6.23,20.33-9.65Z"/><path class="cls-24" d="M167.11,411.21v10.51h-9.4a9.81,9.81,0,0,0,9.36-9.77v-.73Z"/><path class="cls-40" d="M110.7,392.66C87.5,369.46,85.4,373,92.57,348.48a24.45,24.45,0,0,1,9.34,13.13,18.65,18.65,0,0,1,26.33,0,24.46,24.46,0,0,1,9.34-13.12c7.17,24.51,5.07,21-18.13,44.18a6.38,6.38,0,0,1-8.75,0Z"/><path class="cls-41" d="M124.43,362.27a8.89,8.89,0,1,1-8.88,8.89,8.89,8.89,0,0,1,8.88-8.89Z"/><path class="cls-27" d="M124.43,367.59a3.57,3.57,0,1,1-3.57,3.57,3.57,3.57,0,0,1,3.57-3.57Z"/><path class="cls-41" d="M105.72,362.27a8.89,8.89,0,1,0,8.88,8.89,8.89,8.89,0,0,0-8.88-8.89Z"/><path class="cls-27" d="M105.72,367.59a3.57,3.57,0,1,0,3.57,3.57,3.57,3.57,0,0,0-3.57-3.57Z"/><polygon class="cls-41" points="167.22 447.69 163.76 447.69 163.76 439.34 167.22 439.34 167.22 447.69 167.22 447.69"/><path class="cls-42" d="M421.72,202.72a19.3,19.3,0,0,1,13.66,23.52l-21.17-5.61c40.82,40-32.49,41.9-16.8,80.07-19.18-34.57-4.33-65.72.79-84.31a19.36,19.36,0,0,1,23.52-13.67Z"/><path class="cls-14" d="M421.72,202.72a19.3,19.3,0,0,1,13.66,23.52l-21.12-5.6a9.4,9.4,0,1,0,4.82-18.18,9.16,9.16,0,0,0-2.24-.31l0-.06a19,19,0,0,1,4.86.63Z"/><path class="cls-36" d="M415,218a6.65,6.65,0,1,0-4.72-8.13A6.66,6.66,0,0,0,415,218Z"/><path class="cls-43" d="M417.51,208.37a3.29,3.29,0,1,1-4,2.34,3.3,3.3,0,0,1,4-2.34Z"/><path class="cls-44" d="M356.69,248.8c97.74,48.66,74.5-79.8,0,0Z"/><path class="cls-45" d="M248.29,417.94H211.62a2.36,2.36,0,0,0-2.36,2.36h0a2.36,2.36,0,0,0,2.36,2.36h36.67a2.36,2.36,0,0,0,2.36-2.36h0a2.36,2.36,0,0,0-2.36-2.36Z"/><path class="cls-45" d="M248.76,485l-10.88-18.85a31.43,31.43,0,0,0-57.45,24.34h4.93a26.73,26.73,0,0,1,48.44-22l10.88,18.85,4.08-2.35Z"/><path class="cls-45" d="M203.38,423h0a31.55,31.55,0,0,1-31.06-26.61,20.53,20.53,0,0,0-.6-3.74,6.18,6.18,0,0,0-5.78-4.06h-2.38a2.35,2.35,0,1,1,0-4.69h2.38a10.88,10.88,0,0,1,10.46,8,39,39,0,0,1,.6,3.9,26.82,26.82,0,0,0,26.38,22.48h0V423Z"/><path class="cls-46" d="M218.33,452.59c-.56,18.15-29.2,18.25-29.68-.11-.16-6.35,4.35-19.68,4.35-33h21c0,13,4.53,27,4.35,33.08Z"/><path class="cls-45" d="M190.8,398.61h25.39a6.62,6.62,0,0,1,6.6,6.6h0a6.62,6.62,0,0,1-6.6,6.6H190.8a6.62,6.62,0,0,1-6.6-6.6h0a6.62,6.62,0,0,1,6.6-6.6Z"/><path class="cls-47" d="M203.49,392.94h0a13,13,0,0,1,12.95,12.94v7.45a13,13,0,0,1-12.95,12.95h0a13,13,0,0,1-13-12.95v-7.45a13,13,0,0,1,13-12.94Z"/><path class="cls-46" d="M214.24,413.62a10.75,10.75,0,0,1-21.49,0V413H194v.61a9.53,9.53,0,0,0,19.06,0V413h1.22v.61Z"/><path class="cls-48" d="M199.18,400.47a3.47,3.47,0,1,1-3.47,3.47,3.47,3.47,0,0,1,3.47-3.47Z"/><path class="cls-48" d="M207.81,400.47a3.47,3.47,0,1,1-3.47,3.47,3.47,3.47,0,0,1,3.47-3.47Z"/><path class="cls-49" d="M327,231.7h36.57a28.39,28.39,0,0,0,28.31-28.31c0-15.56-12.74-28-28.31-28.3l-6.27-.12H281.16V197h78.38a13.73,13.73,0,0,1,13.69,13.69c0,7.73-6.42,13.44-13.69,13.69L327,225.56v6.14Z"/><path class="cls-49" d="M282.15,172l-65.95,14.3v5.38a5.39,5.39,0,0,0,5.38,5.38h60.57V172Z"/><path class="cls-49" d="M216.2,191.94h11.32v-5.66a5.67,5.67,0,0,0-5.66-5.66h0a5.67,5.67,0,0,0-5.66,5.66v5.66Z"/><path class="cls-50" d="M218.7,192.51h0a.74.74,0,0,0,1.05,0l4.33-4.33,4.33,4.33a.74.74,0,0,0,1.05,0h0a.74.74,0,0,0,0-1l-4.85-4.85h0a.74.74,0,0,0-1.05,0l-4.86,4.85a.74.74,0,0,0,0,1Z"/><path class="cls-50" d="M228.41,192.51h0a.74.74,0,0,0,1.05,0l4.33-4.33,4.33,4.33a.74.74,0,0,0,1,0h0a.74.74,0,0,0,0-1l-4.86-4.85h0a.74.74,0,0,0-1.05,0l-4.85,4.85a.74.74,0,0,0,0,1Z"/><path class="cls-50" d="M238.12,192.51h0a.74.74,0,0,0,1,0l4.33-4.33,4.33,4.33a.74.74,0,0,0,1,0h0a.76.76,0,0,0,0-1L244,186.61h0a.74.74,0,0,0-1.05,0l-4.85,4.85a.74.74,0,0,0,0,1Z"/><path class="cls-50" d="M247.83,192.51h0a.74.74,0,0,0,1,0l4.32-4.33,2.45,2.45a.74.74,0,0,0,1,0h0a.74.74,0,0,0,0-1l-3-3h0a.74.74,0,0,0-1,0l-4.85,4.85a.74.74,0,0,0,0,1Z"/><path class="cls-50" d="M255.41,190.1h0a.76.76,0,0,0,.75.75h13.31v-1.49H256.16a.75.75,0,0,0-.75.74Z"/><path class="cls-50" d="M278.63,165a10.76,10.76,0,1,1-10.76,10.76A10.75,10.75,0,0,1,278.63,165Z"/><path class="cls-15" d="M278.63,170.2a5.52,5.52,0,1,1-5.53,5.52,5.52,5.52,0,0,1,5.53-5.52Z"/><path class="cls-50" d="M289.36,175l4.83-4.83a2.55,2.55,0,0,1,3.6,0l4.83,4.83Z"/><path class="cls-50" d="M302.62,175l4.83-4.83a2.55,2.55,0,0,1,3.6,0l4.83,4.83Z"/><path class="cls-50" d="M315.88,175l4.83-4.83a2.55,2.55,0,0,1,3.6,0l4.83,4.83Z"/><path class="cls-50" d="M329.14,175l4.83-4.83a2.55,2.55,0,0,1,3.6,0L342.4,175Z"/><path class="cls-50" d="M342.4,175l4.83-4.83a2.55,2.55,0,0,1,3.6,0l4.83,4.83Z"/><path class="cls-5" d="M293.74,177.31h0a.72.72,0,0,1,1,0l9,9a.69.69,0,0,1,0,1h0a.69.69,0,0,1-1,0l-9-9a.71.71,0,0,1,0-1Zm63.38,0h0a.72.72,0,0,1,1,0l9,9a.71.71,0,0,1,0,1h0a.7.7,0,0,1-1,0l-9-9a.71.71,0,0,1,0-1Zm-6.33,0h0a.71.71,0,0,1,1,0l9,9a.71.71,0,0,1,0,1h0a.7.7,0,0,1-1,0l-9-9a.69.69,0,0,1,0-1Zm-6.34,0h0a.71.71,0,0,1,1,0l9,9a.71.71,0,0,1,0,1h0a.7.7,0,0,1-1,0l-9-9a.69.69,0,0,1,0-1Zm-6.34,0h0a.72.72,0,0,1,1,0l9,9a.71.71,0,0,1,0,1h0a.7.7,0,0,1-1,0l-9-9a.69.69,0,0,1,0-1Zm-6.34,0h0a.72.72,0,0,1,1,0l9,9a.69.69,0,0,1,0,1h0a.69.69,0,0,1-1,0l-9-9a.71.71,0,0,1,0-1Zm-6.34,0h0a.72.72,0,0,1,1,0l9,9a.71.71,0,0,1,0,1h0a.69.69,0,0,1-1,0l-9-9a.71.71,0,0,1,0-1Zm-6.33,0h0a.71.71,0,0,1,1,0l9,9a.71.71,0,0,1,0,1h0a.7.7,0,0,1-1,0l-9-9a.69.69,0,0,1,0-1Zm-6.34,0h0a.71.71,0,0,1,1,0l9,9a.71.71,0,0,1,0,1h0a.7.7,0,0,1-1,0l-9-9a.69.69,0,0,1,0-1Zm-6.34,0h0a.71.71,0,0,1,1,0l9,9a.71.71,0,0,1,0,1h0a.7.7,0,0,1-1,0l-9-9a.69.69,0,0,1,0-1Zm-6.34,0h0a.72.72,0,0,1,1,0l9,9a.69.69,0,0,1,0,1h0a.69.69,0,0,1-1,0l-9-9a.71.71,0,0,1,0-1Z"/><path class="cls-50" d="M281.61,188.86h10.61a5.51,5.51,0,0,1,5.49,5.49h0a5.5,5.5,0,0,1-5.49,5.48h-16a.13.13,0,0,1-.13-.13v-5.35a5.51,5.51,0,0,1,5.49-5.49Z"/><path class="cls-50" d="M297.71,188.12v6.23a5.49,5.49,0,0,1-11,0v-6.23a5.49,5.49,0,1,1,11,0Z"/><path class="cls-50" d="M337.46,188.86h10.61a5.5,5.5,0,0,1,5.48,5.49h0a5.49,5.49,0,0,1-5.48,5.48h-16a.13.13,0,0,1-.13-.13v-5.35a5.51,5.51,0,0,1,5.49-5.49Z"/><path class="cls-50" d="M353.55,188.12v6.23a5.48,5.48,0,0,1-11,0v-6.23a5.48,5.48,0,1,1,11,0Z"/><path class="cls-44" d="M252.55,565.24h18.59v15.23a3.37,3.37,0,0,1-3.36,3.36H255.91a3.37,3.37,0,0,1-3.36-3.36V565.24Z"/><path class="cls-44" d="M276.75,565.24h18.59v15.23a3.37,3.37,0,0,1-3.35,3.36H280.11a3.37,3.37,0,0,1-3.36-3.36V565.24Z"/><path class="cls-44" d="M305.17,565.24h18.59v15.23a3.37,3.37,0,0,1-3.36,3.36H308.52a3.37,3.37,0,0,1-3.35-3.36V565.24Z"/><path class="cls-44" d="M329.37,565.24H348v15.23a3.37,3.37,0,0,1-3.36,3.36H332.73a3.37,3.37,0,0,1-3.36-3.36V565.24Z"/><path class="cls-51" d="M253.31,523.1a7.89,7.89,0,0,0-7.88,7.87v5.77h2.51V531a5.39,5.39,0,0,1,5.37-5.37h1.25v-2.5Z"/><polygon class="cls-44" points="347.96 532.9 329.37 532.9 329.37 580.47 347.96 580.47 347.96 532.9 347.96 532.9"/><polygon class="cls-44" points="323.76 532.9 305.17 532.9 305.17 580.47 323.76 580.47 323.76 532.9 323.76 532.9"/><polygon class="cls-44" points="295.34 532.9 276.75 532.9 276.75 580.47 295.34 580.47 295.34 532.9 295.34 532.9"/><polygon class="cls-44" points="271.14 532.9 252.55 532.9 252.55 580.47 271.14 580.47 271.14 532.9 271.14 532.9"/><path class="cls-52" d="M332.53,511.89H268a15.48,15.48,0,0,0-15.43,15.44v21.4A15.47,15.47,0,0,0,268,564.16h64.55A15.47,15.47,0,0,0,348,548.73v-21.4a15.48,15.48,0,0,0-15.43-15.44Z"/><path class="cls-51" d="M349.68,507.19a6.92,6.92,0,1,0,6.91,6.92,6.92,6.92,0,0,0-6.91-6.92Z"/><path class="cls-51" d="M318.22,507.19a6.92,6.92,0,1,0,6.91,6.92,6.91,6.91,0,0,0-6.91-6.92Z"/><path class="cls-44" d="M339.4,509H328.5a13.65,13.65,0,0,0-13.62,13.61V552.5H353V522.62A13.65,13.65,0,0,0,339.4,509Z"/><path class="cls-51" d="M322.45,569.26h23a12.49,12.49,0,0,0,12.46-12.46v-4.41A16.92,16.92,0,0,0,341,535.53H326.86A16.92,16.92,0,0,0,310,552.39v4.41a12.49,12.49,0,0,0,12.46,12.46Z"/><path class="cls-53" d="M338.56,542.63h0a3.09,3.09,0,0,0-3.07,3.08v3.4a3.08,3.08,0,0,0,3.07,3.07h0a3.09,3.09,0,0,0,3.08-3.07v-3.4a3.09,3.09,0,0,0-3.08-3.08Z"/><path class="cls-53" d="M329.33,542.63h0a3.09,3.09,0,0,0-3.07,3.08v3.4a3.08,3.08,0,0,0,3.07,3.07h0a3.08,3.08,0,0,0,3.08-3.07v-3.4a3.09,3.09,0,0,0-3.08-3.08Z"/><path class="cls-5" d="M341.4,524.07a5.57,5.57,0,1,0,5.57,5.57,5.57,5.57,0,0,0-5.57-5.57Z"/><path class="cls-5" d="M326.5,524.07a5.57,5.57,0,1,0,5.57,5.57,5.57,5.57,0,0,0-5.57-5.57Z"/><polygon class="cls-52" points="252.55 542.66 272.46 542.66 272.46 564.16 252.55 564.16 252.55 542.66 252.55 542.66"/><path class="cls-54" d="M392.49,373.23h13.66V337.57a4.53,4.53,0,0,1,4.52-4.51h0a4.53,4.53,0,0,1,4.52,4.51v6l17.26,4.62c4.85,1.3,5.51,4.54,6.19,7.58H425.52a3.68,3.68,0,0,0-3.67,3.67v43.11a29.45,29.45,0,0,1-29.36,29.36H363.13V402.58a29.45,29.45,0,0,1,29.36-29.35Z"/><path class="cls-47" d="M421.85,382.15v20.43a29.45,29.45,0,0,1-29.36,29.36H379.11V409.39a27.32,27.32,0,0,1,27.24-27.24Z"/><path class="cls-55" d="M421.84,403.14a29.47,29.47,0,0,1-26.75,28.68V418.91a15.81,15.81,0,0,1,15.76-15.77Z"/><path class="cls-54" d="M379.11,402.58h-16v34A16.41,16.41,0,0,1,346.77,453H319.14v5.91h37.69a22.34,22.34,0,0,0,22.28-22.28v-34Z"/><path class="cls-56" d="M405.21,393.28h24.45a9.89,9.89,0,0,1,9.87,9.86V413H431.8V402.4a5.08,5.08,0,0,0-5.06-5.06H405.21v-4.06Z"/><path class="cls-47" d="M379.11,419.6h16v17A16.41,16.41,0,0,0,411.45,453h20.26v5.91H401.39a22.34,22.34,0,0,1-22.28-22.28v-17Z"/><path class="cls-5" d="M415.84,346.52a4,4,0,1,1-4,4,4,4,0,0,1,4-4Z"/><path class="cls-6" d="M210.58,505.81H221.8a16.88,16.88,0,0,1,16.83,16.83v15.43A16.89,16.89,0,0,1,221.8,554.9H210.58a16.88,16.88,0,0,1-16.83-16.83V522.64a16.87,16.87,0,0,1,16.83-16.83Z"/><path class="cls-57" d="M210.58,507.82H221.8a14.86,14.86,0,0,1,14.82,14.82v15.43a14.86,14.86,0,0,1-14.82,14.81H210.58a14.86,14.86,0,0,1-14.82-14.81V522.64a14.86,14.86,0,0,1,14.82-14.82Z"/><path class="cls-4" d="M193.29,549.87l7.23,12.52a6.09,6.09,0,0,0,8.28,2.22h0a6.08,6.08,0,0,0,2.22-8.28l-7.23-12.53a6.08,6.08,0,0,0-8.28-2.21h0a6.09,6.09,0,0,0-2.22,8.28Z"/><path class="cls-4" d="M221.35,556.33l7.23-12.53a6.08,6.08,0,0,1,8.28-2.21h0a6.07,6.07,0,0,1,2.22,8.28l-7.23,12.52a6.08,6.08,0,0,1-8.28,2.22h0a6.09,6.09,0,0,1-2.22-8.28Z"/><path class="cls-4" d="M194.93,535.64h14.46a6.08,6.08,0,0,0,6.06-6.06h0a6.08,6.08,0,0,0-6.06-6.06H194.93a6.08,6.08,0,0,0-6.06,6.06h0a6.08,6.08,0,0,0,6.06,6.06Z"/><path class="cls-4" d="M223,523.52h14.46a6.08,6.08,0,0,1,6.06,6.06h0a6.08,6.08,0,0,1-6.06,6.06H223a6.07,6.07,0,0,1-6.06-6.06h0a6.08,6.08,0,0,1,6.06-6.06Z"/><path class="cls-4" d="M237.44,479.34h0a6.84,6.84,0,0,0-9.66,0l-13.49,13.49,9.66,9.66L237.44,489a6.84,6.84,0,0,0,0-9.66Z"/><path class="cls-4" d="M194.94,479.34h0a6.84,6.84,0,0,1,9.66,0l13.49,13.49-9.66,9.66L194.94,489a6.84,6.84,0,0,1,0-9.66Z"/><path class="cls-6" d="M211.38,480.8H221a14.49,14.49,0,0,1,14.44,14.44v8.43a19.31,19.31,0,0,1-19.25,19.25h0a19.31,19.31,0,0,1-19.25-19.25v-8.43a14.48,14.48,0,0,1,14.44-14.44Z"/><path class="cls-57" d="M211.32,482.73a12.49,12.49,0,0,0-12.44,12.44v8.52a17.31,17.31,0,0,0,34.61,0v-8.52a12.48,12.48,0,0,0-12.44-12.44Z"/><path class="cls-58" d="M208.72,488.63h0A6.41,6.41,0,0,1,215.1,495v2.74a6.4,6.4,0,0,1-6.38,6.38h0a6.4,6.4,0,0,1-6.38-6.38V495a6.41,6.41,0,0,1,6.38-6.39Z"/><path class="cls-58" d="M223.66,488.63h0a6.41,6.41,0,0,0-6.38,6.39v2.74a6.4,6.4,0,0,0,6.38,6.38h0a6.4,6.4,0,0,0,6.38-6.38V495a6.41,6.41,0,0,0-6.38-6.39Z"/><path class="cls-5" d="M208.72,493.46a2.93,2.93,0,1,1-2.93,2.93,2.93,2.93,0,0,1,2.93-2.93Z"/><path class="cls-5" d="M223.66,493.46a2.93,2.93,0,1,1-2.93,2.93,2.93,2.93,0,0,1,2.93-2.93Z"/><path class="cls-59" d="M214.45,504.22h3.48c1,0,2.33.95,1.92,1.92-1.69,4-5.6,4-7.32,0-.43-1,.86-1.92,1.92-1.92Z"/><path class="cls-22" d="M226.55,508a10.84,10.84,0,0,1-20.71,0h1.29a9.61,9.61,0,0,0,18.13,0Z"/><path class="cls-60" d="M282.47,289.18h0a8,8,0,0,1,8,8v23a8,8,0,0,1-8,8h0a8,8,0,0,1-8-8v-23a8,8,0,0,1,8-8Z"/><path class="cls-60" d="M282.47,279.38h0a8,8,0,0,1,8,8v23a8,8,0,0,1-8,8h0a8,8,0,0,1-8-8v-23a8,8,0,0,1,8-8Z"/><path class="cls-61" d="M319.07,303.86c-30.89-41.88-50.44-3.15-69.62-6.94V310.8c19.19-3.8,38.73,34.93,69.62-6.94Z"/><path class="cls-62" d="M319.07,303.86c-30.89-32.88-50.44-2.48-69.62-5.45v10.9c19.19-3,38.73,27.42,69.62-5.45Z"/><path class="cls-62" d="M235.34,319.24h0a4.91,4.91,0,0,1,0-6.93l11.92-11.92a4.91,4.91,0,0,1,6.93,0h0a4.91,4.91,0,0,1,0,6.93l-11.92,11.92a4.91,4.91,0,0,1-6.93,0Z"/><path class="cls-62" d="M254.19,307.32h0a4.91,4.91,0,0,0,0-6.93l-11.92-11.92a4.91,4.91,0,0,0-6.93,0h0a4.92,4.92,0,0,0,0,6.94l11.92,11.91a4.91,4.91,0,0,0,6.93,0Z"/><path class="cls-62" d="M238.58,310.54h7.92V296.77h-7.92v1.89a7.1,7.1,0,0,1,0,10.39v1.49Z"/><polygon class="cls-5" points="287.78 296.76 287.78 311.3 286.31 311.3 286.31 296.76 287.78 296.76 287.78 296.76"/><path class="cls-34" d="M289.58,296.76a2.54,2.54,0,1,1-2.53-2.54,2.53,2.53,0,0,1,2.53,2.54Z"/><path class="cls-34" d="M289.58,311.3a2.54,2.54,0,1,1-2.53-2.54,2.53,2.53,0,0,1,2.53,2.54Z"/><polygon class="cls-5" points="281.51 296.76 281.51 311.3 280.04 311.3 280.04 296.76 281.51 296.76 281.51 296.76"/><path class="cls-34" d="M283.31,296.76a2.54,2.54,0,1,1-2.54-2.54,2.54,2.54,0,0,1,2.54,2.54Z"/><path class="cls-34" d="M283.31,311.3a2.54,2.54,0,1,1-2.54-2.54,2.54,2.54,0,0,1,2.54,2.54Z"/><polygon class="cls-5" points="275.24 296.76 275.24 311.3 273.77 311.3 273.77 296.76 275.24 296.76 275.24 296.76"/><path class="cls-34" d="M277,296.76a2.54,2.54,0,1,1-2.54-2.54,2.54,2.54,0,0,1,2.54,2.54Z"/><path class="cls-34" d="M277,311.3a2.54,2.54,0,1,1-2.54-2.54A2.54,2.54,0,0,1,277,311.3Z"/><polygon class="cls-5" points="292.97 303.06 292.97 305 249.45 305 249.45 303.06 292.97 303.06 292.97 303.06"/><path class="cls-5" d="M298.51,301v5.81h5.82V301Zm6.57,6.57v2.41a3.67,3.67,0,0,1-3.66,3.67h0a3.68,3.68,0,0,1-3.66-3.67v-2.41h-2.42a3.67,3.67,0,0,1-3.66-3.66h0a3.68,3.68,0,0,1,3.66-3.67h2.42v-2.41a3.67,3.67,0,0,1,3.66-3.66h0a3.66,3.66,0,0,1,3.66,3.66v2.41h2.42a3.68,3.68,0,0,1,3.66,3.67h0a3.67,3.67,0,0,1-3.66,3.66Z"/><path class="cls-60" d="M305.71,303.86a4.29,4.29,0,1,1-4.29-4.3,4.29,4.29,0,0,1,4.29,4.3Z"/><path class="cls-5" d="M249.45,306.12a2.09,2.09,0,1,1,2.09-2.09,2.1,2.1,0,0,1-2.09,2.09Z"/></svg>