<svg xmlns="http://www.w3.org/2000/svg" xmlns:xlink="http://www.w3.org/1999/xlink" viewBox="0 0 561.6 374.4"><defs><style>.cls-1{fill:none;}.cls-2{fill:#fffff2;}.cls-3{clip-path:url(#clip-path);}.cls-4{fill:#f8ffb9;}.cls-5{fill:#ffffd4;}.cls-6{fill:#e0f4b0;}.cls-7{fill:#acc47f;}.cls-8{fill:#81ac8f;}.cls-9{fill:#59867c;}.cls-10{fill:#f7ffae;}.cls-11{fill:#396e63;}.cls-12{fill:#2c5d3c;}.cls-13{fill:#ffffec;}</style><clipPath id="clip-path"><path class="cls-1" d="M291.81,0S196.66-.19,210,125.49c10.12,95.25,106.15,136.84,124.88,174.15,38,75.67-100.66,111.81-100.66,111.81H622.71V0Z"/></clipPath></defs><g id="White_bg" data-name="White bg"><rect class="cls-2" width="622.71" height="411.45"/></g><g id="Object"><g class="cls-3"><rect class="cls-4" x="202.37" y="-2.3" width="494.94" height="416.06"/><path class="cls-5" d="M202.37,43.25s20,35.18,98.63,34.23,97.79-24.07,183.32-34.23C612.73,28,698.37,77.5,698.37,77.5l-1.06,336.26h-522V-2.3Z"/><path class="cls-2" d="M201.84,98.61s20,29.92,98.63,29.12,104.74-19.85,190.17-29.84c129.63-15.16,207.2,29.85,207.2,29.85l-1.06,286h-522V59.87Z"/><path class="cls-6" d="M555.37,88.45v-.1A23,23,0,0,0,559,90.51c.47,0-2.3-3.27-2.38-3.46s2.41,1.42,2.48,1.26-2.34-4-3.54-5.87a18.14,18.14,0,0,0,3.05,2.47c.42,0-2.08-4-2.15-4.27s2.17,1.76,2.24,1.56-2.57-5.87-3.49-7.86A17.89,17.89,0,0,0,558,76.61c.35,0-1.73-3.36-1.79-3.55s1.81,1.46,1.87,1.29-2.25-5.11-3-6.65a14.37,14.37,0,0,0,2.25,1.84c.28,0-1.38-2.67-1.43-2.83s1.44,1.17,1.49,1-2.52-5.65-2.52-5.65-2.57,5.52-2.52,5.65,1.53-1.18,1.49-1-1.71,2.83-1.43,2.83a14.37,14.37,0,0,0,2.25-1.84c-.71,1.54-3,6.51-3,6.65s1.93-1.49,1.87-1.29-2.14,3.55-1.79,3.55a17.89,17.89,0,0,0,2.78-2.27c-.92,2-3.55,7.69-3.49,7.86s2.31-1.79,2.24-1.56-2.57,4.27-2.15,4.27a18.14,18.14,0,0,0,3.05-2.47c-1.2,1.91-3.6,5.75-3.54,5.87s2.55-1.45,2.48-1.26-2.85,3.46-2.38,3.46a24.28,24.28,0,0,0,3.72-2.24c-1.12,1.78-4.32,6.88-4.25,7s2.81-1.59,2.73-1.39-3.13,3.82-2.62,3.82a28.44,28.44,0,0,0,4.2-2.53l-.13,12.69h1.31l-.24-12.49a24.66,24.66,0,0,0,3.9,2.33c.51,0-2.53-3.61-2.62-3.82s2.65,1.57,2.73,1.39S556.58,90.37,555.37,88.45Z"/><path class="cls-6" d="M503.21,66.08V66a13.91,13.91,0,0,0,2.12,1.27c.28,0-1.35-1.92-1.39-2s1.41.84,1.45.74-1.37-2.33-2.08-3.44A11,11,0,0,0,505.09,64c.25,0-1.22-2.37-1.26-2.51s1.28,1,1.32.91-1.51-3.44-2-4.61a11.16,11.16,0,0,0,1.63,1.34c.21,0-1-2-1.05-2.09s1.06.86,1.1.76-1.32-3-1.74-3.91A8.5,8.5,0,0,0,504.36,55c.16,0-.81-1.57-.84-1.66s.85.69.88.61-1.48-3.32-1.48-3.32-1.51,3.24-1.48,3.32.9-.7.87-.61-1,1.66-.84,1.66a8.05,8.05,0,0,0,1.32-1.08c-.42.91-1.76,3.83-1.73,3.91s1.13-.88,1.09-.76-1.25,2.09-1,2.09a10.19,10.19,0,0,0,1.63-1.34c-.54,1.17-2.08,4.52-2.05,4.61s1.36-1,1.32-.91S500.49,64,500.74,64a10.6,10.6,0,0,0,1.79-1.45c-.7,1.11-2.11,3.37-2.08,3.44s1.5-.85,1.45-.74-1.66,2-1.39,2A14.39,14.39,0,0,0,502.69,66c-.65,1-2.53,4-2.49,4.12s1.65-.93,1.6-.81-1.84,2.24-1.54,2.24A17.1,17.1,0,0,0,502.73,70l-.07,7.45h.76l-.14-7.33a14.87,14.87,0,0,0,2.29,1.37c.3,0-1.49-2.12-1.54-2.24s1.56.92,1.61.81S503.91,67.2,503.21,66.08Z"/><path class="cls-6" d="M491.83,75.35v-.07A13.44,13.44,0,0,0,494,76.55c.27,0-1.35-1.92-1.4-2s1.41.84,1.46.74-1.38-2.33-2.08-3.44a10.72,10.72,0,0,0,1.79,1.45c.24,0-1.22-2.37-1.26-2.51s1.27,1,1.31.91-1.51-3.44-2-4.61a11,11,0,0,0,1.63,1.33c.21,0-1-2-1.05-2.08s1.06.85,1.1.76-1.32-3-1.74-3.91A9,9,0,0,0,493,64.24c.17,0-.81-1.57-.83-1.66s.84.69.87.61-1.48-3.32-1.48-3.32-1.51,3.24-1.48,3.32.9-.7.87-.61-1,1.66-.83,1.66a9,9,0,0,0,1.32-1.08c-.42.91-1.77,3.83-1.74,3.91s1.13-.88,1.1-.76-1.26,2.08-1,2.08a11,11,0,0,0,1.63-1.33c-.54,1.17-2.09,4.52-2.05,4.61s1.36-1,1.31-.91-1.51,2.51-1.26,2.51a10.72,10.72,0,0,0,1.79-1.45c-.7,1.11-2.11,3.37-2.08,3.44s1.5-.85,1.46-.74-1.67,2-1.4,2a14.9,14.9,0,0,0,2.19-1.31c-.66,1-2.54,4-2.5,4.12s1.65-.94,1.6-.81-1.83,2.23-1.53,2.23a16.36,16.36,0,0,0,2.46-1.48l-.07,7.45H492l-.13-7.33a14.64,14.64,0,0,0,2.28,1.36c.3,0-1.48-2.11-1.53-2.23s1.55.92,1.6.81S492.54,76.47,491.83,75.35Z"/><path class="cls-6" d="M462.86,113.19v-.06a14,14,0,0,0,2.12,1.26c.27,0-1.35-1.92-1.4-2s1.41.84,1.46.74-1.38-2.32-2.08-3.44a10.21,10.21,0,0,0,1.79,1.45c.24,0-1.22-2.37-1.26-2.51s1.27,1,1.31.91-1.51-3.44-2.05-4.61a11.16,11.16,0,0,0,1.63,1.34c.21,0-1-2-1.05-2.09s1.06.86,1.1.76-1.32-3-1.74-3.91a9.2,9.2,0,0,0,1.32,1.09c.17,0-.81-1.58-.83-1.67s.84.69.87.61-1.48-3.32-1.48-3.32-1.51,3.24-1.48,3.32.9-.7.87-.61-1,1.67-.83,1.67a9.2,9.2,0,0,0,1.32-1.09c-.42.91-1.77,3.83-1.74,3.91s1.13-.88,1.1-.76-1.26,2.09-1.05,2.09a11.16,11.16,0,0,0,1.63-1.34c-.54,1.17-2.09,4.52-2.05,4.61s1.35-1.05,1.31-.91-1.51,2.51-1.26,2.51a10.6,10.6,0,0,0,1.79-1.45c-.7,1.12-2.11,3.37-2.08,3.44s1.5-.85,1.46-.74-1.67,2-1.4,2a14.9,14.9,0,0,0,2.19-1.31c-.66,1-2.54,4-2.5,4.12s1.65-.93,1.6-.81-1.83,2.24-1.53,2.24a16.56,16.56,0,0,0,2.46-1.49l-.07,7.45h.76l-.14-7.33a15.36,15.36,0,0,0,2.29,1.37c.3,0-1.48-2.12-1.53-2.24s1.55.92,1.6.81S463.57,114.31,462.86,113.19Z"/><path class="cls-6" d="M349.86,113.19v-.06a14,14,0,0,0,2.12,1.26c.27,0-1.35-1.92-1.4-2s1.41.84,1.46.74-1.38-2.32-2.08-3.44a10.6,10.6,0,0,0,1.79,1.45c.25,0-1.22-2.37-1.26-2.51s1.27,1,1.32.91-1.51-3.44-2.05-4.61a10.19,10.19,0,0,0,1.63,1.34c.2,0-1-2-1.05-2.09s1.06.86,1.09.76-1.31-3-1.73-3.91a8.22,8.22,0,0,0,1.32,1.09c.16,0-.81-1.58-.84-1.67s.85.69.87.61-1.48-3.32-1.48-3.32-1.5,3.24-1.48,3.32.9-.7.88-.61-1,1.67-.84,1.67a8.68,8.68,0,0,0,1.32-1.09c-.42.91-1.77,3.83-1.74,3.91s1.13-.88,1.1-.76-1.26,2.09-1.05,2.09a11.16,11.16,0,0,0,1.63-1.34c-.54,1.17-2.08,4.52-2.05,4.61s1.36-1.05,1.32-.91-1.51,2.51-1.27,2.51a10.56,10.56,0,0,0,1.8-1.45c-.71,1.12-2.12,3.37-2.08,3.44s1.5-.85,1.45-.74-1.67,2-1.39,2a14.9,14.9,0,0,0,2.18-1.31c-.66,1-2.54,4-2.5,4.12s1.66-.93,1.61-.81-1.84,2.24-1.54,2.24a16.56,16.56,0,0,0,2.46-1.49l-.07,7.45h.77l-.14-7.33a14.41,14.41,0,0,0,2.29,1.37c.3,0-1.49-2.12-1.54-2.24s1.55.92,1.6.81S350.57,114.31,349.86,113.19Z"/><path class="cls-6" d="M322.92,120.05V120a14,14,0,0,0,2.12,1.26c.27,0-1.35-1.92-1.4-2s1.41.84,1.46.74-1.38-2.32-2.08-3.44a10.6,10.6,0,0,0,1.79,1.45c.25,0-1.22-2.37-1.26-2.51s1.27,1,1.31.92-1.51-3.45-2.05-4.62a11.16,11.16,0,0,0,1.63,1.34c.21,0-1-2-1.05-2.09s1.07.86,1.1.76-1.32-3-1.74-3.91a9.2,9.2,0,0,0,1.32,1.09c.17,0-.8-1.58-.83-1.67s.84.69.87.61-1.48-3.32-1.48-3.32-1.51,3.24-1.48,3.32.9-.7.87-.61-1,1.67-.83,1.67a9.2,9.2,0,0,0,1.32-1.09c-.42.91-1.77,3.83-1.74,3.91s1.13-.88,1.1-.76-1.26,2.09-1.05,2.09a11.16,11.16,0,0,0,1.63-1.34c-.54,1.17-2.09,4.52-2.05,4.62s1.36-1,1.32-.92-1.51,2.51-1.27,2.51a10.21,10.21,0,0,0,1.79-1.45c-.7,1.12-2.11,3.37-2.08,3.44s1.5-.85,1.46-.74-1.67,2-1.4,2a13.61,13.61,0,0,0,2.19-1.31c-.66,1-2.54,4-2.5,4.12s1.66-.93,1.61-.81-1.84,2.24-1.54,2.24a16.56,16.56,0,0,0,2.46-1.49l-.07,7.45h.76l-.13-7.33a14.89,14.89,0,0,0,2.28,1.37c.31,0-1.48-2.12-1.53-2.24s1.55.92,1.6.81S323.63,121.17,322.92,120.05Z"/><path class="cls-6" d="M294,156.38v-.06a13.44,13.44,0,0,0,2.12,1.27c.27,0-1.35-1.92-1.4-2s1.41.83,1.46.74-1.38-2.33-2.08-3.45a10.8,10.8,0,0,0,1.79,1.46c.25,0-1.22-2.38-1.26-2.51s1.27,1,1.31.91-1.51-3.45-2.05-4.61a11,11,0,0,0,1.63,1.33c.21,0-1-2-1.05-2.09s1.07.86,1.1.76-1.32-3-1.74-3.9a9,9,0,0,0,1.32,1.08c.17,0-.81-1.57-.83-1.66s.84.68.87.6-1.48-3.32-1.48-3.32-1.51,3.25-1.48,3.32.9-.69.87-.6-1,1.66-.83,1.66a9,9,0,0,0,1.32-1.08c-.42.9-1.77,3.82-1.74,3.9s1.13-.87,1.1-.76-1.26,2.09-1,2.09a11,11,0,0,0,1.63-1.33c-.54,1.16-2.09,4.51-2.05,4.61s1.36-1.05,1.31-.91-1.5,2.51-1.26,2.51a10.4,10.4,0,0,0,1.79-1.46c-.7,1.12-2.11,3.38-2.08,3.45s1.5-.85,1.46-.74-1.67,2-1.4,2a14.9,14.9,0,0,0,2.19-1.31c-.66,1-2.54,4-2.5,4.12s1.66-.94,1.6-.82-1.83,2.24-1.53,2.24a16.36,16.36,0,0,0,2.46-1.48l-.07,7.45h.76l-.13-7.33a14.64,14.64,0,0,0,2.28,1.36c.3,0-1.48-2.12-1.53-2.24s1.55.92,1.6.82S294.66,157.51,294,156.38Z"/><polygon class="cls-6" points="403.67 185.12 517.01 50.6 697.31 265.5 697.31 377.9 136.48 377.9 336.58 102.74 403.67 185.12"/><polygon class="cls-7" points="517.01 50.6 533.84 130.77 563.99 160.85 551.21 187 655.99 377.2 697.31 377.2 698.37 259.08 517.01 50.6"/><polygon class="cls-7" points="336.58 102.74 346.85 173.7 366.79 186.28 362.89 208 479.68 377.2 562.03 377.2 336.58 102.74"/><polygon class="cls-8" points="136.48 377.2 230.43 175.83 322.63 377.2 136.48 377.2"/><polygon class="cls-8" points="257.45 377.2 384.83 193.31 488.82 377.2 257.45 377.2"/><polygon class="cls-8" points="360.8 377.2 459.19 229.64 540.89 377.2 360.8 377.2"/><polygon class="cls-8" points="496.97 365 585.13 204.09 683.39 365 496.97 365"/><polygon class="cls-9" points="225.74 377.2 304.23 218.82 376.26 377.2 225.74 377.2"/><polygon class="cls-9" points="428.98 377.2 501.01 231.86 567.12 377.2 428.98 377.2"/><polygon class="cls-9" points="548.13 377.2 594.22 276.24 636.51 377.2 548.13 377.2"/><polygon class="cls-9" points="334.96 377.2 386.05 291.22 432.93 377.2 334.96 377.2"/><path class="cls-9" d="M520,262.47v-.13c1.24.83,4,2.64,4.42,2.64s-2.81-4-2.91-4.23,2.94,1.74,3,1.54-2.87-4.85-4.33-7.18c1.2,1.1,3.36,3,3.73,3s-2.54-4.95-2.63-5.23,2.66,2.15,2.75,1.9-3.15-7.18-4.28-9.61a22.38,22.38,0,0,0,3.4,2.78c.43,0-2.12-4.12-2.19-4.35s2.21,1.79,2.29,1.58-2.75-6.25-3.62-8.14a17.32,17.32,0,0,0,2.75,2.26c.34,0-1.69-3.27-1.74-3.46s1.76,1.42,1.81,1.26-3.08-6.92-3.08-6.92-3.14,6.76-3.08,6.92,1.87-1.45,1.82-1.26-2.09,3.46-1.75,3.46a17.32,17.32,0,0,0,2.75-2.26c-.87,1.89-3.67,8-3.61,8.14s2.35-1.82,2.28-1.58-2.62,4.35-2.19,4.35a21.9,21.9,0,0,0,3.4-2.78c-1.13,2.43-4.34,9.41-4.27,9.61s2.83-2.18,2.74-1.9-3.14,5.23-2.63,5.23,2.53-1.93,3.73-3c-1.46,2.33-4.4,7-4.33,7.18s3.13-1.77,3-1.54-3.47,4.23-2.9,4.23,3.39-2,4.55-2.73c-1.37,2.16-5.29,8.41-5.21,8.59s3.45-2,3.35-1.7-3.84,4.66-3.21,4.66,4-2.3,5.14-3.09l-.15,15.52h1.59L520.16,271c1.41.95,4.3,2.85,4.77,2.85.63,0-3.1-4.41-3.2-4.66s3.24,1.91,3.34,1.7S521.48,264.81,520,262.47Z"/><path class="cls-9" d="M453.94,343.05v-.18c1.77,1.19,5.71,3.8,6.35,3.8.81,0-4.05-5.75-4.18-6.08s4.22,2.49,4.36,2.21-4.13-7-6.23-10.31c1.73,1.57,4.83,4.34,5.36,4.34.74,0-3.66-7.1-3.78-7.51s3.82,3.08,3.94,2.74-4.51-10.33-6.13-13.82c1.28,1.18,4.39,4,4.88,4s-3.05-5.92-3.15-6.26,3.18,2.57,3.29,2.28-3.95-9-5.2-11.7c1,.89,3.55,3.24,3.95,3.24s-2.42-4.7-2.51-5,2.54,2,2.62,1.81-4.43-9.94-4.43-9.94-4.52,9.71-4.43,9.94,2.69-2.08,2.61-1.81-3,5-2.51,5,3-2.35,4-3.24c-1.26,2.71-5.29,11.45-5.2,11.7s3.39-2.62,3.28-2.28-3.76,6.26-3.14,6.26,3.6-2.82,4.88-4c-1.62,3.49-6.24,13.53-6.14,13.82s4.07-3.15,3.94-2.74-4.52,7.51-3.78,7.51c.53,0,3.64-2.77,5.37-4.34-2.11,3.34-6.34,10.1-6.23,10.31s4.49-2.55,4.36-2.21-5,6.08-4.18,6.08c.65,0,4.88-2.82,6.54-3.93-2,3.11-7.6,12.08-7.48,12.34s5-2.81,4.81-2.44-5.51,6.7-4.61,6.7,5.69-3.31,7.38-4.45l-.22,22.31h2.29l-.41-21.95c2,1.35,6.17,4.09,6.85,4.09.9,0-4.45-6.34-4.6-6.7s4.65,2.75,4.8,2.44S456.06,346.42,453.94,343.05Z"/><path class="cls-9" d="M491.31,232.57v-.15c1.38.93,4.44,3,4.93,3s-3.14-4.46-3.24-4.72,3.27,1.94,3.38,1.72-3.2-5.41-4.84-8c1.34,1.23,3.76,3.38,4.17,3.38.57,0-2.84-5.52-2.94-5.83s3,2.39,3.06,2.12-3.5-8-4.76-10.73c1,.92,3.41,3.11,3.79,3.11s-2.37-4.59-2.44-4.86,2.47,2,2.54,1.77-3.06-7-4-9.08a20.29,20.29,0,0,0,3.07,2.52c.38,0-1.88-3.65-1.95-3.86s2,1.58,2,1.4-3.44-7.72-3.44-7.72-3.5,7.54-3.44,7.72,2.09-1.61,2-1.4-2.32,3.86-1.94,3.86a20.8,20.8,0,0,0,3.07-2.52c-1,2.1-4.11,8.89-4,9.08s2.63-2,2.55-1.77-2.92,4.86-2.44,4.86,2.79-2.19,3.78-3.11C489,216,485.37,223.81,485.45,224s3.16-2.44,3.06-2.12-3.51,5.83-2.93,5.83c.41,0,2.82-2.15,4.16-3.38-1.63,2.6-4.91,7.85-4.83,8s3.49-2,3.38-1.72-3.88,4.72-3.24,4.72,3.79-2.18,5.07-3.05c-1.52,2.42-5.9,9.38-5.8,9.58s3.85-2.18,3.73-1.89-4.28,5.2-3.58,5.2,4.42-2.56,5.73-3.45L490,259.08h1.78l-.32-17c1.57,1.06,4.79,3.18,5.32,3.18.7,0-3.46-4.92-3.57-5.2s3.61,2.14,3.73,1.89S493,235.18,491.31,232.57Z"/><path class="cls-9" d="M344.44,285.19V285c2.12,1.43,6.85,4.55,7.6,4.55,1,0-4.84-6.89-5-7.29s5.06,3,5.22,2.66-4.94-8.36-7.46-12.36c2.07,1.89,5.79,5.2,6.42,5.2.89,0-4.38-8.51-4.53-9s4.58,3.7,4.73,3.28-5.42-12.37-7.36-16.56c1.54,1.41,5.27,4.79,5.85,4.79.74,0-3.65-7.08-3.77-7.49s3.81,3.08,3.94,2.73-4.73-10.77-6.23-14c1.16,1.07,4.26,3.89,4.73,3.89s-2.9-5.64-3-6,3,2.45,3.13,2.18-5.31-11.92-5.31-11.92-5.4,11.64-5.31,11.92,3.23-2.5,3.14-2.18-3.59,6-3,6,3.57-2.82,4.73-3.89c-1.5,3.25-6.33,13.72-6.23,14s4.06-3.14,3.94-2.73-4.51,7.49-3.77,7.49c.58,0,4.31-3.38,5.84-4.79-1.93,4.19-7.47,16.21-7.35,16.56s4.88-3.77,4.73-3.28-5.42,9-4.53,9c.63,0,4.35-3.31,6.42-5.2-2.52,4-7.58,12.1-7.46,12.36s5.39-3.05,5.22-2.66-6,7.29-5,7.29c.78,0,5.85-3.37,7.84-4.71-2.36,3.73-9.12,14.48-9,14.79s5.94-3.37,5.76-2.93-6.6,8-5.52,8c.9,0,6.82-4,8.85-5.34l-.26,26.74h2.74l-.49-26.31c2.41,1.62,7.39,4.91,8.21,4.91,1.08,0-5.34-7.6-5.52-8s5.58,3.3,5.76,2.93S347,289.22,344.44,285.19Z"/><path class="cls-9" d="M413.12,321.5v-.18c1.77,1.19,5.72,3.8,6.35,3.8.81,0-4.05-5.75-4.18-6.08s4.22,2.5,4.36,2.21-4.13-7-6.23-10.31c1.73,1.58,4.83,4.34,5.36,4.34.74,0-3.66-7.1-3.78-7.51s3.82,3.09,3.94,2.74-4.51-10.32-6.13-13.82c1.28,1.18,4.39,4,4.88,4s-3.05-5.92-3.15-6.26,3.18,2.57,3.29,2.28-3.95-9-5.2-11.7c1,.9,3.55,3.25,3.95,3.25s-2.42-4.71-2.51-5,2.54,2.05,2.62,1.81-4.43-9.94-4.43-9.94-4.52,9.71-4.43,9.94,2.69-2.08,2.61-1.81-3,5-2.5,5,3-2.35,3.95-3.25c-1.26,2.71-5.29,11.46-5.2,11.7s3.39-2.62,3.28-2.28-3.76,6.26-3.14,6.26,3.6-2.82,4.88-4c-1.62,3.5-6.24,13.53-6.14,13.82s4.07-3.15,3.94-2.74-4.52,7.51-3.78,7.51c.53,0,3.64-2.76,5.37-4.34-2.11,3.34-6.34,10.1-6.23,10.31s4.49-2.54,4.36-2.21-5,6.08-4.18,6.08c.65,0,4.88-2.81,6.54-3.93-2,3.11-7.6,12.08-7.48,12.34s5-2.81,4.81-2.44-5.51,6.7-4.61,6.7,5.69-3.3,7.38-4.45l-.22,22.32h2.29l-.41-22c2,1.36,6.18,4.09,6.85,4.09.9,0-4.45-6.34-4.6-6.7s4.65,2.75,4.8,2.44S415.25,324.87,413.12,321.5Z"/><path class="cls-9" d="M238.57,321.5v-.18c1.77,1.19,5.71,3.8,6.34,3.8.82,0-4-5.75-4.18-6.08s4.23,2.5,4.36,2.21-4.12-7-6.23-10.31c1.73,1.58,4.84,4.34,5.37,4.34.74,0-3.66-7.1-3.78-7.51s3.82,3.09,3.94,2.74-4.52-10.32-6.14-13.82c1.28,1.18,4.4,4,4.88,4s-3-5.92-3.14-6.26,3.18,2.57,3.28,2.28-3.94-9-5.2-11.7c1,.9,3.56,3.25,4,3.25s-2.42-4.71-2.5-5,2.53,2.05,2.61,1.81-4.43-9.94-4.43-9.94-4.51,9.71-4.43,9.94,2.7-2.08,2.62-1.81-3,5-2.51,5,3-2.35,4-3.25c-1.25,2.71-5.28,11.46-5.2,11.7s3.39-2.62,3.29-2.28-3.76,6.26-3.15,6.26,3.6-2.82,4.88-4c-1.62,3.5-6.24,13.53-6.14,13.82s4.07-3.15,4-2.74-4.52,7.51-3.78,7.51c.53,0,3.63-2.76,5.36-4.34-2.1,3.34-6.33,10.1-6.23,10.31s4.5-2.54,4.36-2.21-5,6.08-4.18,6.08c.66,0,4.89-2.81,6.55-3.93-2,3.11-7.61,12.08-7.48,12.34s4.95-2.81,4.8-2.44-5.5,6.7-4.6,6.7c.74,0,5.69-3.3,7.38-4.45l-.22,22.32h2.29l-.41-22c2,1.36,6.17,4.09,6.85,4.09.9,0-4.46-6.34-4.61-6.7s4.66,2.75,4.81,2.44S240.69,324.87,238.57,321.5Z"/><path class="cls-8" d="M258.13,216.66v-.13c1.23.83,4,2.64,4.41,2.64s-2.81-4-2.9-4.23,2.93,1.74,3,1.54-2.87-4.84-4.33-7.16c1.2,1.09,3.36,3,3.72,3,.52,0-2.54-4.93-2.62-5.21s2.65,2.14,2.74,1.9-3.14-7.17-4.27-9.6a22.85,22.85,0,0,0,3.39,2.77c.43,0-2.11-4.11-2.18-4.34s2.21,1.78,2.28,1.58-2.74-6.24-3.61-8.13a18.42,18.42,0,0,0,2.74,2.26c.34,0-1.68-3.27-1.74-3.46s1.76,1.42,1.82,1.26-3.08-6.91-3.08-6.91-3.13,6.75-3.08,6.91,1.87-1.45,1.82-1.26-2.08,3.46-1.74,3.46a18.42,18.42,0,0,0,2.74-2.26c-.87,1.89-3.67,8-3.61,8.13s2.36-1.82,2.28-1.58-2.61,4.34-2.18,4.34a22.34,22.34,0,0,0,3.39-2.77c-1.13,2.43-4.34,9.4-4.27,9.6s2.83-2.19,2.74-1.9-3.14,5.21-2.62,5.21c.37,0,2.52-1.92,3.72-3-1.46,2.32-4.4,7-4.32,7.16s3.12-1.77,3-1.54-3.47,4.23-2.9,4.23,3.4-1.95,4.55-2.73c-1.37,2.16-5.29,8.4-5.2,8.57s3.44-1.95,3.34-1.69S251.38,228,252,228s4-2.3,5.13-3.09l-.15,15.5h1.59l-.29-15.26c1.4.94,4.29,2.85,4.76,2.85.63,0-3.09-4.41-3.2-4.66s3.24,1.91,3.34,1.69S259.61,219,258.13,216.66Z"/><path class="cls-8" d="M240.79,205.91v-.13c1.23.83,4,2.64,4.41,2.64s-2.81-4-2.9-4.22,2.93,1.73,3,1.54-2.86-4.85-4.32-7.17c1.2,1.1,3.35,3,3.72,3,.52,0-2.54-4.94-2.63-5.22s2.66,2.14,2.75,1.9-3.14-7.17-4.27-9.6a21.93,21.93,0,0,0,3.39,2.78c.43,0-2.11-4.11-2.18-4.35s2.21,1.79,2.28,1.59-2.74-6.25-3.61-8.13a18.23,18.23,0,0,0,2.74,2.25c.34,0-1.68-3.27-1.74-3.46s1.76,1.42,1.82,1.26-3.08-6.91-3.08-6.91-3.14,6.75-3.08,6.91,1.87-1.45,1.82-1.26-2.08,3.46-1.74,3.46a18.23,18.23,0,0,0,2.74-2.25c-.87,1.88-3.67,7.95-3.61,8.13s2.35-1.82,2.28-1.59-2.61,4.35-2.18,4.35a22.41,22.41,0,0,0,3.39-2.78c-1.13,2.43-4.34,9.4-4.27,9.6s2.83-2.18,2.74-1.9-3.14,5.22-2.62,5.22c.36,0,2.52-1.92,3.72-3-1.46,2.32-4.4,7-4.33,7.17s3.13-1.77,3-1.54-3.47,4.22-2.9,4.22,3.39-1.95,4.55-2.73c-1.37,2.17-5.29,8.4-5.2,8.58s3.44-2,3.34-1.7-3.83,4.66-3.2,4.66,4-2.3,5.13-3.09l-.15,15.5h1.58L241,214.39c1.4.94,4.29,2.84,4.76,2.84.63,0-3.1-4.41-3.2-4.66s3.24,1.92,3.34,1.7S242.27,208.25,240.79,205.91Z"/><path class="cls-8" d="M369.29,202.34v-.09a20,20,0,0,0,3.07,1.83c.39,0-2-2.78-2-2.93s2,1.2,2.1,1.06-2-3.36-3-5a15.3,15.3,0,0,0,2.58,2.1c.36,0-1.76-3.43-1.82-3.62s1.84,1.49,1.9,1.32-2.18-5-3-6.67a15.69,15.69,0,0,0,2.36,1.93c.3,0-1.47-2.86-1.52-3s1.53,1.24,1.58,1.1-1.9-4.34-2.51-5.65a12.75,12.75,0,0,0,1.91,1.56c.24,0-1.17-2.27-1.21-2.4s1.23,1,1.26.88-2.13-4.8-2.13-4.8-2.18,4.69-2.14,4.8,1.3-1,1.26-.88-1.45,2.4-1.21,2.4a12.75,12.75,0,0,0,1.91-1.56c-.61,1.31-2.55,5.53-2.51,5.65s1.63-1.27,1.58-1.1-1.81,3-1.52,3a15.69,15.69,0,0,0,2.36-1.93c-.78,1.68-3,6.53-3,6.67s2-1.52,1.9-1.32-2.18,3.62-1.82,3.62a15.67,15.67,0,0,0,2.59-2.1c-1,1.62-3.06,4.88-3,5s2.17-1.22,2.1-1.06-2.41,2.93-2,2.93a21.15,21.15,0,0,0,3.15-1.9c-.95,1.51-3.67,5.84-3.61,6s2.4-1.35,2.32-1.18-2.66,3.24-2.22,3.24a23.9,23.9,0,0,0,3.56-2.15l-.1,10.77h1.1l-.2-10.6a20.71,20.71,0,0,0,3.31,2c.44,0-2.15-3.06-2.22-3.24s2.25,1.33,2.32,1.18S370.32,204,369.29,202.34Z"/><path class="cls-8" d="M361.22,224.05V224a19.41,19.41,0,0,0,3.06,1.84c.4,0-1.95-2.78-2-2.94s2,1.21,2.11,1.07-2-3.36-3-5a16.23,16.23,0,0,0,2.59,2.1c.36,0-1.76-3.43-1.82-3.63s1.84,1.49,1.9,1.32-2.18-5-3-6.67a15.59,15.59,0,0,0,2.35,1.93c.3,0-1.47-2.85-1.52-3s1.54,1.24,1.59,1.1-1.9-4.34-2.51-5.65a12.32,12.32,0,0,0,1.91,1.57c.23,0-1.17-2.27-1.21-2.4s1.22,1,1.26.87-2.14-4.8-2.14-4.8-2.18,4.69-2.14,4.8,1.3-1,1.26-.87-1.44,2.4-1.21,2.4a11.86,11.86,0,0,0,1.91-1.57c-.6,1.31-2.55,5.53-2.51,5.65s1.64-1.26,1.59-1.1-1.82,3-1.52,3a15.56,15.56,0,0,0,2.36-1.93c-.79,1.69-3,6.53-3,6.67s2-1.51,1.91-1.32-2.18,3.63-1.83,3.63a15.38,15.38,0,0,0,2.59-2.1c-1,1.62-3.06,4.88-3,5s2.17-1.23,2.11-1.07-2.41,2.94-2,2.94a20.66,20.66,0,0,0,3.16-1.9c-1,1.5-3.67,5.83-3.61,6s2.39-1.36,2.32-1.18-2.66,3.24-2.23,3.24a24.43,24.43,0,0,0,3.57-2.15l-.11,10.77h1.11l-.2-10.6a21,21,0,0,0,3.31,2c.43,0-2.15-3.06-2.23-3.24s2.25,1.33,2.32,1.18S362.24,225.68,361.22,224.05Z"/><path class="cls-8" d="M404.53,219.52v-.09a19.52,19.52,0,0,0,3.06,1.83c.39,0-1.95-2.78-2-2.93s2,1.2,2.11,1.07-2-3.37-3-5a15.18,15.18,0,0,0,2.59,2.09c.36,0-1.77-3.43-1.83-3.62s1.85,1.49,1.91,1.32-2.18-5-3-6.67a15.56,15.56,0,0,0,2.36,1.93c.3,0-1.47-2.86-1.52-3s1.54,1.24,1.59,1.1-1.91-4.34-2.51-5.65a12.26,12.26,0,0,0,1.91,1.56c.23,0-1.17-2.27-1.21-2.4s1.22,1,1.26.88-2.14-4.8-2.14-4.8-2.18,4.69-2.14,4.8,1.3-1,1.26-.88-1.44,2.4-1.21,2.4a12.75,12.75,0,0,0,1.91-1.56c-.61,1.31-2.55,5.53-2.51,5.65s1.64-1.27,1.59-1.1-1.82,3-1.52,3a15.59,15.59,0,0,0,2.35-1.93c-.78,1.68-3,6.53-3,6.67s2-1.52,1.9-1.32-2.18,3.62-1.82,3.62a16,16,0,0,0,2.59-2.09c-1,1.61-3.06,4.87-3,5s2.17-1.23,2.11-1.07-2.42,2.93-2,2.93a21.16,21.16,0,0,0,3.16-1.9c-1,1.51-3.67,5.84-3.61,6s2.39-1.35,2.32-1.18-2.66,3.24-2.23,3.24a24.43,24.43,0,0,0,3.57-2.15L403.73,236h1.11l-.2-10.6a20.27,20.27,0,0,0,3.31,2c.43,0-2.16-3.06-2.23-3.24s2.25,1.33,2.32,1.18S405.55,221.14,404.53,219.52Z"/><path class="cls-8" d="M417.31,241.2v-.08a20.49,20.49,0,0,0,3.06,1.83c.4,0-1.95-2.78-2-2.94s2,1.21,2.1,1.07-2-3.36-3-5a16.23,16.23,0,0,0,2.59,2.1c.36,0-1.76-3.43-1.82-3.63s1.84,1.49,1.9,1.33-2.18-5-3-6.68a15.08,15.08,0,0,0,2.36,1.93c.29,0-1.47-2.85-1.52-3s1.53,1.25,1.58,1.1-1.9-4.33-2.51-5.64a12.75,12.75,0,0,0,1.91,1.56c.24,0-1.17-2.27-1.21-2.4s1.22,1,1.26.88-2.14-4.81-2.14-4.81-2.18,4.69-2.14,4.81,1.31-1,1.27-.88-1.45,2.4-1.21,2.4a12.75,12.75,0,0,0,1.91-1.56c-.61,1.31-2.56,5.53-2.51,5.64s1.63-1.26,1.58-1.1-1.82,3-1.52,3a15.08,15.08,0,0,0,2.36-1.93c-.78,1.69-3,6.54-3,6.68s2-1.52,1.91-1.33-2.18,3.63-1.83,3.63a15.38,15.38,0,0,0,2.59-2.1c-1,1.62-3.05,4.88-3,5s2.17-1.23,2.1-1.07-2.41,2.94-2,2.94a20.66,20.66,0,0,0,3.16-1.9c-.95,1.51-3.67,5.84-3.61,6s2.39-1.35,2.32-1.18-2.66,3.24-2.22,3.24a23.9,23.9,0,0,0,3.56-2.15l-.1,10.77h1.1l-.2-10.6a20.27,20.27,0,0,0,3.31,2c.43,0-2.15-3.06-2.22-3.24s2.24,1.33,2.32,1.18S418.34,242.83,417.31,241.2Z"/><path class="cls-8" d="M446.6,239v-.09a19.41,19.41,0,0,0,3.06,1.84c.39,0-2-2.78-2-2.94s2,1.21,2.11,1.07-2-3.37-3-5a15.38,15.38,0,0,0,2.59,2.1c.36,0-1.77-3.43-1.83-3.63s1.85,1.49,1.91,1.32-2.18-5-3-6.67a15.1,15.1,0,0,0,2.35,1.93c.3,0-1.47-2.86-1.52-3s1.54,1.24,1.59,1.1-1.91-4.34-2.51-5.65a12.94,12.94,0,0,0,1.91,1.57c.23,0-1.17-2.27-1.21-2.4s1.22,1,1.26.87-2.14-4.8-2.14-4.8-2.18,4.69-2.14,4.8,1.3-1,1.26-.87-1.44,2.4-1.21,2.4a12.94,12.94,0,0,0,1.91-1.57c-.6,1.31-2.55,5.53-2.51,5.65s1.64-1.26,1.59-1.1-1.82,3-1.52,3a15.1,15.1,0,0,0,2.35-1.93c-.78,1.69-3,6.53-3,6.67s2-1.52,1.91-1.32S442.67,236,443,236a15.38,15.38,0,0,0,2.59-2.1c-1,1.61-3.06,4.88-3,5s2.17-1.23,2.11-1.07-2.41,2.94-2,2.94a20.66,20.66,0,0,0,3.16-1.9c-.95,1.5-3.67,5.83-3.61,6s2.39-1.36,2.32-1.18-2.66,3.24-2.23,3.24a24.43,24.43,0,0,0,3.57-2.15l-.11,10.77h1.11l-.2-10.6a21,21,0,0,0,3.31,2c.43,0-2.15-3.07-2.23-3.24s2.25,1.33,2.32,1.18S447.62,240.57,446.6,239Z"/><path class="cls-8" d="M476.17,254.24v-.09a19.41,19.41,0,0,0,3.06,1.84c.4,0-2-2.78-2-2.94s2,1.21,2.11,1.07-2-3.37-3-5a15.38,15.38,0,0,0,2.59,2.1c.36,0-1.77-3.43-1.83-3.63s1.85,1.49,1.91,1.32-2.18-5-3-6.67a15.1,15.1,0,0,0,2.35,1.93c.3,0-1.47-2.86-1.52-3s1.54,1.24,1.59,1.1-1.91-4.34-2.51-5.65a12.94,12.94,0,0,0,1.91,1.57c.23,0-1.17-2.27-1.21-2.4s1.22,1,1.26.87-2.14-4.8-2.14-4.8-2.18,4.69-2.14,4.8,1.3-1,1.26-.87-1.44,2.4-1.21,2.4a12.94,12.94,0,0,0,1.91-1.57c-.6,1.31-2.55,5.53-2.51,5.65s1.64-1.26,1.59-1.1-1.82,3-1.52,3a15.1,15.1,0,0,0,2.35-1.93c-.78,1.69-3,6.53-3,6.67s2-1.52,1.91-1.32-2.19,3.63-1.83,3.63a15.38,15.38,0,0,0,2.59-2.1c-1,1.61-3.06,4.88-3,5s2.17-1.23,2.11-1.07-2.41,2.94-2,2.94a20.66,20.66,0,0,0,3.16-1.9c-.95,1.5-3.67,5.83-3.61,6s2.39-1.36,2.32-1.18-2.66,3.24-2.23,3.24a24.43,24.43,0,0,0,3.57-2.15l-.11,10.77h1.11l-.2-10.6a21,21,0,0,0,3.31,2c.43,0-2.15-3.07-2.23-3.24s2.25,1.33,2.32,1.18S477.19,255.86,476.17,254.24Z"/><path class="cls-8" d="M552.48,260v-.09a19.88,19.88,0,0,0,3.06,1.84c.4,0-1.95-2.78-2-2.94s2,1.2,2.1,1.07-2-3.37-3-5a16.23,16.23,0,0,0,2.59,2.1c.36,0-1.76-3.43-1.82-3.63s1.84,1.49,1.9,1.32-2.18-5-3-6.67a15.08,15.08,0,0,0,2.36,1.93c.29,0-1.47-2.86-1.52-3s1.53,1.24,1.58,1.1-1.9-4.34-2.51-5.65a12.94,12.94,0,0,0,1.91,1.57c.24,0-1.17-2.27-1.21-2.4s1.22,1,1.26.87-2.14-4.8-2.14-4.8-2.17,4.69-2.14,4.8,1.31-1,1.27-.87S549.74,244,550,244a12.94,12.94,0,0,0,1.91-1.57c-.61,1.31-2.56,5.53-2.51,5.65S551,246.8,551,247s-1.82,3-1.52,3a15.08,15.08,0,0,0,2.36-1.93c-.78,1.69-3,6.53-3,6.67s2-1.52,1.9-1.32-2.18,3.63-1.83,3.63a15.38,15.38,0,0,0,2.59-2.1c-1,1.61-3,4.88-3,5s2.17-1.23,2.1-1.07-2.41,2.94-2,2.94a20.66,20.66,0,0,0,3.16-1.9c-1,1.5-3.67,5.83-3.61,6s2.39-1.36,2.32-1.18-2.66,3.23-2.22,3.23a23.7,23.7,0,0,0,3.56-2.14l-.1,10.77h1.1l-.2-10.6a21.26,21.26,0,0,0,3.31,2c.44,0-2.15-3.06-2.22-3.23s2.24,1.33,2.32,1.18S553.51,261.65,552.48,260Z"/><path class="cls-10" d="M289,376.23s-.26-8-2.61-13.77a19.14,19.14,0,0,0-6.85-8.6s5.22,2.59,7.51,7.39,2.93,12,2.93,12,1.27-11.18,0-16.94l-1.27-5.75s1.47,2.35,2.54,8.32a66,66,0,0,1,.44,14,66.78,66.78,0,0,0,2.65-8.25c.58-3,1.81-8.18,1.81-8.18a88.37,88.37,0,0,1-1,10.68c-.78,4.16-1.27,9.08-1.27,9.08Z"/><path class="cls-10" d="M308.73,380.39s-.26-7.95-2.61-13.77a19.14,19.14,0,0,0-6.85-8.6s5.22,2.59,7.51,7.4,2.93,12,2.93,12,1.27-11.18,0-16.94l-1.27-5.75s1.47,2.35,2.54,8.32a66.05,66.05,0,0,1,.44,14,67.14,67.14,0,0,0,2.65-8.26c.58-3,1.81-8.18,1.81-8.18a88.37,88.37,0,0,1-1,10.68c-.78,4.16-1.27,9.08-1.27,9.08Z"/><path class="cls-10" d="M258.61,384.57s-.27-7.95-2.61-13.77a19.12,19.12,0,0,0-6.86-8.6s5.22,2.59,7.51,7.39,2.93,12,2.93,12,1.28-11.18,0-16.94l-1.27-5.75s1.47,2.35,2.55,8.32a66.7,66.7,0,0,1,.44,14,67.37,67.37,0,0,0,2.64-8.25c.59-3,1.81-8.18,1.81-8.18a88.37,88.37,0,0,1-1,10.68c-.78,4.16-1.27,9.08-1.27,9.08Z"/><path class="cls-10" d="M228.91,379a27.28,27.28,0,0,0-1.48-7.81,10.82,10.82,0,0,0-3.89-4.88,10.29,10.29,0,0,1,4.26,4.19,24.29,24.29,0,0,1,1.67,6.83s.72-6.35,0-9.62l-.73-3.27a14.67,14.67,0,0,1,1.45,4.73,37.7,37.7,0,0,1,.25,7.95,37.62,37.62,0,0,0,1.5-4.69c.33-1.69,1-4.64,1-4.64a48.87,48.87,0,0,1-.56,6.06c-.44,2.36-.72,5.15-.72,5.15Z"/><path class="cls-10" d="M218.24,376.23a27.38,27.38,0,0,0-1.48-7.82,11,11,0,0,0-3.89-4.88,10.35,10.35,0,0,1,4.26,4.2,24.46,24.46,0,0,1,1.66,6.82s.73-6.35,0-9.61l-.72-3.27a15,15,0,0,1,1.45,4.72,37.7,37.7,0,0,1,.25,7.95,39.1,39.1,0,0,0,1.5-4.68c.33-1.69,1-4.64,1-4.64a50.17,50.17,0,0,1-.55,6.06c-.45,2.36-.72,5.15-.72,5.15Z"/><path class="cls-10" d="M200.91,376.23a34.57,34.57,0,0,0-1.81-9.75,13.45,13.45,0,0,0-4.76-6.09,12.66,12.66,0,0,1,5.21,5.24,30.68,30.68,0,0,1,2,8.51s.88-7.92,0-12l-.88-4.07a18.46,18.46,0,0,1,1.76,5.89,47.83,47.83,0,0,1,.31,9.92,48.94,48.94,0,0,0,1.83-5.85c.41-2.11,1.26-5.79,1.26-5.79a64.15,64.15,0,0,1-.68,7.56c-.54,2.95-.88,6.43-.88,6.43Z"/><path class="cls-10" d="M208.94,380.83a34.85,34.85,0,0,0-1.82-9.76,13.54,13.54,0,0,0-4.75-6.09,12.8,12.8,0,0,1,5.21,5.24,31.16,31.16,0,0,1,2,8.51s.88-7.92,0-12l-.89-4.08a18.72,18.72,0,0,1,1.77,5.89,47.5,47.5,0,0,1,.3,9.92,48,48,0,0,0,1.84-5.84c.41-2.11,1.25-5.8,1.25-5.8a63.34,63.34,0,0,1-.67,7.57c-.55,2.94-.89,6.43-.89,6.43Z"/><path class="cls-10" d="M183.47,378a34.67,34.67,0,0,0-1.81-9.76,13.54,13.54,0,0,0-4.75-6.09,12.74,12.74,0,0,1,5.2,5.24,30.68,30.68,0,0,1,2,8.51s.88-7.92,0-12l-.88-4.07a18.6,18.6,0,0,1,1.76,5.89,47.83,47.83,0,0,1,.31,9.92,46.72,46.72,0,0,0,1.83-5.84c.41-2.12,1.26-5.8,1.26-5.8a64,64,0,0,1-.68,7.56c-.54,2.95-.88,6.44-.88,6.44Z"/><path class="cls-10" d="M344.21,380.83a34.67,34.67,0,0,0-1.81-9.76,13.52,13.52,0,0,0-4.76-6.09,12.8,12.8,0,0,1,5.21,5.24,31.16,31.16,0,0,1,2,8.51s.88-7.92,0-12l-.89-4.08a18.72,18.72,0,0,1,1.77,5.89,47.83,47.83,0,0,1,.31,9.92,48.57,48.57,0,0,0,1.83-5.84c.41-2.11,1.26-5.8,1.26-5.8a64.26,64.26,0,0,1-.68,7.57c-.55,2.94-.89,6.43-.89,6.43Z"/><path class="cls-10" d="M358.48,380.83a34.67,34.67,0,0,1,1.81-9.76A13.54,13.54,0,0,1,365,365a12.8,12.8,0,0,0-5.21,5.24,31,31,0,0,0-2,8.51s-.89-7.92,0-12l.88-4.08a18.72,18.72,0,0,0-1.77,5.89,48.27,48.27,0,0,0-.3,9.92,48,48,0,0,1-1.84-5.84c-.4-2.11-1.25-5.8-1.25-5.8a62,62,0,0,0,.68,7.57c.54,2.94.88,6.43.88,6.43Z"/><path class="cls-10" d="M328,384.07a34.67,34.67,0,0,1,1.81-9.76,13.52,13.52,0,0,1,4.76-6.09,12.8,12.8,0,0,0-5.21,5.24,31.16,31.16,0,0,0-2,8.51s-.88-7.92,0-12l.89-4.08a18.72,18.72,0,0,0-1.77,5.89,47.5,47.5,0,0,0-.3,9.92,48,48,0,0,1-1.84-5.84c-.41-2.11-1.25-5.8-1.25-5.8a63.34,63.34,0,0,0,.67,7.57c.55,2.94.89,6.43.89,6.43Z"/><path class="cls-10" d="M382.21,376.65a34.67,34.67,0,0,1,1.81-9.76,13.53,13.53,0,0,1,4.76-6.08,12.74,12.74,0,0,0-5.21,5.23,31.16,31.16,0,0,0-2,8.51s-.88-7.92,0-12l.89-4.08a18.72,18.72,0,0,0-1.77,5.89,47.5,47.5,0,0,0-.3,9.92,48,48,0,0,1-1.84-5.84c-.41-2.11-1.25-5.8-1.25-5.8a63.34,63.34,0,0,0,.67,7.57c.55,2.94.89,6.43.89,6.43Z"/><path class="cls-10" d="M400.49,381.57a34.57,34.57,0,0,1,1.81-9.75,13.45,13.45,0,0,1,4.76-6.09,12.72,12.72,0,0,0-5.21,5.24,31.08,31.08,0,0,0-2,8.51s-.88-7.92,0-12l.89-4.08a18.74,18.74,0,0,0-1.77,5.9,47.83,47.83,0,0,0-.31,9.92,48.94,48.94,0,0,1-1.83-5.85c-.41-2.11-1.26-5.79-1.26-5.79a64.15,64.15,0,0,0,.68,7.56c.55,2.95.89,6.43.89,6.43Z"/><path class="cls-10" d="M417.22,375a34.57,34.57,0,0,1,1.81-9.75,13.54,13.54,0,0,1,4.75-6.09,12.72,12.72,0,0,0-5.21,5.24,30.9,30.9,0,0,0-2,8.51s-.89-7.92,0-12l.88-4.07a18.72,18.72,0,0,0-1.77,5.89,48.27,48.27,0,0,0-.3,9.92,47.7,47.7,0,0,1-1.84-5.85c-.4-2.11-1.25-5.79-1.25-5.79a61.75,61.75,0,0,0,.68,7.56c.54,2.95.88,6.43.88,6.43Z"/><path class="cls-10" d="M410.61,379.21a34.57,34.57,0,0,1,1.81-9.75,13.54,13.54,0,0,1,4.75-6.09,12.67,12.67,0,0,0-5.2,5.24,30.68,30.68,0,0,0-2,8.51s-.88-7.92,0-12l.88-4.07a18.6,18.6,0,0,0-1.76,5.89,47.83,47.83,0,0,0-.31,9.92,48.31,48.31,0,0,1-1.83-5.85c-.41-2.11-1.26-5.79-1.26-5.79a64,64,0,0,0,.68,7.56c.54,3,.88,6.43.88,6.43Z"/><path class="cls-10" d="M428.74,378.24a34.57,34.57,0,0,1,1.81-9.75,13.45,13.45,0,0,1,4.76-6.09,12.66,12.66,0,0,0-5.21,5.24,30.68,30.68,0,0,0-2,8.51s-.88-7.92,0-12l.88-4.07a18.6,18.6,0,0,0-1.76,5.89,47.83,47.83,0,0,0-.31,9.92A48.31,48.31,0,0,1,425,370c-.41-2.11-1.26-5.79-1.26-5.79a64,64,0,0,0,.68,7.56c.54,2.95.88,6.43.88,6.43Z"/><path class="cls-10" d="M436.65,375a34.57,34.57,0,0,1,1.81-9.75,13.54,13.54,0,0,1,4.75-6.09,12.67,12.67,0,0,0-5.2,5.24,30.68,30.68,0,0,0-2,8.51s-.88-7.92,0-12l.88-4.07a18.6,18.6,0,0,0-1.76,5.89,47.83,47.83,0,0,0-.31,9.92,48.31,48.31,0,0,1-1.83-5.85c-.41-2.11-1.26-5.79-1.26-5.79a64,64,0,0,0,.68,7.56c.54,2.95.88,6.43.88,6.43Z"/><path class="cls-10" d="M444.62,379.21a34.57,34.57,0,0,1,1.81-9.75,13.54,13.54,0,0,1,4.75-6.09,12.72,12.72,0,0,0-5.21,5.24,30.9,30.9,0,0,0-2,8.51s-.89-7.92,0-12l.88-4.07a18.72,18.72,0,0,0-1.77,5.89,48.27,48.27,0,0,0-.3,9.92,47.7,47.7,0,0,1-1.84-5.85c-.4-2.11-1.25-5.79-1.25-5.79a61.75,61.75,0,0,0,.68,7.56c.54,3,.88,6.43.88,6.43Z"/><path class="cls-10" d="M473.27,381.57a34.57,34.57,0,0,1,1.81-9.75,13.45,13.45,0,0,1,4.76-6.09,12.66,12.66,0,0,0-5.21,5.24,30.68,30.68,0,0,0-2,8.51s-.88-7.92,0-12l.88-4.08a19,19,0,0,0-1.76,5.9,47.83,47.83,0,0,0-.31,9.92,48.94,48.94,0,0,1-1.83-5.85c-.41-2.11-1.26-5.79-1.26-5.79a64.15,64.15,0,0,0,.68,7.56c.55,2.95.89,6.43.89,6.43Z"/><path class="cls-10" d="M491.48,374.08a34.57,34.57,0,0,1,1.81-9.75,13.45,13.45,0,0,1,4.76-6.09,12.72,12.72,0,0,0-5.21,5.24,31.08,31.08,0,0,0-2,8.51s-.88-7.92,0-12l.89-4.07a18.58,18.58,0,0,0-1.77,5.89,47.83,47.83,0,0,0-.31,9.92,48.94,48.94,0,0,1-1.83-5.85c-.41-2.11-1.26-5.79-1.26-5.79a64.15,64.15,0,0,0,.68,7.56c.55,3,.89,6.43.89,6.43Z"/><path class="cls-10" d="M516.2,378.24a34.57,34.57,0,0,1,1.81-9.75,13.45,13.45,0,0,1,4.76-6.09,12.72,12.72,0,0,0-5.21,5.24,31.08,31.08,0,0,0-2,8.51s-.88-7.92,0-12l.89-4.07a18.72,18.72,0,0,0-1.77,5.89,47.83,47.83,0,0,0-.31,9.92A48.31,48.31,0,0,1,512.5,370c-.41-2.11-1.26-5.79-1.26-5.79a64,64,0,0,0,.68,7.56c.55,2.95.89,6.43.89,6.43Z"/><path class="cls-10" d="M535.22,381.57a34.57,34.57,0,0,1,1.81-9.75,13.45,13.45,0,0,1,4.76-6.09,12.72,12.72,0,0,0-5.21,5.24,31.08,31.08,0,0,0-2,8.51s-.88-7.92,0-12l.89-4.08a18.74,18.74,0,0,0-1.77,5.9,47.83,47.83,0,0,0-.31,9.92,48.94,48.94,0,0,1-1.83-5.85c-.41-2.11-1.26-5.79-1.26-5.79a64.15,64.15,0,0,0,.68,7.56c.55,2.95.89,6.43.89,6.43Z"/><path class="cls-10" d="M561,377.2a34.57,34.57,0,0,1,1.81-9.75,13.47,13.47,0,0,1,4.75-6.09,12.72,12.72,0,0,0-5.21,5.24,30.9,30.9,0,0,0-2,8.51s-.89-7.92,0-12l.88-4.07a18.72,18.72,0,0,0-1.77,5.89,48.27,48.27,0,0,0-.3,9.92,47.7,47.7,0,0,1-1.84-5.85c-.4-2.11-1.25-5.79-1.25-5.79a61.75,61.75,0,0,0,.68,7.56c.54,3,.88,6.43.88,6.43Z"/><path class="cls-11" d="M639.7,398.9s-22.18-40-42.67-59.58c-22.12-21.08-55.4-29.95-58.91-5.54-1.62,11.2,16,33.56,31.89,48.54s23.9,16.58,23.9,16.58Z"/><path class="cls-12" d="M633.39,399.66s-30.34-35.44-52.66-52.36-34.81-17.75-34.81-17.75,19.37,3.72,46.34,30.2,38.32,39.91,38.32,39.91Z"/><ellipse class="cls-13" cx="410.8" cy="29.59" rx="13.99" ry="16.95"/></g></g></svg>