<svg id="Layer_1" data-name="Layer 1" xmlns="http://www.w3.org/2000/svg" viewBox="0 0 848.9 640.88"><defs><style>.cls-1{fill:#829386;}.cls-1,.cls-10,.cls-11,.cls-12,.cls-13,.cls-14,.cls-15,.cls-16,.cls-17,.cls-18,.cls-19,.cls-2,.cls-20,.cls-21,.cls-22,.cls-23,.cls-24,.cls-25,.cls-26,.cls-27,.cls-28,.cls-29,.cls-3,.cls-30,.cls-31,.cls-32,.cls-33,.cls-34,.cls-35,.cls-36,.cls-37,.cls-38,.cls-39,.cls-4,.cls-40,.cls-41,.cls-42,.cls-43,.cls-44,.cls-45,.cls-46,.cls-47,.cls-48,.cls-49,.cls-5,.cls-50,.cls-51,.cls-52,.cls-53,.cls-54,.cls-55,.cls-56,.cls-57,.cls-58,.cls-59,.cls-6,.cls-60,.cls-61,.cls-62,.cls-63,.cls-64,.cls-65,.cls-66,.cls-67,.cls-68,.cls-69,.cls-7,.cls-70,.cls-8,.cls-9{fill-rule:evenodd;}.cls-2{fill:#ffe583;}.cls-3{fill:#fedd73;}.cls-4{fill:#deab70;}.cls-5{fill:#fcedf4;}.cls-6{fill:#d8dff0;}.cls-7{fill:#e4e4f2;}.cls-8{fill:#cad8d3;}.cls-9{fill:#00403e;}.cls-10{fill:#e7dd8c;}.cls-11{fill:#dca395;}.cls-12{fill:#a5824e;}.cls-13{fill:#e3bb80;}.cls-14{fill:#48464b;}.cls-15{fill:#e2c5c1;}.cls-16{fill:#778576;}.cls-17{fill:#c6d6d5;}.cls-18{fill:#dcd79c;}.cls-19{fill:#40aec4;}.cls-20{fill:#99c8eb;}.cls-21{fill:#8abdaa;}.cls-22{fill:#75b598;}.cls-23{fill:#fdebd8;}.cls-24{fill:#dfa495;}.cls-25{fill:#7d7d86;}.cls-26{fill:#ac864f;}.cls-27{fill:#e3b85f;}.cls-28{fill:#d9c262;}.cls-29{fill:#afaa88;}.cls-30{fill:#e4e4f0;}.cls-31{fill:#e8dc75;}.cls-32{fill:#bdd5ee;}.cls-33{fill:#7691c7;}.cls-34{fill:#e4e4ee;}.cls-35{fill:#4d6b91;}.cls-36{fill:#f1e47a;}.cls-37{fill:#edc855;}.cls-38{fill:#f2e25a;}.cls-39{fill:#fff593;}.cls-40{fill:#ccd9e3;}.cls-41{fill:#e6e0c1;}.cls-42{fill:#aeaeb9;}.cls-43{fill:#95b1a8;}.cls-44{fill:#e7dd8a;}.cls-45{fill:#65b8e4;}.cls-46{fill:#877d95;}.cls-47{fill:#a193c5;}.cls-48{fill:#7c7443;}.cls-49{fill:#a18244;}.cls-50{fill:#e8db67;}.cls-51{fill:#e4e3e9;}.cls-52{fill:#8bb065;}.cls-53{fill:#cacf69;}.cls-54{fill:#86c5ec;}.cls-55{fill:#f4f195;}.cls-56{fill:#c0e5f9;}.cls-57{fill:#e1eecb;}.cls-58{fill:#9dd4cc;}.cls-59{fill:#f1f9fe;}.cls-60{fill:#e0a159;}.cls-61{fill:#e7dd8d;}.cls-62{fill:#ccb86a;}.cls-63{fill:#e3e3f2;}.cls-64{fill:#a8925d;}.cls-65{fill:#7f858b;}.cls-66{fill:#7ba69f;}.cls-67{fill:#0075bf;}.cls-68{fill:#00a0e1;}.cls-69{fill:#9bc8eb;}.cls-70{fill:#e5e2d2;}</style></defs><path class="cls-1" d="M169.74,614.36h-3.62v-12H122.39V583h31.69a15.71,15.71,0,0,1,15.66,15.67v15.67Z"/><polygon class="cls-2" points="421.06 334.6 439.86 334.6 420.93 311.28 421.06 334.6 421.06 334.6"/><polygon class="cls-2" points="411.01 338.04 429.81 335 410.88 311.68 411.01 338.04 411.01 338.04"/><path class="cls-2" d="M433,324.33h-8.31a13.59,13.59,0,0,0-13.7,13.4v13.4h22v-26.8Z"/><path class="cls-2" d="M383.92,342.7H368.75a27.24,27.24,0,0,0-27.16,27.15v13.37h15.18V369.85a27.23,27.23,0,0,1,27.15-27.15Z"/><path class="cls-3" d="M411,342.63H382.64A21.92,21.92,0,0,0,372.45,384v-3.07A23.5,23.5,0,0,1,411,362.8V342.63Z"/><path class="cls-3" d="M411,342.63V362.8a23.58,23.58,0,0,1,8.35,15.32A22,22,0,0,0,433,357.82V342.63Z"/><path class="cls-2" d="M416.62,395.7H404.84V381a8.86,8.86,0,0,0-17.72,0V395.7H375.34c0-4.51,0-10.84,0-15.35,0-.17,0-.35,0-.52A20.71,20.71,0,0,1,396,360.25h0a20.71,20.71,0,0,1,20.62,19.58c0,.35,0,.7,0,1.05V395.7Z"/><path class="cls-3" d="M423.47,324.33H433v31.61h-19.1V333.88a9.58,9.58,0,0,1,9.55-9.55Z"/><path class="cls-4" d="M426.5,344.67H443a10.2,10.2,0,0,0,10.17-10.17h0A10.2,10.2,0,0,0,443,324.33H426.5a10.2,10.2,0,0,0-10.17,10.17h0a10.2,10.2,0,0,0,10.17,10.17Z"/><path class="cls-5" d="M430.83,327.39a4.41,4.41,0,1,1-4.4,4.41,4.4,4.4,0,0,1,4.4-4.41Z"/><path class="cls-1" d="M104,615.87v5.34a3.67,3.67,0,0,0,3.66,3.65h0a3.66,3.66,0,0,0,3.65-3.65V610.15a3.67,3.67,0,0,1,3.66-3.66h0a3.67,3.67,0,0,1,3.65,3.66v11a3.67,3.67,0,0,0,3.66,3.66h0a3.67,3.67,0,0,0,3.65-3.66V610.09a3.66,3.66,0,0,1,3.65-3.65c4.88,0,9.75,0,14.62,0a3.67,3.67,0,0,1,3.65,3.66v11a3.67,3.67,0,0,0,3.66,3.66h0a3.67,3.67,0,0,0,3.65-3.66V610.09a3.67,3.67,0,0,1,3.66-3.65h0a3.66,3.66,0,0,1,3.65,3.65v11.06a3.67,3.67,0,0,0,3.65,3.66h0a3.67,3.67,0,0,0,3.66-3.66v-5.3A33,33,0,0,0,136.88,583h0A33,33,0,0,0,104,615.87Z"/><polygon class="cls-1" points="104.06 588.58 124.05 588.58 124.05 602.35 108.74 602.35 108.74 613.95 104.06 613.95 104.06 588.58 104.06 588.58"/><path class="cls-1" d="M169.85,570.63h0a2,2,0,0,1,.83,2.76l-10.14,18.9L157,590.37l10.14-18.9a2,2,0,0,1,2.75-.84Z"/><path class="cls-6" d="M115,566.34c10.23,0,25.31,13.16,18.53,22.44L115,614.1,96.44,588.78c-6.79-9.28,8.29-22.44,18.53-22.44Z"/><path class="cls-7" d="M101,575.79h0a3.36,3.36,0,0,1,4.75,0l7.65,7.65-4.75,4.76L101,580.54a3.36,3.36,0,0,1,0-4.75Z"/><path class="cls-7" d="M129,575.79h0a3.37,3.37,0,0,0-4.76,0l-7.65,7.65,4.76,4.76,7.65-7.66a3.36,3.36,0,0,0,0-4.75Z"/><path class="cls-8" d="M106.07,590a7.36,7.36,0,0,1,3.17-14h11.45a7.36,7.36,0,0,1,3.17,14v3.27a8.92,8.92,0,0,1-8.89,8.89h0a8.92,8.92,0,0,1-8.9-8.89V590Z"/><path class="cls-9" d="M113.8,591.34h2.33c.71,0,1.57.63,1.29,1.29-1.13,2.67-3.75,2.65-4.91,0-.28-.65.58-1.29,1.29-1.29Z"/><path class="cls-7" d="M111.49,584.19a2.28,2.28,0,1,1-2.28,2.28,2.28,2.28,0,0,1,2.28-2.28Z"/><path class="cls-7" d="M118.45,584.19a2.28,2.28,0,1,1-2.29,2.28,2.29,2.29,0,0,1,2.29-2.28Z"/><path class="cls-6" d="M172.53,565.29c4.82,21.27-20.09,8.46,0,0Z"/><path class="cls-10" d="M805.53,359.59h3.77V346.23a18,18,0,0,1,17.91-17.91h0a18,18,0,0,1,17.91,17.91v13.36h3.78V330.48a21.75,21.75,0,0,0-21.69-21.69l-25.38-47.33L797,264.67v.06a531.26,531.26,0,0,1,8.51,94.86Z"/><path class="cls-11" d="M805.53,359.59h3.77v-.48a3.09,3.09,0,0,0-1.82-.59,3,3,0,0,0-2,.71v.36Zm3.77-2.31v-4.63a3.06,3.06,0,0,0,0,4.63Zm0-6v-4.95a3,3,0,0,0-1.82-.6,3.07,3.07,0,0,0-2.11.85c0,1.51.06,3,.09,4.53a3,3,0,0,0,2,.76,3.09,3.09,0,0,0,1.82-.59Zm.08-6.72a17.45,17.45,0,0,1,1.38-5.4,3.06,3.06,0,0,0-1.38,5.4Zm2.8-8.07a18.39,18.39,0,0,1,3-3.52,3.07,3.07,0,0,0-3,3.07,3.29,3.29,0,0,0,0,.45Zm4.71-4.9a17.89,17.89,0,0,1,5.21-2.54,3.07,3.07,0,1,0-5.21,2.54Zm6.93-3a18,18,0,0,1,3.39-.32h0a17.11,17.11,0,0,1,2.5.18,3.07,3.07,0,0,0-5.89.14Zm7.69.21a17.78,17.78,0,0,1,5.49,2.4,3.07,3.07,0,1,0-5.49-2.4Zm7.9,4.3a18.3,18.3,0,0,1,2,2.21,3.06,3.06,0,0,0-2-2.21Zm4.41,6.4a17.67,17.67,0,0,1,1.12,4.15,3.08,3.08,0,0,0-1.12-4.15Zm1.3,6.39v5.77a3.09,3.09,0,0,0,3.78-1.48v-2.82a3.06,3.06,0,0,0-3.78-1.47Zm0,7.91v2.23a3,3,0,0,0,.21-1.12,2.92,2.92,0,0,0-.21-1.11Zm0,4.85v.89h3.38a3.09,3.09,0,0,0-3.38-.89Zm3.78-.87V352.1a3.07,3.07,0,0,0,0,5.73Zm0-12.77v-5.73a3.07,3.07,0,0,0,0,5.73Zm0-7.59v-2.82a3.07,3.07,0,1,0,0,2.82Zm0-5.17v-1.82a22.09,22.09,0,0,0-.33-3.76,3,3,0,0,0-1.64,2.71,3.08,3.08,0,0,0,2,2.87Zm-.59-6.81a21.5,21.5,0,0,0-2-5.27h-.13a3.07,3.07,0,1,0,2.14,5.27Zm-3.33-7.4a21.67,21.67,0,0,0-3.91-4.26,3.07,3.07,0,1,0,3.91,4.26Zm-4.85-5a21.74,21.74,0,0,0-4.77-2.7v.14a3.07,3.07,0,0,0,4.77,2.56Zm-6.46-3.31a21.43,21.43,0,0,0-5.52-1,3.06,3.06,0,1,0,5.52,1Zm-7.46-2.86-2.26-4.2a3.09,3.09,0,0,0,2.26,4.2Zm-3.27-6.09-2.55-4.75a3,3,0,0,0-.5,1.68,3.07,3.07,0,0,0,3.05,3.07Zm-3.56-6.64-2.69-5a3.07,3.07,0,0,0,2.36,5ZM816,288l-2.84-5.28a3.08,3.08,0,0,0,2,5.39A3.18,3.18,0,0,0,816,288Zm-3.61-6.73-2.88-5.37a3.07,3.07,0,0,0,1.76,5.58,3,3,0,0,0,1.12-.21ZM809,274.89l-2.9-5.41a3.07,3.07,0,1,0,2.9,5.41Zm-3.64-6.8-2.88-5.36a3.07,3.07,0,1,0,2.88,5.36Zm-3.46-6.45-.09-.18-1.53,1a3.09,3.09,0,0,0,1.62-.84Zm-3.59,2.16-1.31.87v.06c.21,1.12.41,2.25.6,3.37a3.06,3.06,0,0,0,1.29-2.5,3.12,3.12,0,0,0-.58-1.8Zm-.42,6q.47,2.69.9,5.38a2.89,2.89,0,0,0,.94.15,3.07,3.07,0,1,0-1.84-5.53Zm1.94,12.16q.43,3,.85,6a3.07,3.07,0,0,0-.85-6Zm1.07,7.66c.17,1.24.32,2.47.48,3.71a3.07,3.07,0,1,0-.48-3.71Zm.73,5.76c.18,1.44.35,2.87.51,4.31a3.07,3.07,0,0,0-.51-4.31Zm.67,5.75q.31,2.89.6,5.8a2.9,2.9,0,0,0,.66.07,3.07,3.07,0,1,0-1.26-5.87Zm1.23,12.5c.17,2,.34,4.06.49,6.1a3.07,3.07,0,0,0-.46-6.1Zm1,12.9q.18,2.87.33,5.74a3.08,3.08,0,0,0-.33-5.74Zm.43,7.85c.06,1.21.11,2.42.16,3.63a3.07,3.07,0,1,0-.16-3.63Zm.22,5.21c.07,1.72.12,3.44.17,5.17a3.07,3.07,0,0,0-.17-5.17Zm.33,13c0,1.6,0,3.19,0,4.79a3.07,3.07,0,0,0,0-4.79Zm32.95-32.33a3.07,3.07,0,1,1-3.07,3.07,3.07,3.07,0,0,1,3.07-3.07Zm-7.74,0a3.07,3.07,0,1,1-3.07,3.07,3.07,3.07,0,0,1,3.07-3.07Zm-7.73,0a3.07,3.07,0,1,1-3.07,3.07,3.08,3.08,0,0,1,3.07-3.07Zm-7.74,0a3.07,3.07,0,1,1-3.07,3.07,3.07,3.07,0,0,1,3.07-3.07Zm-7.74,0a3.07,3.07,0,1,1-3.07,3.07,3.08,3.08,0,0,1,3.07-3.07Zm34.78,6.14a3.07,3.07,0,1,1-3.07,3.07,3.07,3.07,0,0,1,3.07-3.07Zm-31,0a3.07,3.07,0,1,1-3.07,3.07,3.08,3.08,0,0,1,3.07-3.07ZM823,307.46a3.07,3.07,0,1,1-3.07,3.07,3.07,3.07,0,0,1,3.07-3.07Zm-7.74,0a3.07,3.07,0,1,1-3.07,3.07,3.06,3.06,0,0,1,3.07-3.07Zm-7.74,0a3.07,3.07,0,1,1-3.07,3.07,3.07,3.07,0,0,1,3.07-3.07Zm27,6.14a3.07,3.07,0,1,1-3.07,3.07,3.07,3.07,0,0,1,3.07-3.07Zm-7.74,0a3.07,3.07,0,1,1-3.07,3.07,3.07,3.07,0,0,1,3.07-3.07Zm-7.74,0a3.07,3.07,0,1,1-3.07,3.07,3.06,3.06,0,0,1,3.07-3.07Zm-7.74,0a3.07,3.07,0,1,1-3.07,3.07,3.07,3.07,0,0,1,3.07-3.07Zm3.91-18.91a3.07,3.07,0,1,1-3.07,3.07,3.07,3.07,0,0,1,3.07-3.07Zm-7.74,0a3.07,3.07,0,1,1-3.07,3.07,3.08,3.08,0,0,1,3.07-3.07Zm11.57,6.14A3.07,3.07,0,1,1,816,303.9a3.06,3.06,0,0,1,3.07-3.07Zm-7.74,0a3.07,3.07,0,1,1-3.07,3.07,3.07,3.07,0,0,1,3.07-3.07Zm-3.83-18.9a3.07,3.07,0,1,1-3.07,3.07,3.07,3.07,0,0,1,3.07-3.07Zm3.83,6.13a3.07,3.07,0,1,1-3.07,3.07,3.08,3.08,0,0,1,3.07-3.07Zm-7.73-12.76a3.07,3.07,0,1,1-3.07,3.07,3.07,3.07,0,0,1,3.07-3.07Z"/><polygon class="cls-12" points="783.94 239.37 786.97 238.95 789.03 254.03 786 254.44 783.94 239.37 783.94 239.37"/><path class="cls-10" d="M785.08,236.38a2.8,2.8,0,1,1-2.4,3.16,2.8,2.8,0,0,1,2.4-3.16Z"/><polygon class="cls-12" points="797.75 239.37 794.72 238.95 792.66 254.03 795.69 254.44 797.75 239.37 797.75 239.37"/><path class="cls-10" d="M796.61,236.38a2.8,2.8,0,1,0,2.4,3.16,2.8,2.8,0,0,0-2.4-3.16Z"/><path class="cls-12" d="M782.54,259.25A10.84,10.84,0,0,1,772,248.73a10.84,10.84,0,0,1,10.52,10.52Z"/><path class="cls-12" d="M809.67,248.73a10.84,10.84,0,0,0-10.52,10.52,10.84,10.84,0,0,0,10.52-10.52Z"/><path class="cls-13" d="M780.77,265.72l7.4,16.36a3,3,0,0,0,5.35,0l7.4-16.36c1-2.21,1.47-4.68,0-6.46l-7.4-8.92a3.36,3.36,0,0,0-5.35,0l-7.4,8.92c-1.47,1.78-1,4.25,0,6.46Z"/><path class="cls-12" d="M786,282.75l3.57-6.54a1.59,1.59,0,0,1,2.58,0l3.56,6.54c.48.88.71,1.87,0,2.58l-3.56,3.57a1.83,1.83,0,0,1-2.58,0L786,285.33c-.71-.71-.48-1.7,0-2.58Z"/><path class="cls-14" d="M785.76,259.92a2.39,2.39,0,1,1-2.39,2.39,2.39,2.39,0,0,1,2.39-2.39Z"/><path class="cls-14" d="M795.94,259.92a2.39,2.39,0,1,1-2.39,2.39,2.39,2.39,0,0,1,2.39-2.39Z"/><path class="cls-15" d="M93.54,78.49V62.34a2.56,2.56,0,1,1,5.11,0V78.49a2.56,2.56,0,0,0,5.11,0c0-4-5.56-15.32,0-15.31h2.38c5.55,0,0,11.35,0,15.31a2.55,2.55,0,0,0,5.1,0V62.34a2.56,2.56,0,1,1,5.11,0V78.49a2.55,2.55,0,0,0,5.1,0c0-4-5.55-15.32,0-15.31h47.26a5.8,5.8,0,0,0,5.78-5.79V50a5.8,5.8,0,0,0-5.78-5.78H158.22v-.34a12,12,0,0,0-12-12H63a2.56,2.56,0,0,0,0,5.11h7.26A16.83,16.83,0,0,1,85.71,52.49V63.18h2.73c5.55,0,0,11.35,0,15.31a2.55,2.55,0,0,0,5.1,0Z"/><path class="cls-7" d="M144.3,37.64a8.19,8.19,0,1,0,8.19,8.19,8.19,8.19,0,0,0-8.19-8.19Z"/><path class="cls-16" d="M144.3,41.48a4.35,4.35,0,1,0,4.34,4.35,4.35,4.35,0,0,0-4.34-4.35Z"/><path class="cls-17" d="M144.65,31.94h-9.4V26.8a4.71,4.71,0,0,1,4.7-4.7h0a4.72,4.72,0,0,1,4.7,4.7v5.14Z"/><path class="cls-17" d="M132,31.94h-9.4V26.8a4.71,4.71,0,0,1,4.7-4.7h0a4.72,4.72,0,0,1,4.7,4.7v5.14Z"/><path class="cls-7" d="M89.08,31.94h3.74V44.86A1.87,1.87,0,0,1,91,46.72h0a1.87,1.87,0,0,1-1.87-1.86V31.94Z"/><path class="cls-7" d="M96.06,31.94h3.73V44.86a1.87,1.87,0,0,1-1.86,1.86h0a1.87,1.87,0,0,1-1.87-1.86V31.94Z"/><path class="cls-7" d="M103,31.94h3.73V44.86a1.87,1.87,0,0,1-1.87,1.86h0A1.87,1.87,0,0,1,103,44.86V31.94Z"/><path class="cls-7" d="M110,31.94h3.74V44.86a1.87,1.87,0,0,1-1.87,1.86h0A1.87,1.87,0,0,1,110,44.86V31.94Z"/><path class="cls-7" d="M117,31.94h3.73V44.86a1.87,1.87,0,0,1-1.86,1.86h0A1.87,1.87,0,0,1,117,44.86V31.94Z"/><polygon class="cls-18" points="276.3 54.89 276.32 47.04 268.77 50.63 276.3 54.89 276.3 54.89"/><path class="cls-19" d="M300.49,48.5l-.1-.08a12.19,12.19,0,0,0-12.16-12.16h0a12.26,12.26,0,0,0-12.17,12.16c-.64,44.81,35.37,36.21,60.06,55.9-8.42-13.58-9.2-24.22-7.82-34.23C314.68,84,301,80.84,295.42,72.29c-4.22-6.49-3.73-16.11,5.07-23.79Z"/><path class="cls-7" d="M285.27,42.43a5.78,5.78,0,1,1-5.78,5.77,5.77,5.77,0,0,1,5.78-5.77Z"/><path class="cls-20" d="M340.6,40.41c-7.7,22.19-14.6,31.73-23.36,35.8s-16.8,1.1-20.56-4.68c-4-6.14-3.3-15.38,5.8-22.46,7.4-5.75,17.55-8.6,38.12-8.66Z"/><path class="cls-16" d="M285.27,44.12a4.09,4.09,0,1,1-4.09,4.08,4.08,4.08,0,0,1,4.09-4.08Z"/><path class="cls-21" d="M556.51,213.85c-15.24-.06-27.19,11.92-27.19,26v52.3a4.05,4.05,0,0,0,8.1,0v-26a4.22,4.22,0,0,1,4.13-3.39c2.93-.1,4.28,2.38,4.25,4.89l.12,39.21h15.72V285.54c0-8.75,7.49-15.9,16.64-15.9H593.1c9.14,0,16.63,7.16,16.63,15.9v21.34h15.39V265.32a1.27,1.27,0,0,1,2.53,0v16.87h3.53V240.44c0-14.63-12.51-26.59-27.8-26.59Z"/><path class="cls-22" d="M572.7,215.76h0c-9.75,0-17.73,7.63-17.73,17v30.67h0c0,.16,0,.31,0,.47a7.76,7.76,0,0,0,15.5,0c0-1.12-.05-2.24-.05-3.4.48-18,20-1.57,20-27.74,0-9.32-8-17-17.73-17Z"/><path class="cls-23" d="M546.05,239h0a4.19,4.19,0,0,0-5.73,0l-5.66,5.42a3.75,3.75,0,0,0,0,5.47h0a4.18,4.18,0,0,0,5.72,0l5.67-5.42a3.77,3.77,0,0,0,0-5.47Z"/><path class="cls-24" d="M548.56,27c-46.34-7.25-16.89,43.76,0,0Z"/><path class="cls-24" d="M548.56,17.93c-46.34,7.26-16.89-43.76,0,0Z"/><path class="cls-15" d="M480,31.83l-3.44,6a5.95,5.95,0,0,1-10.3-5.94c6.38-11,6.38-7.7,0-18.74a5.95,5.95,0,0,1,10.3-5.95l3.44,6c12.28,21.25,43.83-29.44,91.9,9.35C523.85,61.27,492.3,10.58,480,31.83Z"/><path class="cls-7" d="M548.85,33.56a11.08,11.08,0,1,1,11.08-11.07,11.07,11.07,0,0,1-11.08,11.07Z"/><path class="cls-25" d="M548.85,28.63A6.15,6.15,0,1,1,555,22.49a6.14,6.14,0,0,1-6.15,6.14Z"/><path class="cls-26" d="M113.57,140.64H73.9c-24.31,0-32.71,39.07-32.41,39.63H69.7A9.27,9.27,0,0,1,79,189.52v5.06h13v-7.13a12.35,12.35,0,0,1,12.32-12.31h0a12.36,12.36,0,0,1,12.32,12.31v7a27,27,0,0,0-3-53.78Z"/><polygon class="cls-26" points="129.52 167.61 116.56 167.61 116.56 183.71 116.56 193.7 116.56 195.12 129.52 195.12 129.52 167.61 129.52 167.61"/><polygon class="cls-26" points="91.92 173.06 78.95 173.06 78.95 189.52 78.95 195.12 91.92 195.12 91.92 194.13 91.92 184.42 91.92 173.06 91.92 173.06"/><path class="cls-27" d="M69.16,120.67h5.91A5.93,5.93,0,0,1,81,126.59v5.91H75.07a5.93,5.93,0,0,1-5.91-5.91v-5.92Z"/><polygon class="cls-27" points="80.99 132.5 77.06 132.5 77.06 140.76 80.99 140.76 80.99 132.5 80.99 132.5"/><path class="cls-27" d="M2,140.76a39.35,39.35,0,0,0,7.29,22.88H24.83a3.77,3.77,0,0,1,3.76,3.76h0a3.77,3.77,0,0,1-3.76,3.76H16.26A39.51,39.51,0,0,0,81,140.76H2Z"/><path class="cls-27" d="M2,140.76a39.53,39.53,0,0,1,26.75-37.4v37.4Z"/><path class="cls-26" d="M32.15,140.76A21.63,21.63,0,0,1,46.8,120.29v20.47Z"/><path class="cls-7" d="M53.59,145a9.5,9.5,0,1,0,9.5,9.5,9.5,9.5,0,0,0-9.5-9.5Z"/><path class="cls-28" d="M59.82,297.91h0A27.29,27.29,0,0,1,87,325.11v38.75H80.71V326.45a21,21,0,0,0-20.89-20.88h0a21,21,0,0,0-20.88,20.88v37.41H32.62V325.11a27.28,27.28,0,0,1,27.2-27.2Z"/><path class="cls-28" d="M44.85,304.23H74.8v59.63H69.17V347a9.37,9.37,0,0,0-9.35-9.34h0A9.36,9.36,0,0,0,50.48,347v16.87H44.85V304.23Z"/><path class="cls-29" d="M39.44,283H80.2a9.58,9.58,0,0,1,9.55,9.55h0a9.58,9.58,0,0,1-9.55,9.55H39.44a9.58,9.58,0,0,1-9.55-9.55h0A9.58,9.58,0,0,1,39.44,283Z"/><path class="cls-30" d="M39.44,286.79H80.2a5.73,5.73,0,0,1,5.71,5.71h0a5.73,5.73,0,0,1-5.71,5.71H39.44a5.73,5.73,0,0,1-5.71-5.71h0a5.73,5.73,0,0,1,5.71-5.71Z"/><path class="cls-31" d="M59.82,272.64h0A20.74,20.74,0,0,1,80.5,293.32h0A20.73,20.73,0,0,1,59.82,314h0a20.74,20.74,0,0,1-20.68-20.68h0a20.75,20.75,0,0,1,20.68-20.68Z"/><path class="cls-31" d="M59.82,286.12h0A12.2,12.2,0,0,1,72,298.28v11.54A12.19,12.19,0,0,1,59.82,322h0a12.19,12.19,0,0,1-12.16-12.16V298.28a12.2,12.2,0,0,1,12.16-12.16Z"/><path class="cls-30" d="M59.82,286.49h0A9.16,9.16,0,0,1,69,295.63V309.7a9.16,9.16,0,0,1-9.14,9.13h0a9.17,9.17,0,0,1-9.14-9.13V295.63a9.17,9.17,0,0,1,9.14-9.14Z"/><path class="cls-30" d="M52.4,283.24a9.82,9.82,0,1,1-9.82,9.82,9.82,9.82,0,0,1,9.82-9.82Z"/><path class="cls-30" d="M67.24,283.24a9.82,9.82,0,1,1-9.82,9.82,9.82,9.82,0,0,1,9.82-9.82Z"/><path class="cls-16" d="M52.4,288.32a4.74,4.74,0,1,1-4.74,4.74,4.74,4.74,0,0,1,4.74-4.74Z"/><path class="cls-16" d="M67.24,288.32a4.74,4.74,0,1,1-4.74,4.74,4.74,4.74,0,0,1,4.74-4.74Z"/><path class="cls-17" d="M57.35,299.9h0a1.73,1.73,0,0,1,1.72,1.72v2.89a1.72,1.72,0,0,1-1.72,1.71h0a1.72,1.72,0,0,1-1.72-1.71v-2.89a1.73,1.73,0,0,1,1.72-1.72Z"/><path class="cls-17" d="M62.3,299.9h0A1.72,1.72,0,0,1,64,301.62v2.89a1.72,1.72,0,0,1-1.71,1.71h0a1.72,1.72,0,0,1-1.72-1.71v-2.89a1.73,1.73,0,0,1,1.72-1.72Z"/><path class="cls-32" d="M261.14,171.56c12.1.68,21.68,10.13,21.68,21.68s-9.58,21-21.68,21.67V171.56Z"/><path class="cls-32" d="M266.8,200.22h11.78v9.6c0,6.16,5.36,11.19,11.9,11.19h13c13.7,0,24.91,10.54,24.91,23.43v61h-9V287.8c0-20.13-17.51-36.6-38.92-36.6h-1.93V231.57H266.8V200.22Zm3.36,105.23h-8.11v-20.8a41.35,41.35,0,0,0-14.7-31.38v-4h22.81v56.13Z"/><polygon class="cls-32" points="257.32 175.79 249.11 175.79 253.22 162.87 257.32 175.79 257.32 175.79"/><polygon class="cls-32" points="263.13 175.79 254.92 175.79 259.02 162.87 263.13 175.79 263.13 175.79"/><path class="cls-33" d="M249.32,176.43l.71-.77h12.81a25.5,25.5,0,0,1,15.24,18,22.11,22.11,0,0,1,.5,4.82v11.49c0,6.1,5.33,11.09,11.82,11.09h12a31,31,0,0,1,.8,7c0,17.88-15.4,32.36-34.4,32.36S234.35,245.88,234.35,228a31.83,31.83,0,0,1,15-26.7V176.43Z"/><path class="cls-34" d="M249.32,176.43l.18-.2a2.48,2.48,0,0,1-.18,4.58v-4.38Zm15.27,0a27.33,27.33,0,0,1,4.24,2.68,2.67,2.67,0,0,1-2.6,1.87,2.63,2.63,0,0,1-2.7-2.54,2.48,2.48,0,0,1,1.06-2Zm9.2,7.72a24.32,24.32,0,0,1,2.63,4.42,2.81,2.81,0,0,1-1.2.26,2.62,2.62,0,0,1-2.7-2.53,2.49,2.49,0,0,1,1.27-2.15ZM290.66,221h5.08a2.75,2.75,0,0,1-5.08,0Zm12.48,5.83c0,.39,0,.77,0,1.16a29.48,29.48,0,0,1-.22,3.66,3.08,3.08,0,0,1-.75.1,2.54,2.54,0,1,1,0-5.08,2.91,2.91,0,0,1,.95.16ZM292.3,251.6c-.49.43-1,.85-1.52,1.26a2.69,2.69,0,0,1,1.52-1.26Zm-43-53.88v-4.66a2.48,2.48,0,0,1,0,4.66Zm7.92,53.73a2.54,2.54,0,1,1-2.7,2.54,2.63,2.63,0,0,1,2.7-2.54Zm18,0a2.54,2.54,0,1,1-2.7,2.54,2.63,2.63,0,0,1,2.7-2.54Zm-36-16.91a2.54,2.54,0,1,1-2.7,2.54,2.62,2.62,0,0,1,2.7-2.54Zm18,0a2.54,2.54,0,1,1-2.7,2.54,2.62,2.62,0,0,1,2.7-2.54Zm18,0a2.54,2.54,0,1,1-2.7,2.54,2.62,2.62,0,0,1,2.7-2.54Zm18,0a2.54,2.54,0,1,1-2.7,2.54,2.62,2.62,0,0,1,2.7-2.54Zm-53.94-16.91a2.54,2.54,0,1,1-2.7,2.53,2.62,2.62,0,0,1,2.7-2.53Zm18,0a2.54,2.54,0,1,1-2.7,2.53,2.62,2.62,0,0,1,2.7-2.53Zm18,0a2.54,2.54,0,1,1-2.7,2.53,2.62,2.62,0,0,1,2.7-2.53Zm-18-16.92a2.54,2.54,0,1,1-2.7,2.54,2.63,2.63,0,0,1,2.7-2.54Zm18,0a2.54,2.54,0,1,1-2.7,2.54,2.63,2.63,0,0,1,2.7-2.54Zm-18-16.91a2.54,2.54,0,1,1-2.7,2.54,2.62,2.62,0,0,1,2.7-2.54Zm-9,59.79a2.54,2.54,0,1,1-2.7,2.54,2.63,2.63,0,0,1,2.7-2.54Zm18,0a2.54,2.54,0,1,1-2.7,2.54,2.63,2.63,0,0,1,2.7-2.54Zm18,0a2.54,2.54,0,1,1-2.7,2.54,2.63,2.63,0,0,1,2.7-2.54Zm-36-16.91a2.54,2.54,0,1,1-2.7,2.54,2.63,2.63,0,0,1,2.7-2.54Zm18,0a2.54,2.54,0,1,1-2.7,2.54,2.63,2.63,0,0,1,2.7-2.54Zm18,0a2.54,2.54,0,1,1-2.7,2.54,2.63,2.63,0,0,1,2.7-2.54Zm-36-16.91a2.54,2.54,0,1,1-2.7,2.54,2.62,2.62,0,0,1,2.7-2.54Zm18,0a2.54,2.54,0,1,1-2.7,2.54,2.62,2.62,0,0,1,2.7-2.54Zm0-16.91a2.54,2.54,0,1,1-2.7,2.53,2.62,2.62,0,0,1,2.7-2.53Z"/><path class="cls-32" d="M249.32,176.43l2.12-2.31c5.41,0,7.58-.34,12.62,2.09v5.31c0,7.62-6.63,13.86-14.74,13.86V176.43Z"/><polygon class="cls-35" points="270.16 305.45 258.28 305.45 262.05 288.86 270.16 288.86 270.16 305.45 270.16 305.45"/><polygon class="cls-35" points="319.43 288.86 315.66 305.45 328.4 305.45 328.4 292.53 328.4 288.86 319.43 288.86 319.43 288.86"/><path class="cls-32" d="M302.93,221h10.75c17.23,0,31.32,13.26,31.32,29.47V261H334.26V250.48c0-16.21-14.1-29.47-31.33-29.47Z"/><polygon class="cls-35" points="345 260.99 345 274.93 334.26 274.93 334.26 260.99 345 260.99 345 260.99"/><path class="cls-32" d="M257.61,193a15.24,15.24,0,0,1-8.29,2.42H230.88a7.49,7.49,0,0,1-7.46-5.87l26.2-15.4h1.82l6.17.64V193Z"/><path class="cls-7" d="M244.76,179.83H250a2.15,2.15,0,0,1,2.21,2.07h0A2.16,2.16,0,0,1,250,184h-5.23a2.15,2.15,0,0,1-2.21-2.08h0a2.15,2.15,0,0,1,2.21-2.07Z"/><path class="cls-32" d="M278.58,198l4.21-3.63,0,9a7.45,7.45,0,0,0,7.63,7.18h0a7.93,7.93,0,0,0,3.09-.62,8.31,8.31,0,0,1-6.79,3.43h0a8,8,0,0,1-8.17-7.68V198Z"/><path class="cls-32" d="M282.81,193.75v1.89a7.45,7.45,0,0,0,7.63,7.18h0a7.93,7.93,0,0,0,3.09-.62,8.31,8.31,0,0,1-6.79,3.43h0a8,8,0,0,1-8.17-7.67V194l4.23-.27Z"/><path class="cls-32" d="M282.42,189.2a7.55,7.55,0,0,0,7.51,5.87h0a7.92,7.92,0,0,0,3.08-.62,8.32,8.32,0,0,1-6.79,3.44h0a8,8,0,0,1-8.16-7.68v-1Z"/><path class="cls-36" d="M515.32,582.44l7.46,7.46,10.05-10a5.29,5.29,0,0,0,0-7.46h0a5.29,5.29,0,0,0-7.46,0l-10,10.05Z"/><path class="cls-36" d="M507.86,589.9l7.46-7.46-10.05-10.05a5.29,5.29,0,0,0-7.46,0h0a5.29,5.29,0,0,0,0,7.46l10.05,10Z"/><path class="cls-36" d="M510.05,582.44h10.54V568.23a5.29,5.29,0,0,0-5.27-5.28h0a5.29,5.29,0,0,0-5.27,5.28v14.21Z"/><polygon class="cls-37" points="523.85 597.44 525.31 602.05 531.78 597.45 538.25 592.85 531.78 588.25 525.32 583.65 523.85 588.26 523.85 597.44 523.85 597.44"/><path class="cls-38" d="M527.93,588.47v21.4a12.3,12.3,0,0,1-12.27,12.27h0a12.3,12.3,0,0,1-12.27-12.27v-21.4a12.27,12.27,0,0,1,24.54,0Z"/><path class="cls-38" d="M527.93,613a22,22,0,1,1-22-22,22,22,0,0,1,22,22Z"/><path class="cls-39" d="M519.39,580.77a5.27,5.27,0,1,0,5.26,5.26,5.27,5.27,0,0,0-5.26-5.26Z"/><path class="cls-39" d="M520.5,619.76V605.27a5.85,5.85,0,0,0-5.83-5.83h-8.25a14.79,14.79,0,0,0-14.75,14.75v5.43a2.07,2.07,0,0,0,2.06,2.06h0a2.06,2.06,0,0,0,2.06-2.06v-3a2.06,2.06,0,0,1,2.06-2.06h0a2.06,2.06,0,0,1,2.06,2.06v3a2.07,2.07,0,0,0,2.06,2.06h0a2.07,2.07,0,0,0,2.06-2.06v-3a2.07,2.07,0,0,1,2.06-2.06h0a2.07,2.07,0,0,1,2.06,2.06v3a2.06,2.06,0,0,0,2.06,2.06h0a2.07,2.07,0,0,0,2.06-2.06v-3a2.06,2.06,0,0,1,2.06-2.06h0a2.05,2.05,0,0,1,2,2.06v3.15a2.06,2.06,0,0,0,2.06,2h0a2.05,2.05,0,0,0,2.06-2Z"/><path class="cls-40" d="M171.91,392.83h11.36v18.3h-3.05V411a21.28,21.28,0,0,0-8.31-16.84v-1.28Z"/><path class="cls-40" d="M148.59,375.09l8.47-.06c0-.14,0-.29,0-.44a16.4,16.4,0,0,1,32.75-.89c0,.47,0,.93,0,1.4v23.38H177.26l-28.67-23.39Z"/><path class="cls-7" d="M173.44,385.05a10.69,10.69,0,1,0-10.89-10.69,10.8,10.8,0,0,0,10.89,10.69Z"/><path class="cls-14" d="M173.44,380.29a5.93,5.93,0,1,0-6-5.93,6,6,0,0,0,6,5.93Z"/><polygon class="cls-40" points="189.83 398.48 180.22 398.48 180.22 446.31 189.83 446.31 189.83 398.48 189.83 398.48"/><path class="cls-14" d="M258.81,419.63a7.47,7.47,0,0,1-6.2,8.6,8,8,0,0,1-2.07.07c-12.73-1.33-24.32,3.25-24.32,18a23,23,0,1,1-23-22.59h10.45c8,0,10.53-2,10.57-9.62l.09-14.48a7.78,7.78,0,0,1,.32-2.24,7.61,7.61,0,0,1,9.41-5.05,7.44,7.44,0,0,1,5.15,9.24,7.54,7.54,0,0,1-.76,1.71s1.13-1.29,1.26-1.4a7.69,7.69,0,0,1,10.71.61A7.36,7.36,0,0,1,249.8,413c-.13.11-1.56,1.06-1.56,1.06s1.64-.51,1.82-.54a7.58,7.58,0,0,1,8.75,6.09Z"/><path class="cls-14" d="M203.05,432.28a14,14,0,1,1-14.29,14,14.15,14.15,0,0,1,14.29-14Z"/><path class="cls-27" d="M191.34,443.43a21,21,0,0,1,16.95-8.56H255.6a36.41,36.41,0,0,1-34.34,24.06h0a36.55,36.55,0,0,1-29.92-15.5Z"/><path class="cls-40" d="M418,530.6V518.19H402.54a6.22,6.22,0,0,0-6.21,6.21h0a6.22,6.22,0,0,0,6.21,6.2Z"/><path class="cls-40" d="M418,494.32V481.91H402.54a6.22,6.22,0,0,0-6.21,6.2h0a6.22,6.22,0,0,0,6.21,6.2Z"/><path class="cls-16" d="M451.24,496.54v10.6a23.52,23.52,0,0,1-23.46,23.46H414.36V473.08h13.42a23.52,23.52,0,0,1,23.46,23.46Z"/><path class="cls-18" d="M441.81,446H403.12a12.39,12.39,0,0,0-12.35,12.35h0a12.39,12.39,0,0,0,12.35,12.35h38.69a12.39,12.39,0,0,0,12.35-12.35h0A12.39,12.39,0,0,0,441.81,446Z"/><path class="cls-18" d="M439.15,452H405.79v21.43a16.68,16.68,0,0,0,33.36,0V452Z"/><path class="cls-30" d="M429.51,461.78a3.17,3.17,0,1,0,3.17,3.17,3.17,3.17,0,0,0-3.17-3.17Z"/><path class="cls-30" d="M415.42,461.78a3.17,3.17,0,1,0,3.17,3.17,3.17,3.17,0,0,0-3.17-3.17Z"/><path class="cls-16" d="M422.47,468.1h0a3.68,3.68,0,0,0-3.67,3.67v7.71a3.68,3.68,0,0,0,3.67,3.67h0a3.68,3.68,0,0,0,3.66-3.67v-7.71a3.68,3.68,0,0,0-3.66-3.67Z"/><path class="cls-18" d="M452.19,521.54v-7.18h-8.93a3.61,3.61,0,0,0-3.59,3.59h0a3.6,3.6,0,0,0,3.59,3.59Z"/><path class="cls-18" d="M452.19,504.15V497h-8.93a3.61,3.61,0,0,0-3.59,3.59h0a3.6,3.6,0,0,0,3.59,3.59Z"/><path class="cls-18" d="M472.57,501.84V508A13.6,13.6,0,0,1,459,521.54h-7.76V488.28H459a13.6,13.6,0,0,1,13.57,13.56Z"/><path class="cls-41" d="M467.12,472.62H444.75a7.17,7.17,0,0,0-7.15,7.14h0a7.17,7.17,0,0,0,7.15,7.14h22.37a7.16,7.16,0,0,0,7.14-7.14h0a7.16,7.16,0,0,0-7.14-7.14Z"/><path class="cls-41" d="M465.58,476.1H446.29v12.39a9.65,9.65,0,0,0,19.29,0V476.1Z"/><path class="cls-16" d="M460,481.75a1.83,1.83,0,1,0,1.84,1.83,1.83,1.83,0,0,0-1.84-1.83Z"/><path class="cls-16" d="M451.86,481.75a1.83,1.83,0,1,0,1.83,1.83,1.82,1.82,0,0,0-1.83-1.83Z"/><path class="cls-16" d="M455.93,485.4h0a2.13,2.13,0,0,0-2.12,2.13V492a2.12,2.12,0,0,0,2.12,2.12h0a2.12,2.12,0,0,0,2.12-2.12v-4.45a2.13,2.13,0,0,0-2.12-2.13Z"/><path class="cls-7" d="M311.42,540a12.53,12.53,0,1,1,17.12,4.58l-28,16.14-3.09-5.35,27.95-16.14a6.35,6.35,0,1,0-8.68-2.32l.26.44a3.09,3.09,0,1,1-5.35,3.09l-.26-.44Z"/><path class="cls-6" d="M311.42,540a12.6,12.6,0,0,1-1.39-3.58l5.92-2.12a6.47,6.47,0,0,0,.82,2.61l.26.44a3.09,3.09,0,1,1-5.35,3.09l-.26-.44Z"/><path class="cls-42" d="M315.67,565.4v4.79a3.29,3.29,0,0,1-3.28,3.29h0a3.3,3.3,0,0,1-3.28-3.29V565.4a3.3,3.3,0,0,0-3.29-3.29h0a3.3,3.3,0,0,0-3.28,3.29v4.74a3.29,3.29,0,0,1-3.28,3.28h0a3.28,3.28,0,0,1-3.28-3.28v-4.8a3.3,3.3,0,0,0-3.29-3.28h0c-4.4,0-7.65.05-13.13.05h0a3.3,3.3,0,0,0-3.28,3.29v4.74a3.29,3.29,0,0,1-3.28,3.28h0a3.29,3.29,0,0,1-3.29-3.28v-4.8a3.29,3.29,0,0,0-3.28-3.28h0a3.29,3.29,0,0,0-3.28,3.28v4.8a3.29,3.29,0,0,1-3.28,3.28h0a3.29,3.29,0,0,1-3.29-3.28v-4.77a29.64,29.64,0,0,1,29.55-29.53h0a29.63,29.63,0,0,1,29.54,29.56Z"/><path class="cls-7" d="M236.11,505a18.7,18.7,0,0,1,16.17,28,18.69,18.69,0,0,1-16.17-28Z"/><path class="cls-7" d="M284.44,505a18.69,18.69,0,0,0-16.17,28,18.7,18.7,0,0,0,16.17-28Z"/><path class="cls-6" d="M239.2,529.83v3.54a7.81,7.81,0,0,0,7.78,7.79,7.8,7.8,0,0,1,7.79,7.78v3.55a3.91,3.91,0,0,0,3.9,3.9h3.21a3.92,3.92,0,0,0,3.9-3.9v-3.55a7.8,7.8,0,0,1,7.78-7.78,7.81,7.81,0,0,0,7.79-7.79v-3.54a7.81,7.81,0,0,0-7.79-7.79H247a7.8,7.8,0,0,0-7.78,7.79Z"/><path class="cls-16" d="M251.49,523.12a8,8,0,1,1-8,8,8,8,0,0,1,8-8Z"/><path class="cls-43" d="M251.49,523.12h.31v7l4.12-5.68c.17.12.34.24.5.37l-4.12,5.68,6.67-2.17a5.62,5.62,0,0,1,.19.58l-6.67,2.17,6.67,2.17a5.8,5.8,0,0,1-.19.59l-6.67-2.17,4.12,5.68a5.74,5.74,0,0,1-.5.36L251.8,532v7h-.62v-7l-4.13,5.68c-.17-.11-.33-.23-.5-.36l4.13-5.68L244,533.85c-.07-.19-.13-.39-.19-.59l6.68-2.17-6.68-2.17c.06-.2.12-.39.19-.58l6.68,2.17-4.12-5.68.49-.37,4.13,5.68v-7Z"/><path class="cls-16" d="M269.06,523.12a8,8,0,1,1-8,8,8,8,0,0,1,8-8Z"/><path class="cls-43" d="M269.06,523.12h.31v7l4.12-5.68c.17.12.34.24.5.37l-4.12,5.68,6.67-2.17a3.93,3.93,0,0,1,.19.58l-6.67,2.17,6.67,2.17a4.06,4.06,0,0,1-.19.59l-6.67-2.17,4.12,5.68a5.74,5.74,0,0,1-.5.36L269.37,532v7h-.62v-7l-4.13,5.68a5.6,5.6,0,0,1-.49-.36l4.12-5.68-6.68,2.17c-.07-.19-.13-.39-.19-.59l6.68-2.17-6.68-2.17c.06-.2.12-.39.19-.58l6.68,2.17-4.12-5.68.49-.37,4.13,5.68v-7Z"/><path class="cls-1" d="M315.67,567.66v2.53a3.29,3.29,0,0,1-3.28,3.29h0a3.3,3.3,0,0,1-3.28-3.29v-2.53Zm-13.13,0v2.48a3.29,3.29,0,0,1-3.28,3.28h0a3.28,3.28,0,0,1-3.28-3.28v-2.48Zm-26.26,0v2.48a3.29,3.29,0,0,1-3.28,3.28h0a3.29,3.29,0,0,1-3.29-3.28v-2.48Zm-13.13,0v2.48a3.29,3.29,0,0,1-3.28,3.28h0a3.29,3.29,0,0,1-3.29-3.28v-2.48Z"/><path class="cls-7" d="M269.06,528.7a2.4,2.4,0,1,1-2.4,2.39,2.4,2.4,0,0,1,2.4-2.39Z"/><path class="cls-7" d="M251.49,528.7a2.4,2.4,0,1,1-2.4,2.39,2.4,2.4,0,0,1,2.4-2.39Z"/><path class="cls-7" d="M280.81,543.14a3.17,3.17,0,1,1-3.17,3.16,3.16,3.16,0,0,1,3.17-3.16Z"/><path class="cls-7" d="M293.72,543.14a3.17,3.17,0,1,1-3.16,3.16,3.16,3.16,0,0,1,3.16-3.16Z"/><path class="cls-7" d="M274.24,552.18a3.17,3.17,0,1,1-3.17,3.17,3.16,3.16,0,0,1,3.17-3.17Z"/><path class="cls-7" d="M287.27,552.18a3.17,3.17,0,1,1-3.17,3.17,3.16,3.16,0,0,1,3.17-3.17Z"/><path class="cls-7" d="M300.3,552.18a3.17,3.17,0,1,1-3.17,3.17,3.16,3.16,0,0,1,3.17-3.17Z"/><path class="cls-44" d="M635.22,538.19H571.75a10.7,10.7,0,0,1,0-21.4h46.6a3.54,3.54,0,0,0,3.52-3.52V501.4h8.35v11.87a11.91,11.91,0,0,1-11.87,11.88h-46.6a2.35,2.35,0,1,0,0,4.69h63.47a4.18,4.18,0,1,1,0,8.35Z"/><path class="cls-26" d="M617.6,516.79h.75a3.52,3.52,0,0,0,2.58-1.14l4.23,7.33a11.84,11.84,0,0,1-3.09,1.57l-4.47-7.76Z"/><path class="cls-26" d="M623.17,538.19h-3.45v-8.35h3.45v8.35Zm-7.15,0h-3.46v-8.35H616v8.35Zm-7.15,0h-3.46v-8.35h3.46v8.35Zm-7.16,0h-3.46v-8.35h3.46v8.35Zm-7.15,0H591.1v-8.35h3.46v8.35Zm-7.15,0H584v-8.35h3.46v8.35ZM584,516.79h3.46v8.36H584v-8.36Zm7.15,0h3.46v8.36H591.1v-8.36Zm7.15,0h3.46v8.36h-3.46v-8.36Zm7.16,0h3.46v8.36h-3.46v-8.36Zm7.15,0H616v8.36h-3.46v-8.36Z"/><polygon class="cls-26" points="576.79 516.79 580.25 516.79 580.25 525.15 576.79 525.15 576.79 516.79 576.79 516.79"/><path class="cls-26" d="M566.09,518.42a10.6,10.6,0,0,1,3.29-1.36l5.88,8.09h-3.51a2.26,2.26,0,0,0-.69.1l-5-6.83Z"/><path class="cls-26" d="M561.19,529.22a10.76,10.76,0,0,1,0-3.46h9a2.33,2.33,0,0,0,0,3.46Z"/><path class="cls-26" d="M569.48,538a10.59,10.59,0,0,1-3.3-1.33l5-6.86a2.33,2.33,0,0,0,.59.08h3.63l-5.9,8.11Z"/><polygon class="cls-26" points="580.25 538.19 576.79 538.19 576.79 529.84 580.25 529.84 580.25 538.19 580.25 538.19"/><path class="cls-27" d="M564.26,512.22a3.29,3.29,0,0,1-3.28-3.28h0a3.29,3.29,0,0,1,3.28-3.27h7.17a7.07,7.07,0,0,0,7-7.05V461.49h11a40.83,40.83,0,0,1,40.72,40.71v10Z"/><path class="cls-44" d="M609.69,466.88c1.06.61,2.08,1.26,3.08,2L598.11,486l11.58-19.11Zm9.95,8q1.22,1.35,2.31,2.79l-18.44,12.53,16.13-15.32Zm7.19,11.1c.49,1.11.93,2.25,1.31,3.41l-21.65,6.23L626.83,486Z"/><path class="cls-27" d="M630.21,501.71c0,.17,0,.33,0,.49v10h-9.41a9.82,9.82,0,0,0,9.37-9.78v-.72Z"/><path class="cls-44" d="M573.81,483.16C550.61,460,548.5,463.5,555.67,439A24.42,24.42,0,0,1,565,452.1a18.63,18.63,0,0,1,26.32,0A24.5,24.5,0,0,1,600.69,439c7.17,24.52,5.07,21-18.13,44.19a6.39,6.39,0,0,1-8.75,0Z"/><path class="cls-26" d="M587.54,452.77a8.89,8.89,0,1,1-8.89,8.89,8.89,8.89,0,0,1,8.89-8.89Z"/><path class="cls-30" d="M587.54,458.09a3.57,3.57,0,1,1-3.57,3.57,3.57,3.57,0,0,1,3.57-3.57Z"/><path class="cls-26" d="M568.82,452.77a8.89,8.89,0,1,0,8.89,8.89,8.89,8.89,0,0,0-8.89-8.89Z"/><path class="cls-30" d="M568.82,458.09a3.57,3.57,0,1,0,3.57,3.57,3.57,3.57,0,0,0-3.57-3.57Z"/><polygon class="cls-26" points="630.33 538.19 626.87 538.19 626.87 529.84 630.33 529.84 630.33 538.19 630.33 538.19"/><path class="cls-45" d="M827.13,36.09a19.29,19.29,0,0,1,13.66,23.52L819.62,54c40.82,40-32.49,41.89-16.8,80.06-19.18-34.57-4.33-65.72.79-84.31a19.36,19.36,0,0,1,23.52-13.66Z"/><path class="cls-15" d="M827.13,36.09a19.29,19.29,0,0,1,13.66,23.52L819.67,54a9.4,9.4,0,0,0,4.82-18.18,9.69,9.69,0,0,0-2.24-.32l0-.06a19,19,0,0,1,4.86.64Z"/><path class="cls-7" d="M820.37,51.35a6.65,6.65,0,1,0-4.72-8.14,6.67,6.67,0,0,0,4.72,8.14Z"/><path class="cls-46" d="M822.92,41.74a3.29,3.29,0,1,1-4,2.33,3.29,3.29,0,0,1,4-2.33Z"/><path class="cls-47" d="M762.1,82.17c97.74,48.65,74.5-79.81,0,0Z"/><path class="cls-48" d="M711,117.36H674.33a2.36,2.36,0,0,0-2.35,2.36h0a2.36,2.36,0,0,0,2.35,2.35H711a2.35,2.35,0,0,0,2.35-2.35h0a2.36,2.36,0,0,0-2.35-2.36Z"/><path class="cls-48" d="M711.48,184.38,700.6,165.54a31.43,31.43,0,0,0-57.45,24.34h4.93a26.73,26.73,0,0,1,48.44-22l10.88,18.85,4.08-2.36Z"/><path class="cls-48" d="M666.1,122.44h0A31.54,31.54,0,0,1,635,95.83a21.43,21.43,0,0,0-.6-3.74A6.2,6.2,0,0,0,628.64,88h-2.38a2.35,2.35,0,0,1,0-4.69h2.38a10.89,10.89,0,0,1,10.47,8,36.31,36.31,0,0,1,.59,3.9,26.84,26.84,0,0,0,26.39,22.47h0v4.72Z"/><path class="cls-49" d="M681,152c-.55,18.15-29.19,18.25-29.67-.11-.16-6.36,4.35-19.69,4.35-33h21c0,13,4.53,27,4.34,33.08Z"/><path class="cls-48" d="M653.51,98H678.9a6.62,6.62,0,0,1,6.6,6.6h0a6.62,6.62,0,0,1-6.6,6.6H653.51a6.62,6.62,0,0,1-6.6-6.6h0a6.62,6.62,0,0,1,6.6-6.6Z"/><path class="cls-50" d="M666.21,92.35h0a13,13,0,0,1,12.95,13v7.45a13,13,0,0,1-12.95,13h0a13,13,0,0,1-13-13V105.3a13,13,0,0,1,13-13Z"/><path class="cls-49" d="M677,113a10.74,10.74,0,1,1-21.48,0v-.6h1.21v.6a9.53,9.53,0,1,0,19.06,0v-.6H677v.6Z"/><path class="cls-51" d="M661.89,99.89a3.47,3.47,0,1,1-3.47,3.46,3.46,3.46,0,0,1,3.47-3.46Z"/><path class="cls-51" d="M670.53,99.89a3.47,3.47,0,1,1-3.47,3.46,3.46,3.46,0,0,1,3.47-3.46Z"/><path class="cls-52" d="M437.61,195.38h36.58a28.39,28.39,0,0,0,28.3-28.31c0-15.57-12.74-28-28.3-28.3l-6.28-.12H391.79v22.06h78.38a13.73,13.73,0,0,1,13.69,13.69c0,7.74-6.42,13.44-13.69,13.7l-32.56,1.13v6.15Z"/><path class="cls-52" d="M392.78,135.66,326.83,150v5.38a5.39,5.39,0,0,0,5.38,5.38h60.57V135.66Z"/><path class="cls-52" d="M326.83,155.62h11.32V150a5.68,5.68,0,0,0-5.66-5.66h0a5.68,5.68,0,0,0-5.66,5.66v5.67Z"/><path class="cls-53" d="M329.33,156.19h0a.74.74,0,0,0,1.05,0l4.33-4.33,4.33,4.33a.74.74,0,0,0,1,0h0a.74.74,0,0,0,0-1.05l-4.85-4.86h0a.74.74,0,0,0-1.05,0l-4.86,4.86a.74.74,0,0,0,0,1.05Z"/><path class="cls-53" d="M339,156.19h0a.74.74,0,0,0,1,0l4.33-4.33,4.33,4.33a.74.74,0,0,0,1.05,0h0a.74.74,0,0,0,0-1.05L345,150.28h0a.75.75,0,0,0-1.06,0L339,155.14a.74.74,0,0,0,0,1.05Z"/><path class="cls-53" d="M348.75,156.19h0a.74.74,0,0,0,1.05,0l4.33-4.33,4.33,4.33a.74.74,0,0,0,1.05,0h0a.74.74,0,0,0,0-1.05l-4.86-4.86h0a.74.74,0,0,0-1,0l-4.85,4.86a.74.74,0,0,0,0,1.05Z"/><path class="cls-53" d="M358.46,156.19h0a.74.74,0,0,0,1.05,0l4.33-4.33,2.44,2.44a.74.74,0,0,0,1.05,0h0a.74.74,0,0,0,0-1.05l-3-3h0a.74.74,0,0,0-1.05,0l-4.85,4.86a.74.74,0,0,0,0,1.05Z"/><path class="cls-53" d="M366,153.78h0a.75.75,0,0,0,.75.74H380.1V153H366.79a.76.76,0,0,0-.75.75Z"/><path class="cls-53" d="M389.26,128.63a10.76,10.76,0,1,1-10.76,10.76,10.75,10.75,0,0,1,10.76-10.76Z"/><path class="cls-16" d="M389.26,133.87a5.52,5.52,0,1,1-5.52,5.52,5.52,5.52,0,0,1,5.52-5.52Z"/><path class="cls-53" d="M400,138.65l4.83-4.83a2.55,2.55,0,0,1,3.6,0l4.83,4.83Z"/><path class="cls-53" d="M413.25,138.65l4.83-4.83a2.55,2.55,0,0,1,3.6,0l4.83,4.83Z"/><path class="cls-53" d="M426.51,138.65l4.83-4.83a2.55,2.55,0,0,1,3.6,0l4.83,4.83Z"/><path class="cls-53" d="M439.77,138.65l4.83-4.83a2.55,2.55,0,0,1,3.6,0l4.83,4.83Z"/><path class="cls-53" d="M453,138.65l4.83-4.83a2.55,2.55,0,0,1,3.6,0l4.83,4.83Z"/><path class="cls-7" d="M404.37,141h0a.72.72,0,0,1,1,0l9,9a.7.7,0,0,1,0,1h0a.71.71,0,0,1-1,0l-9-9a.71.71,0,0,1,0-1Zm63.38,0h0a.72.72,0,0,1,1,0l9,9a.72.72,0,0,1,0,1h0a.72.72,0,0,1-1,0l-9-9a.71.71,0,0,1,0-1Zm-6.33,0h0a.71.71,0,0,1,1,0l9,9a.72.72,0,0,1,0,1h0a.72.72,0,0,1-1,0l-9-9a.69.69,0,0,1,0-1Zm-6.34,0h0a.71.71,0,0,1,1,0l9,9a.72.72,0,0,1,0,1h0a.72.72,0,0,1-1,0l-9-9a.71.71,0,0,1,0-1Zm-6.34,0h0a.72.72,0,0,1,1,0l9,9a.7.7,0,0,1,0,1h0a.71.71,0,0,1-1,0l-9-9a.71.71,0,0,1,0-1Zm-6.34,0h0a.72.72,0,0,1,1,0l9,9a.7.7,0,0,1,0,1h0a.71.71,0,0,1-1,0l-9-9a.71.71,0,0,1,0-1Zm-6.34,0h0a.72.72,0,0,1,1,0l9,9a.72.72,0,0,1,0,1h0a.72.72,0,0,1-1,0l-9-9a.71.71,0,0,1,0-1Zm-6.33,0h0a.71.71,0,0,1,1,0l9,9a.72.72,0,0,1,0,1h0a.72.72,0,0,1-1,0l-9-9a.69.69,0,0,1,0-1Zm-6.34,0h0a.71.71,0,0,1,1,0l9,9a.72.72,0,0,1,0,1h0a.72.72,0,0,1-1,0l-9-9a.69.69,0,0,1,0-1Zm-6.34,0h0a.72.72,0,0,1,1,0l9,9a.7.7,0,0,1,0,1h0a.72.72,0,0,1-1,0l-9-9a.71.71,0,0,1,0-1Zm-6.34,0h0a.72.72,0,0,1,1,0l9,9a.7.7,0,0,1,0,1h0a.71.71,0,0,1-1,0l-9-9a.71.71,0,0,1,0-1Z"/><path class="cls-53" d="M392.24,152.54h10.61a5.5,5.5,0,0,1,5.49,5.48h0a5.51,5.51,0,0,1-5.49,5.49h-16a.13.13,0,0,1-.13-.13V158a5.5,5.5,0,0,1,5.49-5.48Z"/><path class="cls-53" d="M408.34,151.79V158a5.49,5.49,0,1,1-11,0v-6.23a5.49,5.49,0,0,1,11,0Z"/><path class="cls-53" d="M448.09,152.54H458.7a5.5,5.5,0,0,1,5.49,5.48h0a5.51,5.51,0,0,1-5.49,5.49h-16a.13.13,0,0,1-.13-.13V158a5.5,5.5,0,0,1,5.49-5.48Z"/><path class="cls-53" d="M464.19,151.79V158a5.49,5.49,0,1,1-11,0v-6.23a5.49,5.49,0,0,1,11,0Z"/><path class="cls-54" d="M688,622.29h18.59v15.23a3.37,3.37,0,0,1-3.35,3.36H691.38a3.37,3.37,0,0,1-3.36-3.36V622.29Z"/><path class="cls-54" d="M712.23,622.29h18.59v15.23a3.37,3.37,0,0,1-3.36,3.36H715.59a3.37,3.37,0,0,1-3.36-3.36V622.29Z"/><path class="cls-54" d="M740.64,622.29h18.59v15.23a3.37,3.37,0,0,1-3.36,3.36H744a3.37,3.37,0,0,1-3.36-3.36V622.29Z"/><path class="cls-54" d="M764.85,622.29h18.59v15.23a3.37,3.37,0,0,1-3.36,3.36H768.2a3.37,3.37,0,0,1-3.35-3.36V622.29Z"/><path class="cls-55" d="M688.78,580.14a7.9,7.9,0,0,0-7.87,7.88v5.77h2.5V588a5.39,5.39,0,0,1,5.37-5.37H690v-2.51Z"/><polygon class="cls-54" points="783.44 589.95 764.85 589.95 764.85 637.52 783.44 637.52 783.44 589.95 783.44 589.95"/><polygon class="cls-54" points="759.23 589.95 740.64 589.95 740.64 637.52 759.23 637.52 759.23 589.95 759.23 589.95"/><polygon class="cls-54" points="730.82 589.95 712.23 589.95 712.23 637.52 730.82 637.52 730.82 589.95 730.82 589.95"/><polygon class="cls-54" points="706.61 589.95 688.02 589.95 688.02 637.52 706.61 637.52 706.61 589.95 706.61 589.95"/><path class="cls-56" d="M768,568.94H703.46A15.49,15.49,0,0,0,688,584.38v21.39a15.49,15.49,0,0,0,15.44,15.44H768a15.49,15.49,0,0,0,15.44-15.44V584.38A15.49,15.49,0,0,0,768,568.94Z"/><path class="cls-55" d="M785.15,564.24a6.91,6.91,0,1,0,6.91,6.91,6.91,6.91,0,0,0-6.91-6.91Z"/><path class="cls-55" d="M753.7,564.24a6.91,6.91,0,1,0,6.91,6.91,6.92,6.92,0,0,0-6.91-6.91Z"/><path class="cls-54" d="M774.87,566.06H764a13.64,13.64,0,0,0-13.61,13.61v29.88h38.13V579.67a13.65,13.65,0,0,0-13.62-13.61Z"/><path class="cls-57" d="M757.92,626.31h23a12.49,12.49,0,0,0,12.46-12.46v-4.41a16.91,16.91,0,0,0-16.86-16.86H762.33a16.92,16.92,0,0,0-16.87,16.86v4.41a12.5,12.5,0,0,0,12.46,12.46Z"/><path class="cls-58" d="M774,599.68h0a3.09,3.09,0,0,0-3.08,3.08v3.39a3.09,3.09,0,0,0,3.08,3.08h0a3.08,3.08,0,0,0,3.07-3.08v-3.39a3.09,3.09,0,0,0-3.07-3.08Z"/><path class="cls-58" d="M764.81,599.68h0a3.09,3.09,0,0,0-3.08,3.08v3.39a3.09,3.09,0,0,0,3.08,3.08h0a3.09,3.09,0,0,0,3.08-3.08v-3.39a3.09,3.09,0,0,0-3.08-3.08Z"/><path class="cls-59" d="M776.88,581.12a5.57,5.57,0,1,0,5.57,5.57,5.57,5.57,0,0,0-5.57-5.57Z"/><path class="cls-59" d="M762,581.12a5.57,5.57,0,1,0,5.57,5.57,5.57,5.57,0,0,0-5.57-5.57Z"/><polygon class="cls-56" points="688.02 599.71 707.94 599.71 707.94 621.21 688.02 621.21 688.02 599.71 688.02 599.71"/><path class="cls-60" d="M683.8,321.83h13.66V286.18a4.53,4.53,0,0,1,4.52-4.52h0a4.53,4.53,0,0,1,4.52,4.52v6l17.26,4.62c4.86,1.3,5.51,4.55,6.2,7.58H716.83a3.68,3.68,0,0,0-3.67,3.67v43.11a29.44,29.44,0,0,1-29.36,29.36H654.45V351.18a29.44,29.44,0,0,1,29.35-29.35Z"/><path class="cls-50" d="M713.16,330.75v20.43a29.44,29.44,0,0,1-29.36,29.36H670.42V358a27.32,27.32,0,0,1,27.24-27.24Z"/><path class="cls-61" d="M713.15,351.74a29.45,29.45,0,0,1-26.75,28.68V367.51a15.81,15.81,0,0,1,15.76-15.77Z"/><path class="cls-60" d="M670.42,351.18h-16v34a16.42,16.42,0,0,1-16.37,16.37H610.45v5.91h37.69a22.34,22.34,0,0,0,22.28-22.28v-34Z"/><path class="cls-62" d="M696.53,341.88H721a9.89,9.89,0,0,1,9.87,9.86v9.87h-7.73V351a5.08,5.08,0,0,0-5.06-5.06H696.53v-4.06Z"/><path class="cls-50" d="M670.42,368.2h16v17a16.42,16.42,0,0,0,16.37,16.37H723v5.91H692.7a22.34,22.34,0,0,1-22.28-22.28v-17Z"/><path class="cls-7" d="M707.15,295.12a4,4,0,1,1-4,4,4,4,0,0,1,4-4Z"/><path class="cls-6" d="M792,446.77h11.22a16.87,16.87,0,0,1,16.83,16.83V479a16.88,16.88,0,0,1-16.83,16.83H792A16.89,16.89,0,0,1,775.2,479V463.6A16.88,16.88,0,0,1,792,446.77Z"/><path class="cls-63" d="M792,448.78h11.22a14.86,14.86,0,0,1,14.82,14.82V479a14.86,14.86,0,0,1-14.82,14.82H792A14.86,14.86,0,0,1,777.21,479V463.6A14.86,14.86,0,0,1,792,448.78Z"/><path class="cls-64" d="M774.75,490.83,782,503.35a6.07,6.07,0,0,0,8.28,2.22h0a6.08,6.08,0,0,0,2.22-8.28l-7.23-12.52a6.08,6.08,0,0,0-8.28-2.22h0a6.07,6.07,0,0,0-2.22,8.28Z"/><path class="cls-64" d="M802.81,497.29,810,484.77a6.07,6.07,0,0,1,8.28-2.22h0a6.09,6.09,0,0,1,2.22,8.28l-7.23,12.52a6.08,6.08,0,0,1-8.28,2.22h0a6.07,6.07,0,0,1-2.22-8.28Z"/><path class="cls-64" d="M776.38,476.61h14.46a6.08,6.08,0,0,0,6.06-6.07h0a6.08,6.08,0,0,0-6.06-6.06H776.38a6.08,6.08,0,0,0-6.06,6.06h0a6.08,6.08,0,0,0,6.06,6.07Z"/><path class="cls-64" d="M804.44,464.48H818.9a6.08,6.08,0,0,1,6.06,6.06h0a6.08,6.08,0,0,1-6.06,6.07H804.44a6.08,6.08,0,0,1-6.06-6.07h0a6.08,6.08,0,0,1,6.06-6.06Z"/><path class="cls-64" d="M818.89,420.3h0a6.86,6.86,0,0,0-9.66,0l-13.49,13.49,9.66,9.67L818.89,430a6.84,6.84,0,0,0,0-9.66Z"/><path class="cls-64" d="M776.39,420.3h0a6.86,6.86,0,0,1,9.66,0l13.49,13.49-9.66,9.67L776.39,430a6.84,6.84,0,0,1,0-9.66Z"/><path class="cls-6" d="M792.83,421.77h9.63a14.47,14.47,0,0,1,14.43,14.44v8.42a19.3,19.3,0,0,1-19.25,19.25h0a19.3,19.3,0,0,1-19.25-19.25v-8.42a14.48,14.48,0,0,1,14.44-14.44Z"/><path class="cls-63" d="M792.78,423.69a12.49,12.49,0,0,0-12.44,12.44v8.52a17.31,17.31,0,0,0,34.61,0v-8.52a12.49,12.49,0,0,0-12.44-12.44Z"/><path class="cls-65" d="M790.17,429.6h0a6.4,6.4,0,0,1,6.38,6.38v2.74a6.4,6.4,0,0,1-6.38,6.38h0a6.4,6.4,0,0,1-6.38-6.38V436a6.4,6.4,0,0,1,6.38-6.38Z"/><path class="cls-65" d="M805.11,429.6h0a6.4,6.4,0,0,0-6.38,6.38v2.74a6.4,6.4,0,0,0,6.38,6.38h0a6.4,6.4,0,0,0,6.38-6.38V436a6.4,6.4,0,0,0-6.38-6.38Z"/><path class="cls-7" d="M790.17,434.42a2.93,2.93,0,1,1-2.92,2.93,2.93,2.93,0,0,1,2.92-2.93Z"/><path class="cls-7" d="M805.11,434.42a2.93,2.93,0,1,1-2.92,2.93,2.93,2.93,0,0,1,2.92-2.93Z"/><path class="cls-66" d="M795.91,445.18h3.47c1.06,0,2.34.95,1.92,1.93-1.68,4-5.6,3.95-7.32,0-.42-1,.87-1.93,1.93-1.93Z"/><path class="cls-25" d="M808,448.91a10.84,10.84,0,0,1-20.71,0h1.29a9.62,9.62,0,0,0,18.14,0Z"/><path class="cls-67" d="M48.56,476.76h0a8,8,0,0,1,8,8v23a8,8,0,0,1-8,8h0a8,8,0,0,1-8-8v-23a8,8,0,0,1,8-8Z"/><path class="cls-67" d="M48.56,467h0a8,8,0,0,1,8,8v23a8,8,0,0,1-8,8h0a8,8,0,0,1-8-8V475a8,8,0,0,1,8-8Z"/><path class="cls-68" d="M85.16,491.43c-30.89-41.87-50.44-3.15-69.62-6.94v13.88c19.19-3.8,38.73,34.94,69.62-6.94Z"/><path class="cls-69" d="M85.16,491.43C54.27,458.55,34.72,489,15.54,486v10.9c19.19-3,38.73,27.43,69.62-5.45Z"/><path class="cls-69" d="M1.43,506.82h0a4.92,4.92,0,0,1,0-6.94L13.35,488a4.91,4.91,0,0,1,6.93,0h0a4.92,4.92,0,0,1,0,6.94L8.37,506.82a4.94,4.94,0,0,1-6.94,0Z"/><path class="cls-69" d="M20.28,494.9h0a4.92,4.92,0,0,0,0-6.94L8.37,476a4.94,4.94,0,0,0-6.94,0h0a4.92,4.92,0,0,0,0,6.94L13.35,494.9a4.93,4.93,0,0,0,6.93,0Z"/><path class="cls-69" d="M4.67,498.12h7.92V484.35H4.67v1.88a7.11,7.11,0,0,1,2.27,5.2,7.11,7.11,0,0,1-2.27,5.2v1.49Z"/><polygon class="cls-7" points="53.87 484.33 53.87 498.87 52.41 498.87 52.41 484.33 53.87 484.33 53.87 484.33"/><path class="cls-70" d="M55.67,484.33a2.53,2.53,0,1,1-2.53-2.53,2.54,2.54,0,0,1,2.53,2.53Z"/><path class="cls-70" d="M55.67,498.87a2.53,2.53,0,1,1-2.53-2.53,2.54,2.54,0,0,1,2.53,2.53Z"/><polygon class="cls-7" points="47.6 484.33 47.6 498.87 46.13 498.87 46.13 484.33 47.6 484.33 47.6 484.33"/><path class="cls-70" d="M49.4,484.33a2.54,2.54,0,1,1-2.53-2.53,2.54,2.54,0,0,1,2.53,2.53Z"/><path class="cls-70" d="M49.4,498.87a2.54,2.54,0,1,1-2.53-2.53,2.54,2.54,0,0,1,2.53,2.53Z"/><polygon class="cls-7" points="41.33 484.33 41.33 498.87 39.86 498.87 39.86 484.33 41.33 484.33 41.33 484.33"/><path class="cls-70" d="M43.13,484.33a2.54,2.54,0,1,1-2.53-2.53,2.54,2.54,0,0,1,2.53,2.53Z"/><path class="cls-70" d="M43.13,498.87a2.54,2.54,0,1,1-2.53-2.53,2.54,2.54,0,0,1,2.53,2.53Z"/><polygon class="cls-7" points="59.06 490.63 59.06 492.57 15.54 492.57 15.54 490.63 59.06 490.63 59.06 490.63"/><path class="cls-7" d="M64.61,488.52v5.82h5.81v-5.82Zm6.56,6.57v2.42a3.67,3.67,0,0,1-3.66,3.66h0a3.67,3.67,0,0,1-3.66-3.66v-2.42H61.43a3.67,3.67,0,0,1-3.66-3.66h0a3.67,3.67,0,0,1,3.66-3.66h2.42v-2.42a3.67,3.67,0,0,1,3.66-3.66h0a3.67,3.67,0,0,1,3.66,3.66v2.42h2.42a3.67,3.67,0,0,1,3.66,3.66h0a3.67,3.67,0,0,1-3.66,3.66Z"/><path class="cls-67" d="M71.81,491.43a4.3,4.3,0,1,1-4.3-4.29,4.29,4.29,0,0,1,4.3,4.29Z"/><path class="cls-7" d="M15.54,493.69a2.09,2.09,0,1,1,2.09-2.09,2.1,2.1,0,0,1-2.09,2.09Z"/></svg>